<svg width="154" height="42" viewBox="0 0 154 42" fill="none" xmlns="http://www.w3.org/2000/svg">
<rect width="154" height="42" rx="6" fill="#FD92A4" fill-opacity="0.3"/>
<path d="M31.556 27L35.264 14.4H37.388L33.572 27H31.556ZM23.924 27L20.162 14.4H22.268L25.958 27H23.924ZM24.194 27L27.74 14.4H29.666L26.138 27H24.194ZM31.358 27L27.884 14.4H29.81L33.392 27H31.358ZM38.677 27V14.4H40.693V27H38.677ZM44.779 27V22.392H46.795V27H44.779ZM44.779 22.392C44.779 21.672 44.695 21.12 44.527 20.736C44.359 20.34 44.125 20.064 43.825 19.908C43.537 19.752 43.201 19.674 42.817 19.674C42.133 19.662 41.605 19.884 41.233 20.34C40.873 20.796 40.693 21.45 40.693 22.302H39.919C39.919 21.354 40.057 20.544 40.333 19.872C40.621 19.188 41.023 18.672 41.539 18.324C42.055 17.964 42.667 17.784 43.375 17.784C44.083 17.784 44.695 17.928 45.211 18.216C45.727 18.504 46.117 18.954 46.381 19.566C46.657 20.166 46.795 20.952 46.795 21.924V22.392H44.779ZM54.3267 27L54.2367 25.308V22.374C54.2367 21.762 54.1707 21.252 54.0387 20.844C53.9187 20.424 53.7147 20.106 53.4267 19.89C53.1507 19.662 52.7787 19.548 52.3107 19.548C51.8787 19.548 51.5007 19.638 51.1767 19.818C50.8527 19.998 50.5767 20.28 50.3487 20.664L48.5847 20.016C48.7767 19.62 49.0287 19.254 49.3407 18.918C49.6647 18.57 50.0667 18.294 50.5467 18.09C51.0387 17.886 51.6267 17.784 52.3107 17.784C53.1867 17.784 53.9187 17.958 54.5067 18.306C55.0947 18.642 55.5267 19.128 55.8027 19.764C56.0907 20.4 56.2347 21.168 56.2347 22.068L56.1807 27H54.3267ZM51.7347 27.216C50.6547 27.216 49.8147 26.976 49.2147 26.496C48.6267 26.016 48.3327 25.338 48.3327 24.462C48.3327 23.526 48.6447 22.812 49.2687 22.32C49.9047 21.828 50.7867 21.582 51.9147 21.582H54.3267V23.13H52.5627C51.7587 23.13 51.1947 23.244 50.8707 23.472C50.5467 23.688 50.3847 24 50.3847 24.408C50.3847 24.756 50.5227 25.032 50.7987 25.236C51.0867 25.428 51.4827 25.524 51.9867 25.524C52.4427 25.524 52.8387 25.422 53.1747 25.218C53.5107 25.014 53.7687 24.744 53.9487 24.408C54.1407 24.072 54.2367 23.694 54.2367 23.274H54.8307C54.8307 24.498 54.5847 25.464 54.0927 26.172C53.6007 26.868 52.8147 27.216 51.7347 27.216ZM61.8582 27.216C60.9102 27.216 60.1842 26.982 59.6802 26.514C59.1882 26.034 58.9422 25.35 58.9422 24.462V15.192H60.9402V24.084C60.9402 24.504 61.0362 24.822 61.2282 25.038C61.4322 25.254 61.7262 25.362 62.1102 25.362C62.2302 25.362 62.3622 25.338 62.5062 25.29C62.6502 25.242 62.8122 25.152 62.9922 25.02L63.7302 26.55C63.4182 26.766 63.1062 26.928 62.7942 27.036C62.4822 27.156 62.1702 27.216 61.8582 27.216ZM57.4482 19.728V18H63.3702V19.728H57.4482ZM75.2284 21.78L73.3024 21.168L77.3704 14.4H79.7644L75.2284 21.78ZM73.1944 27V20.952H75.2824V27H73.1944ZM73.2484 21.78L68.7124 14.4H71.1064L75.1744 21.168L73.2484 21.78ZM83.8087 27.216C82.9087 27.216 82.1047 27.018 81.3967 26.622C80.7007 26.214 80.1547 25.656 79.7587 24.948C79.3627 24.24 79.1647 23.424 79.1647 22.5C79.1647 21.576 79.3567 20.76 79.7407 20.052C80.1367 19.344 80.6827 18.792 81.3787 18.396C82.0747 17.988 82.8727 17.784 83.7727 17.784C84.6727 17.784 85.4707 17.988 86.1667 18.396C86.8627 18.792 87.4027 19.344 87.7867 20.052C88.1827 20.76 88.3807 21.576 88.3807 22.5C88.3807 23.424 88.1887 24.24 87.8047 24.948C87.4207 25.656 86.8807 26.214 86.1847 26.622C85.4887 27.018 84.6967 27.216 83.8087 27.216ZM83.8087 25.362C84.3007 25.362 84.7387 25.242 85.1227 25.002C85.5067 24.75 85.8067 24.414 86.0227 23.994C86.2387 23.562 86.3467 23.064 86.3467 22.5C86.3467 21.936 86.2327 21.444 86.0047 21.024C85.7887 20.592 85.4887 20.256 85.1047 20.016C84.7207 19.764 84.2767 19.638 83.7727 19.638C83.2687 19.638 82.8247 19.758 82.4407 19.998C82.0567 20.238 81.7567 20.574 81.5407 21.006C81.3247 21.438 81.2167 21.936 81.2167 22.5C81.2167 23.064 81.3247 23.562 81.5407 23.994C81.7687 24.414 82.0747 24.75 82.4587 25.002C82.8547 25.242 83.3047 25.362 83.8087 25.362ZM96.1577 27L96.0497 25.344V18H98.0477V27H96.1577ZM89.9297 22.608V18H91.9457V22.608H89.9297ZM91.9457 22.608C91.9457 23.316 92.0297 23.868 92.1977 24.264C92.3657 24.66 92.5937 24.936 92.8817 25.092C93.1817 25.248 93.5237 25.326 93.9077 25.326C94.5917 25.338 95.1197 25.116 95.4917 24.66C95.8637 24.204 96.0497 23.55 96.0497 22.698H96.8057C96.8057 23.646 96.6617 24.462 96.3737 25.146C96.0977 25.818 95.7017 26.334 95.1857 26.694C94.6817 27.042 94.0697 27.216 93.3497 27.216C92.6417 27.216 92.0297 27.072 91.5137 26.784C91.0097 26.496 90.6197 26.046 90.3437 25.434C90.0677 24.822 89.9297 24.036 89.9297 23.076V22.608H91.9457ZM110.786 27.216C109.514 27.216 108.38 26.94 107.384 26.388C106.4 25.824 105.626 25.056 105.062 24.084C104.498 23.1 104.216 21.978 104.216 20.718C104.216 19.434 104.498 18.306 105.062 17.334C105.626 16.35 106.4 15.582 107.384 15.03C108.38 14.466 109.514 14.184 110.786 14.184C111.518 14.184 112.202 14.298 112.838 14.526C113.486 14.754 114.068 15.066 114.584 15.462C115.1 15.846 115.52 16.296 115.844 16.812L114.152 17.892C113.924 17.544 113.63 17.232 113.27 16.956C112.91 16.68 112.514 16.47 112.082 16.326C111.662 16.17 111.23 16.092 110.786 16.092C109.922 16.092 109.154 16.29 108.482 16.686C107.822 17.082 107.3 17.628 106.916 18.324C106.532 19.008 106.34 19.806 106.34 20.718C106.34 21.606 106.526 22.398 106.898 23.094C107.282 23.79 107.81 24.336 108.482 24.732C109.166 25.128 109.952 25.326 110.84 25.326C111.536 25.326 112.16 25.182 112.712 24.894C113.264 24.606 113.696 24.204 114.008 23.688C114.332 23.172 114.494 22.578 114.494 21.906L116.492 21.654C116.492 22.794 116.246 23.784 115.754 24.624C115.274 25.452 114.602 26.094 113.738 26.55C112.886 26.994 111.902 27.216 110.786 27.216ZM111.47 22.068V20.376H116.492V21.78L115.376 22.068H111.47ZM122.144 27.216C121.268 27.216 120.488 27.018 119.804 26.622C119.132 26.214 118.598 25.656 118.202 24.948C117.818 24.24 117.626 23.424 117.626 22.5C117.626 21.576 117.824 20.76 118.22 20.052C118.616 19.344 119.156 18.792 119.84 18.396C120.536 17.988 121.328 17.784 122.216 17.784C123.02 17.784 123.746 17.994 124.394 18.414C125.042 18.822 125.552 19.416 125.924 20.196C126.308 20.976 126.5 21.906 126.5 22.986H119.426L119.696 22.734C119.696 23.286 119.816 23.766 120.056 24.174C120.296 24.57 120.614 24.876 121.01 25.092C121.406 25.308 121.844 25.416 122.324 25.416C122.876 25.416 123.332 25.296 123.692 25.056C124.052 24.804 124.334 24.48 124.538 24.084L126.32 24.84C126.068 25.32 125.744 25.74 125.348 26.1C124.964 26.46 124.502 26.736 123.962 26.928C123.434 27.12 122.828 27.216 122.144 27.216ZM119.822 21.69L119.534 21.438H124.61L124.34 21.69C124.34 21.198 124.232 20.796 124.016 20.484C123.8 20.16 123.524 19.92 123.188 19.764C122.864 19.596 122.522 19.512 122.162 19.512C121.802 19.512 121.442 19.596 121.082 19.764C120.722 19.92 120.422 20.16 120.182 20.484C119.942 20.796 119.822 21.198 119.822 21.69ZM131.626 27.216C130.678 27.216 129.952 26.982 129.448 26.514C128.956 26.034 128.71 25.35 128.71 24.462V15.192H130.708V24.084C130.708 24.504 130.804 24.822 130.996 25.038C131.2 25.254 131.494 25.362 131.878 25.362C131.998 25.362 132.13 25.338 132.274 25.29C132.418 25.242 132.58 25.152 132.76 25.02L133.498 26.55C133.186 26.766 132.874 26.928 132.562 27.036C132.25 27.156 131.938 27.216 131.626 27.216ZM127.216 19.728V18H133.138V19.728H127.216Z" fill="black"/>
</svg>
