<svg width="301" height="200" viewBox="0 0 301 200" fill="none" xmlns="http://www.w3.org/2000/svg">
<path d="M250.375 156.448H50.375V156.548H250.375V156.448Z" fill="#E0E0E0"/>
<path d="M98.2351 160.684H84.7391V160.784H98.2351V160.684Z" fill="#E0E0E0"/>
<path d="M81.8029 160.732H73.7949V160.832H81.8029V160.732Z" fill="#E0E0E0"/>
<path d="M171.623 158.588H133.707V158.688H171.623V158.588Z" fill="#E0E0E0"/>
<path d="M117.487 163.52H105.399V163.62H117.487V163.52Z" fill="#E0E0E0"/>
<path d="M215.843 159.964H184.375V160.064H215.843V159.964Z" fill="#E0E0E0"/>
<path d="M145.175 138.608H67.939C67.3339 138.607 66.754 138.366 66.3266 137.938C65.8991 137.509 65.659 136.929 65.659 136.324V27.752C65.6643 27.1504 65.9067 26.5752 66.3336 26.1513C66.7605 25.7274 67.3374 25.4891 67.939 25.488H145.175C145.781 25.488 146.362 25.7287 146.79 26.157C147.218 26.5853 147.459 27.1663 147.459 27.772V136.324C147.459 136.93 147.218 137.511 146.79 137.939C146.362 138.367 145.781 138.608 145.175 138.608ZM67.939 25.568C67.3605 25.5691 66.806 25.7997 66.3973 26.2091C65.9885 26.6186 65.759 27.1735 65.759 27.752V136.324C65.759 136.903 65.9885 137.457 66.3973 137.867C66.806 138.276 67.3605 138.507 67.939 138.508H145.175C145.754 138.507 146.309 138.277 146.718 137.867C147.127 137.458 147.358 136.903 147.359 136.324V27.752C147.358 27.1731 147.127 26.6182 146.718 26.2089C146.309 25.7995 145.754 25.5691 145.175 25.568H67.939Z" fill="#E0E0E0"/>
<path d="M231.699 138.608H154.459C153.854 138.607 153.273 138.366 152.845 137.938C152.417 137.51 152.176 136.929 152.175 136.324V27.752C152.181 27.1501 152.425 26.5749 152.852 26.1511C153.28 25.7273 153.857 25.4891 154.459 25.488H231.699C232.3 25.4901 232.876 25.7289 233.302 26.1527C233.728 26.5765 233.97 27.1511 233.975 27.752V136.324C233.975 136.928 233.735 137.508 233.309 137.936C232.882 138.364 232.303 138.606 231.699 138.608ZM154.459 25.568C153.88 25.5691 153.325 25.7995 152.916 26.2089C152.506 26.6182 152.276 27.1731 152.275 27.752V136.324C152.276 136.903 152.506 137.458 152.916 137.867C153.325 138.277 153.88 138.507 154.459 138.508H231.699C232.278 138.507 232.833 138.277 233.242 137.867C233.651 137.458 233.882 136.903 233.883 136.324V27.752C233.882 27.1731 233.651 26.6182 233.242 26.2089C232.833 25.7995 232.278 25.5691 231.699 25.568H154.459Z" fill="#E0E0E0"/>
<path d="M218.863 109.8H208.671V156.448H218.863V109.8Z" fill="#E0E0E0"/>
<path d="M216.927 156.448H218.863V150.94H214.899L216.927 156.448Z" fill="#F0F0F0"/>
<path d="M180.775 109.8H170.583V156.448H180.775V109.8Z" fill="#E0E0E0"/>
<path d="M218.863 109.8H179.083V153.068H218.863V109.8Z" fill="#F0F0F0"/>
<path d="M199.623 131.88V146.184H217.363V131.88H199.623Z" fill="#E0E0E0"/>
<path d="M180.587 131.88V146.184H198.327V131.88H180.587Z" fill="#E0E0E0"/>
<path d="M191.211 133.424H187.699C186.945 133.424 186.199 133.27 185.506 132.971C184.814 132.673 184.189 132.236 183.671 131.688H195.239C194.721 132.236 194.097 132.673 193.404 132.971C192.711 133.27 191.965 133.424 191.211 133.424Z" fill="#F0F0F0"/>
<path d="M210.427 133.424H206.919C206.164 133.424 205.417 133.27 204.724 132.971C204.031 132.673 203.406 132.236 202.887 131.688H214.459C213.94 132.236 213.315 132.672 212.621 132.971C211.928 133.269 211.182 133.423 210.427 133.424Z" fill="#F0F0F0"/>
<path d="M199.623 113.056V127.36H217.363V113.056H199.623Z" fill="#E0E0E0"/>
<path d="M180.583 113.06V127.364H198.323V113.06H180.583Z" fill="#E0E0E0"/>
<path d="M191.211 114.6H187.699C186.945 114.6 186.199 114.446 185.507 114.148C184.815 113.85 184.19 113.415 183.671 112.868H195.239C194.72 113.415 194.096 113.85 193.403 114.148C192.711 114.446 191.965 114.6 191.211 114.6Z" fill="#F0F0F0"/>
<path d="M210.427 114.6H206.919C206.165 114.6 205.418 114.446 204.725 114.148C204.032 113.851 203.406 113.415 202.887 112.868H214.459C213.939 113.415 213.314 113.85 212.621 114.148C211.928 114.445 211.181 114.599 210.427 114.6Z" fill="#F0F0F0"/>
<path d="M181.019 156.448H179.083V150.94H183.051L181.019 156.448Z" fill="#F0F0F0"/>
<path d="M188.923 102.492C188.923 104.276 190.163 105.516 188.379 105.516C186.595 105.516 182.467 104.276 182.467 102.492C182.467 101.636 182.807 100.815 183.412 100.209C184.018 99.6041 184.839 99.264 185.695 99.264C186.551 99.264 187.372 99.6041 187.978 100.209C188.583 100.815 188.923 101.636 188.923 102.492Z" fill="#E0E0E0"/>
<path d="M194.447 104.032C194.447 105.812 195.687 107.056 193.903 107.056C192.119 107.056 187.975 105.812 187.975 104.032C187.975 103.176 188.315 102.355 188.92 101.75C189.526 101.144 190.347 100.804 191.203 100.804C192.059 100.804 192.88 101.144 193.486 101.75C194.091 102.355 194.431 103.176 194.431 104.032H194.447Z" fill="#E0E0E0"/>
<path d="M199.739 103.088C199.739 104.868 200.979 106.112 199.195 106.112C197.411 106.112 193.283 104.868 193.283 103.088C193.283 102.232 193.623 101.411 194.228 100.805C194.834 100.2 195.655 99.86 196.511 99.86C197.367 99.86 198.188 100.2 198.794 100.805C199.399 101.411 199.739 102.232 199.739 103.088Z" fill="#E0E0E0"/>
<path d="M180.491 103.488C180.491 103.488 180.755 109.784 190.871 109.784C200.987 109.784 201.247 103.488 201.247 103.488H180.491Z" fill="#E6E6E6"/>
<path d="M219.287 33.084H167.995V89.844H219.287V33.084Z" fill="#E0E0E0"/>
<path d="M224.775 31.332H164.675C164.608 31.3315 164.542 31.3443 164.479 31.3696C164.417 31.3949 164.361 31.4322 164.313 31.4794C164.266 31.5266 164.228 31.5828 164.202 31.6447C164.176 31.7066 164.163 31.773 164.163 31.84C164.163 31.9758 164.217 32.1061 164.313 32.2021C164.409 32.2981 164.539 32.352 164.675 32.352H224.775C224.842 32.3521 224.909 32.3388 224.97 32.313C225.032 32.2872 225.088 32.2494 225.136 32.2018C225.183 32.1543 225.22 32.0978 225.246 32.0357C225.271 31.9736 225.284 31.9071 225.283 31.84C225.283 31.7053 225.23 31.5761 225.134 31.4808C225.039 31.3856 224.91 31.332 224.775 31.332Z" fill="#E0E0E0"/>
<path d="M221.463 33.084H169.011V89.844H221.463V33.084Z" fill="#E6E6E6"/>
<path d="M219.287 89.844H167.995V93.888H219.287V89.844Z" fill="#E0E0E0"/>
<path d="M225.087 89.844H172.635V93.888H225.087V89.844Z" fill="#E6E6E6"/>
<path d="M218.415 86.7921V36.1281H172.059V86.7921H218.415Z" fill="#F5F5F5"/>
<path d="M182.583 86.7961L200.467 36.1321H208.907L191.023 86.7961H182.583Z" fill="#FAFAFA"/>
<path d="M192.835 86.7961L210.719 36.1321H214.011L196.127 86.7961H192.835Z" fill="#FAFAFA"/>
<path d="M218.415 86.7961V36.1321H218.027V86.7961H218.415Z" fill="#E0E0E0"/>
<path d="M172.095 30.42H166.851V79.308H172.095V30.42Z" fill="#EBEBEB"/>
<path d="M174.135 30.42H170.051V79.308H174.135V30.42Z" fill="#E0E0E0"/>
<path d="M177.339 30.42H172.095V79.308H177.339V30.42Z" fill="#EBEBEB"/>
<path d="M179.379 30.42H175.295V79.308H179.379V30.42Z" fill="#E0E0E0"/>
<path d="M182.583 30.42H177.339V79.308H182.583V30.42Z" fill="#EBEBEB"/>
<path d="M216.463 30.42H213.443V79.308H216.463V30.42Z" fill="#EBEBEB"/>
<path d="M217.643 30.42H215.287V79.308H217.643V30.42Z" fill="#E0E0E0"/>
<path d="M219.483 30.42H216.463V79.308H219.483V30.42Z" fill="#EBEBEB"/>
<path d="M220.663 30.42H218.307V79.308H220.663V30.42Z" fill="#E0E0E0"/>
<path d="M222.507 30.42H219.487V79.308H222.507V30.42Z" fill="#EBEBEB"/>
<path d="M94.523 45.744H89.059V60.652H94.523V45.744Z" fill="#E6E6E6"/>
<path d="M81.5911 64.0641L79.8551 68.8001H81.5911L92.2151 64.0641H81.5911Z" fill="#F0F0F0"/>
<path d="M79.8551 64.0641V68.8001L90.4831 64.0641H79.8551Z" fill="#E0E0E0"/>
<path d="M123.255 64.0641L121.523 68.8001H123.255L133.883 64.0641H123.255Z" fill="#F0F0F0"/>
<path d="M121.523 64.0641V68.8001L132.147 64.0641H121.523Z" fill="#E0E0E0"/>
<path d="M72.0591 64.2881H83.6151V60.6841H72.0591V64.2881Z" fill="#E0E0E0"/>
<path d="M141.063 60.6841H83.611V64.2881H141.063V60.6841Z" fill="#F0F0F0"/>
<path d="M103.623 60.652H90.3229L88.6789 42.584H101.979L103.623 60.652Z" fill="#E0E0E0"/>
<path d="M104.311 60.652H91.015L89.367 42.584H102.667L104.311 60.652Z" fill="#F0F0F0"/>
<path d="M92.831 58.652L91.551 44.584H100.851L102.131 58.652H92.831Z" fill="#FAFAFA"/>
<path d="M109.679 54.7841C109.679 54.7841 109.923 60.6521 119.351 60.6521C128.779 60.6521 129.023 54.7841 129.023 54.7841H109.679Z" fill="#E6E6E6"/>
<path d="M99.879 155.152H85.307C84.977 155.159 84.6537 155.059 84.3846 154.868C84.1155 154.677 83.9149 154.405 83.8123 154.091C83.7097 153.778 83.7105 153.439 83.8147 153.126C83.9189 152.813 84.1209 152.542 84.391 152.352L84.627 152.672C84.435 152.816 84.293 153.016 84.221 153.245C84.1491 153.473 84.1508 153.719 84.2259 153.947C84.3011 154.174 84.4459 154.373 84.6399 154.514C84.8338 154.654 85.0672 154.731 85.307 154.732H99.879C100.772 154.731 101.628 154.376 102.259 153.744C102.891 153.113 103.246 152.257 103.247 151.364V108.24C103.248 107.268 103.634 106.336 104.321 105.649C105.008 104.961 105.939 104.574 106.911 104.572H111.271V104.972H106.911C106.045 104.974 105.216 105.319 104.604 105.932C103.992 106.544 103.648 107.374 103.647 108.24V151.384C103.645 152.383 103.247 153.34 102.541 154.046C101.835 154.752 100.878 155.15 99.879 155.152Z" fill="#E0E0E0"/>
<path d="M148.555 105.396H122.311V156.448H148.555V105.396Z" fill="#E0E0E0"/>
<path d="M149.543 105.396H147.379V156.448H149.543V105.396Z" fill="#EBEBEB"/>
<path d="M98.0269 109.224H150.211V105.396H98.0269V109.224Z" fill="#EBEBEB"/>
<path d="M97.7151 105.396H71.4711V156.448H97.7151V105.396Z" fill="#E0E0E0"/>
<path d="M98.699 105.396H96.535V156.448H98.699V105.396Z" fill="#EBEBEB"/>
<path d="M89.5869 90.156H114.043L117.587 104.596H93.1309L89.5869 90.156Z" fill="#E0E0E0"/>
<path d="M93.131 104.596L93.231 105.396H117.687L117.591 104.596H93.131Z" fill="#E0E0E0"/>
<path d="M90.343 90.156H114.799L118.343 104.596H93.887L90.343 90.156Z" fill="#F0F0F0"/>
<path d="M94.403 103.936L91.183 90.816H114.279L117.499 103.936H94.403Z" fill="#FAFAFA"/>
<path d="M100.259 104.596L100.355 105.396H127.287L127.187 104.596H100.259Z" fill="#F0F0F0"/>
<path d="M81.2029 101.756C81.2029 101.756 77.6029 95.5521 82.5989 90.6121C82.5989 90.6121 83.8989 91.4641 83.8789 92.6121C83.8589 93.7601 82.4869 94.0441 82.7789 95.0121C83.0709 95.9801 84.3789 96.9001 83.5229 97.6881C82.6669 98.4761 83.6589 99.1761 83.6029 100.144C83.5469 101.112 81.2029 101.756 81.2029 101.756Z" fill="#F0F0F0"/>
<path d="M81.4749 102.324C81.4749 102.324 82.9349 95.3 76.6389 92.188C76.6389 92.188 75.6709 93.408 76.0509 94.484C76.4309 95.56 77.8269 95.4 77.8469 96.4C77.8669 97.4 76.9269 98.692 77.9869 99.172C79.0469 99.652 78.3229 100.628 78.6829 101.524C79.0429 102.42 81.4749 102.324 81.4749 102.324Z" fill="#F0F0F0"/>
<path d="M75.975 100.768C75.975 100.768 76.095 105.396 80.683 105.396C85.271 105.396 85.379 100.768 85.379 100.768H75.975Z" fill="#E0E0E0"/>
<path d="M140.671 156.448H139.759L137.147 143.584L136.691 141.332L133.843 127.332H122.927L117.011 156.448H116.099L122.127 126.776C122.147 126.675 122.201 126.584 122.281 126.519C122.36 126.454 122.46 126.419 122.563 126.42H134.207C134.31 126.419 134.41 126.454 134.489 126.519C134.569 126.584 134.623 126.675 134.643 126.776L137.143 139.088L137.603 141.34L140.671 156.448Z" fill="#EBEBEB"/>
<path d="M158.195 156.448H157.279L151.363 127.316H140.451L137.603 141.34L137.147 143.584L134.535 156.448H133.623L136.691 141.332L137.143 139.088L139.647 126.776C139.667 126.675 139.721 126.584 139.801 126.519C139.88 126.454 139.98 126.419 140.083 126.42H151.727C151.83 126.42 151.93 126.455 152.01 126.52C152.091 126.585 152.146 126.675 152.167 126.776L158.195 156.448Z" fill="#EBEBEB"/>
<path d="M131.291 126.868H151.347C153.187 126.866 154.953 126.144 156.267 124.856C157.581 123.567 158.337 121.816 158.375 119.976L159.123 89.4961C159.134 88.8166 159.009 88.1419 158.757 87.511C158.504 86.8801 158.129 86.3056 157.652 85.8211C157.176 85.3365 156.608 84.9514 155.982 84.6883C155.355 84.4251 154.683 84.2891 154.003 84.2881H141.431C140.173 84.2887 138.958 84.7521 138.019 85.59C137.08 86.4279 136.482 87.5818 136.339 88.8321L131.291 126.868Z" fill="#E6E6E6"/>
<path d="M142.227 126.868H120.855C120.59 126.868 120.335 126.763 120.148 126.575C119.96 126.388 119.855 126.133 119.855 125.868V125.772C119.855 125.043 120.144 124.344 120.66 123.829C121.175 123.314 121.874 123.024 122.603 123.024H142.227V126.868Z" fill="#E6E6E6"/>
<path d="M150.375 174.512C193.208 174.512 227.931 172.485 227.931 169.984C227.931 167.483 193.208 165.456 150.375 165.456C107.542 165.456 72.819 167.483 72.819 169.984C72.819 172.485 107.542 174.512 150.375 174.512Z" fill="#F5F5F5"/>
<path d="M160.951 71.8161L161.211 72.0361C161.307 72.1201 161.415 72.2001 161.519 72.2801C161.727 72.4441 161.919 72.6081 162.159 72.7641C162.591 73.0801 163.051 73.3681 163.511 73.6561C164.439 74.2281 165.412 74.7244 166.419 75.1401C167.423 75.5677 168.456 75.9206 169.511 76.1961C169.775 76.2681 170.047 76.3161 170.311 76.3761L170.711 76.4641C170.795 76.4641 170.711 76.4641 170.711 76.4841C170.657 76.4969 170.605 76.52 170.559 76.5521C170.523 76.5881 170.523 76.5881 170.539 76.5801C170.618 76.4629 170.68 76.3349 170.723 76.2001C170.865 75.7386 170.952 75.262 170.983 74.7801C171.031 74.2561 171.047 73.7041 171.043 73.1481C171.043 72.0321 170.955 70.8921 170.867 69.7481C170.779 68.6041 170.639 67.4561 170.491 66.3041C170.343 65.1521 170.179 64.0001 170.007 62.8641L171.511 62.5201C172.174 64.8032 172.708 67.1214 173.111 69.4641C173.321 70.6555 173.466 71.8572 173.547 73.0641C173.594 73.687 173.609 74.3118 173.591 74.9361C173.586 75.6254 173.498 76.3115 173.331 76.9801C173.218 77.4077 173.034 77.8134 172.787 78.1801C172.614 78.4302 172.399 78.6481 172.151 78.8241C171.867 79.0275 171.54 79.1642 171.195 79.2241C170.899 79.2741 170.596 79.2741 170.299 79.2241L169.839 79.1481C169.531 79.0961 169.219 79.0561 168.915 78.9881C167.689 78.7446 166.485 78.3994 165.315 77.9561C164.146 77.5076 163.016 76.9645 161.935 76.3321C161.395 76.0081 160.867 75.6681 160.355 75.2961C160.099 75.1121 159.847 74.8961 159.595 74.7201C159.471 74.6161 159.347 74.5161 159.223 74.4041C159.099 74.2921 158.983 74.2001 158.823 74.0481L160.951 71.8161Z" fill="#E4897B"/>
<path d="M156.603 69.9961C161.003 69.4001 164.539 72.9481 164.539 72.9481L160.515 79.1561C160.515 79.1561 156.203 76.3961 155.443 74.5161C154.659 72.5601 154.351 70.2881 156.603 69.9961Z" fill="#FA1239"/>
<path opacity="0.6" d="M156.603 69.9961C161.003 69.4001 164.539 72.9481 164.539 72.9481L160.515 79.1561C160.515 79.1561 156.203 76.3961 155.443 74.5161C154.659 72.5601 154.351 70.2881 156.603 69.9961Z" fill="#FAFAFA"/>
<path d="M170.043 63.4041L168.583 60.4761L172.411 60.4441C172.411 60.4441 172.487 62.4881 171.519 63.6441L170.043 63.4041Z" fill="#E4897B"/>
<path d="M169.263 57.3281L172.111 57.8361L172.411 60.4441L168.583 60.4761L169.263 57.3281Z" fill="#E4897B"/>
<path d="M141.043 166.636L144.627 166.98L147.107 158.564L143.523 158.216L141.043 166.636Z" fill="#E4897B"/>
<path d="M118.255 154.188L120.911 156.684L126.647 150.38L123.991 147.884L118.255 154.188Z" fill="#E4897B"/>
<path d="M122.139 155.488L120.139 151.888C120.105 151.826 120.05 151.779 119.984 151.755C119.918 151.73 119.845 151.731 119.779 151.756L116.703 152.924C116.627 152.957 116.559 153.005 116.502 153.066C116.446 153.127 116.403 153.198 116.376 153.277C116.35 153.355 116.34 153.438 116.347 153.521C116.354 153.604 116.379 153.684 116.419 153.756C117.135 154.996 117.547 155.56 118.419 157.14C118.959 158.116 120.019 160.34 120.759 161.692C121.499 163.044 122.871 162.368 122.683 161.744C121.827 158.944 121.991 157.372 122.231 156.144C122.279 155.921 122.247 155.689 122.139 155.488Z" fill="#263238"/>
<path d="M145.047 165.888H140.703C140.626 165.889 140.55 165.915 140.489 165.963C140.427 166.011 140.383 166.077 140.363 166.152L139.415 169.588C139.393 169.669 139.39 169.755 139.406 169.838C139.423 169.92 139.458 169.998 139.51 170.065C139.561 170.132 139.628 170.185 139.704 170.222C139.779 170.259 139.863 170.277 139.947 170.276C141.479 170.276 142.203 170.276 144.115 170.276H149.951C151.551 170.276 151.871 168.676 151.215 168.524C148.271 167.876 146.571 166.976 145.663 166.124C145.495 165.971 145.275 165.886 145.047 165.888Z" fill="#263238"/>
<path d="M147.107 158.564L145.827 162.904H142.139L143.519 158.22L147.107 158.564Z" fill="#CE6F64"/>
<path d="M123.987 147.888L126.647 150.38L123.687 153.628L121.031 151.136L123.987 147.888Z" fill="#CE6F64"/>
<path d="M160.939 67.5121C160.911 64.6041 158.279 63.5881 158.279 63.5881C158.279 63.5881 161.571 57.3561 159.879 53.2201C158.187 49.0841 152.611 48.3561 150.843 50.2881C147.735 50.1561 146.747 54.6201 146.747 54.6201C146.747 54.6201 144.147 55.0561 143.447 56.9481C142.747 58.8401 144.879 60.9721 144.879 60.9721C144.879 60.9721 141.911 61.3721 140.819 63.6561C139.727 65.9401 140.399 68.9721 143.679 71.5881C148.447 75.3881 157.211 70.6201 157.211 70.6201C157.211 70.6201 160.971 70.8561 160.939 67.5121Z" fill="#263238"/>
<path d="M160.375 70.4041C160.375 70.4041 161.975 71.1041 156.631 92.2121L141.831 90.9282C142.599 84.9282 142.931 81.2002 141.119 68.5762C143.231 68.3264 145.358 68.2315 147.483 68.2921C149.737 68.3261 151.985 68.5199 154.211 68.8722C156.29 69.2795 158.348 69.7908 160.375 70.4041Z" fill="#FA1239"/>
<path opacity="0.6" d="M160.375 70.4041C160.375 70.4041 161.975 71.1041 156.631 92.2121L141.831 90.9282C142.599 84.9282 142.931 81.2002 141.119 68.5762C143.231 68.3264 145.358 68.2315 147.483 68.2921C149.737 68.3261 151.985 68.5199 154.211 68.8722C156.29 69.2795 158.348 69.7908 160.375 70.4041Z" fill="#FAFAFA"/>
<path d="M156.539 69.3721C155.771 69.1881 154.939 69.0121 154.179 68.8721C151.953 68.5185 149.705 68.3234 147.451 68.2881C146.679 68.2601 145.907 68.2601 145.183 68.2881L145.679 69.2321C145.767 69.4001 147.879 73.3401 151.891 75.5761L152.995 76.1921L154.023 75.4601C156.615 73.6081 156.999 71.2001 156.539 69.3721Z" fill="#FAFAFA"/>
<path d="M148.775 60.7721C149.011 62.9761 149.091 66.9801 147.455 68.2921C147.455 68.2921 149.327 71.8481 152.871 73.8201C156.007 71.5881 154.183 68.8721 154.183 68.8721C151.819 68.0721 152.035 66.3041 152.583 64.6561L148.775 60.7721Z" fill="#E4897B"/>
<path d="M150.331 62.3561L152.595 64.6561C152.457 65.0383 152.353 65.4318 152.283 65.8321C151.375 65.6201 150.055 64.6721 150.039 63.6961C150.057 63.2358 150.156 62.7822 150.331 62.3561Z" fill="#CE6F64"/>
<path d="M148.679 55.7721C148.243 59.3721 147.983 60.8961 149.451 63.0601C151.659 66.3081 156.187 66.0521 157.687 62.6601C159.039 59.5961 159.523 54.2121 156.287 52.1521C155.578 51.6955 154.763 51.4275 153.921 51.3736C153.079 51.3198 152.238 51.4818 151.476 51.8443C150.714 52.2068 150.057 52.7579 149.568 53.4452C149.078 54.1326 148.773 54.9335 148.679 55.7721Z" fill="#E4897B"/>
<path d="M151.471 51.3361C154.251 52.0561 151.503 60.5121 147.071 58.0601C147.071 58.0601 147.271 54.4881 148.503 52.9721C149.248 52.0689 150.31 51.4838 151.471 51.3361Z" fill="#263238"/>
<path d="M151.175 51.8041C152.375 53.7561 161.275 57.4561 158.283 53.2561C155.291 49.0561 151.175 51.8041 151.175 51.8041Z" fill="#263238"/>
<path d="M147.535 58.8881C147.485 59.5894 147.714 60.2822 148.171 60.8161C148.787 61.5161 149.599 61.0921 149.855 60.2441C150.083 59.4841 150.039 58.2041 149.219 57.8121C149.038 57.7323 148.84 57.6985 148.643 57.7136C148.446 57.7287 148.256 57.7924 148.089 57.8989C147.922 58.0054 147.785 58.1514 147.688 58.324C147.591 58.4966 147.539 58.6904 147.535 58.8881Z" fill="#E4897B"/>
<path d="M156.615 92.2121C156.615 92.2121 161.627 114.388 158.283 130.02C156.043 140.492 147.959 161.644 147.959 161.644L141.639 161.484C141.639 161.484 147.755 139.284 149.023 130.556C151.187 115.62 145.767 91.2721 145.767 91.2721L156.615 92.2121Z" fill="#263238"/>
<path d="M150.835 96.6881L147.675 101.672C148.628 107.582 149.231 113.543 149.483 119.524C153.927 111.568 151.823 100.9 150.835 96.6881Z" fill="#263238"/>
<path d="M148.479 161.972L140.671 161.772L141.123 159.376L149.647 159.78L148.479 161.972Z" fill="#FA1239"/>
<path opacity="0.6" d="M148.479 161.972L140.671 161.772L141.123 159.376L149.647 159.78L148.479 161.972Z" fill="#FAFAFA"/>
<path d="M153.375 91.9721C153.375 91.9721 150.435 115.492 144.059 128.332C138.911 138.688 125.175 153.488 125.175 153.488L121.663 149.868C121.663 149.868 130.943 133.824 134.771 126.932C144.155 110.04 136.483 97.1521 141.803 90.9321L153.375 91.9721Z" fill="#263238"/>
<path d="M125.527 153.952L120.991 149.532L122.499 147.484L127.439 152.592L125.527 153.952Z" fill="#FA1239"/>
<path opacity="0.6" d="M125.527 153.952L120.991 149.532L122.499 147.484L127.439 152.592L125.527 153.952Z" fill="#FAFAFA"/>
<path d="M141.651 90.0401L140.871 91.3081C140.807 91.4081 140.923 91.5241 141.091 91.5361L156.631 92.8801C156.767 92.8801 156.883 92.8361 156.899 92.7521L157.147 91.4401C157.147 91.3481 157.055 91.2601 156.907 91.2481L141.903 89.9481C141.857 89.9403 141.809 89.9447 141.765 89.9608C141.721 89.977 141.682 90.0043 141.651 90.0401Z" fill="#FA1239"/>
<path opacity="0.3" d="M141.651 90.0401L140.871 91.3081C140.807 91.4081 140.923 91.5241 141.091 91.5361L156.631 92.8801C156.767 92.8801 156.883 92.8361 156.899 92.7521L157.147 91.4401C157.147 91.3481 157.055 91.2601 156.907 91.2481L141.903 89.9481C141.857 89.9403 141.809 89.9447 141.765 89.9608C141.721 89.977 141.682 90.0043 141.651 90.0401Z" fill="black"/>
<path d="M143.523 91.8881L143.123 91.8521C143.043 91.8521 142.987 91.8001 142.995 91.7481L143.335 90.0441C143.335 89.9921 143.419 89.9561 143.499 89.9641L143.899 90.0001C143.979 90.0001 144.035 90.0521 144.027 90.1041L143.691 91.8081C143.675 91.8641 143.603 91.8881 143.523 91.8881Z" fill="#263238"/>
<path d="M155.491 92.9281L155.091 92.892C155.011 92.892 154.955 92.84 154.963 92.788L155.303 91.08C155.303 91.032 155.387 90.996 155.467 91.004L155.867 91.0401C155.947 91.0401 156.003 91.0921 155.995 91.1401L155.659 92.848C155.643 92.9 155.575 92.9321 155.491 92.9281Z" fill="#263238"/>
<path d="M149.507 92.4081L149.107 92.3761C149.027 92.3761 148.971 92.3201 148.979 92.2721L149.319 90.5641C149.319 90.5161 149.403 90.4801 149.483 90.4881L149.883 90.5201C149.963 90.5201 150.019 90.5761 150.011 90.6241L149.675 92.3321C149.659 92.3801 149.575 92.4161 149.507 92.4081Z" fill="#263238"/>
<path d="M153.907 57.7601C153.855 58.0481 153.967 58.3121 154.155 58.3481C154.343 58.3841 154.555 58.1761 154.595 57.8841C154.635 57.5921 154.539 57.3281 154.347 57.2961C154.155 57.2641 153.975 57.4881 153.907 57.7601Z" fill="#263238"/>
<path d="M157.175 58.3601C157.123 58.6481 157.235 58.9121 157.423 58.9481C157.611 58.9841 157.823 58.7761 157.863 58.4841C157.903 58.1921 157.807 57.9281 157.615 57.8961C157.423 57.8641 157.247 58.0681 157.175 58.3601Z" fill="#263238"/>
<path d="M157.547 57.888L158.279 57.816C158.279 57.816 157.823 58.288 157.547 57.888Z" fill="#263238"/>
<path d="M156.231 58.6881C156.371 59.398 156.607 60.0856 156.931 60.7321C156.763 60.8104 156.58 60.851 156.395 60.851C156.21 60.851 156.027 60.8104 155.859 60.7321L156.231 58.6881Z" fill="#DE5753"/>
<path d="M154.643 61.6921C154.253 61.6317 153.883 61.4784 153.564 61.2452C153.245 61.0121 152.987 60.7058 152.811 60.3521C152.805 60.3346 152.805 60.3152 152.813 60.298C152.82 60.2809 152.834 60.2673 152.851 60.2601C152.86 60.2562 152.869 60.254 152.878 60.2537C152.887 60.2534 152.896 60.255 152.905 60.2583C152.914 60.2617 152.921 60.2668 152.928 60.2733C152.935 60.2798 152.94 60.2876 152.943 60.2961C153.112 60.6258 153.356 60.911 153.655 61.1286C153.955 61.3461 154.302 61.4899 154.667 61.5481C154.686 61.5481 154.705 61.5557 154.718 61.5692C154.732 61.5827 154.739 61.601 154.739 61.6201C154.739 61.6392 154.732 61.6576 154.718 61.6711C154.705 61.6846 154.686 61.6921 154.667 61.6921H154.643Z" fill="#263238"/>
<path d="M153.127 55.4881C153.097 55.4887 153.067 55.4795 153.042 55.4619C153.017 55.4443 152.998 55.4193 152.988 55.3903C152.978 55.3613 152.978 55.33 152.987 55.3008C152.996 55.2717 153.015 55.2462 153.039 55.2281C153.25 55.0584 153.498 54.9418 153.764 54.8882C154.029 54.8346 154.303 54.8455 154.563 54.9201C154.581 54.9264 154.598 54.9361 154.612 54.9488C154.626 54.9614 154.637 54.9767 154.645 54.9938C154.654 55.0109 154.658 55.0295 154.659 55.0484C154.66 55.0673 154.658 55.0862 154.651 55.1041C154.645 55.122 154.635 55.1384 154.623 55.1525C154.61 55.1666 154.595 55.1781 154.577 55.1863C154.56 55.1945 154.542 55.1992 154.523 55.2002C154.504 55.2012 154.485 55.1984 154.467 55.1921C154.253 55.1331 154.027 55.1263 153.809 55.1722C153.591 55.2181 153.388 55.3155 153.215 55.4561C153.19 55.4753 153.159 55.4864 153.127 55.4881Z" fill="#263238"/>
<path d="M159.047 57.2561C159.026 57.256 159.005 57.2513 158.986 57.2423C158.966 57.2334 158.949 57.2203 158.935 57.2041C158.799 57.0279 158.622 56.8864 158.421 56.7912C158.219 56.696 157.998 56.6497 157.775 56.6561C157.737 56.6595 157.699 56.6481 157.669 56.6243C157.64 56.6004 157.62 56.566 157.615 56.5281C157.613 56.5094 157.615 56.4904 157.62 56.4723C157.625 56.4543 157.634 56.4374 157.646 56.4229C157.658 56.4083 157.673 56.3963 157.689 56.3876C157.706 56.3788 157.724 56.3736 157.743 56.3721C158.014 56.3582 158.284 56.4098 158.531 56.5226C158.777 56.6354 158.993 56.8061 159.159 57.0201C159.185 57.0476 159.2 57.0841 159.2 57.1221C159.2 57.1601 159.185 57.1966 159.159 57.2241C159.127 57.2485 159.087 57.2599 159.047 57.2561Z" fill="#263238"/>
<path d="M142.211 73.8882C141.61 75.0818 140.942 76.2409 140.211 77.3602C139.491 78.4642 138.731 79.5442 137.911 80.5842C137.083 81.6279 136.195 82.6228 135.251 83.5642C134.763 84.0242 134.287 84.4922 133.763 84.9242L133.363 85.2522L133.267 85.3322L133.139 85.4322C133.055 85.501 132.967 85.5651 132.875 85.6242C132.512 85.8733 132.116 86.0724 131.699 86.2162C130.914 86.4721 130.085 86.5634 129.263 86.4842C128.527 86.4105 127.802 86.2508 127.103 86.0082C125.809 85.5564 124.574 84.9479 123.427 84.1962C121.221 82.7649 119.188 81.0815 117.371 79.1802L118.435 78.0642C119.391 78.8322 120.399 79.5962 121.431 80.2882C122.442 80.9962 123.495 81.6427 124.583 82.2242C125.62 82.7935 126.714 83.2508 127.847 83.5882C128.927 83.8882 130.011 83.9402 130.759 83.6282C131.182 83.4444 131.56 83.1715 131.867 82.8282C132.311 82.4282 132.723 81.9842 133.143 81.5522C133.963 80.6602 134.723 79.7042 135.471 78.7522C136.219 77.8002 136.895 76.7522 137.551 75.7122C137.883 75.1922 138.199 74.6642 138.511 74.1362C138.823 73.6082 139.123 73.0522 139.383 72.5562L142.211 73.8882Z" fill="#E4897B"/>
<path d="M119.447 78.5401L118.023 75.5961L115.655 78.6041C115.655 78.6041 117.223 79.9121 118.747 79.8641L119.447 78.5401Z" fill="#E4897B"/>
<path d="M116.467 74.7361L115.127 77.3001L115.655 78.6041L118.023 75.5961L116.467 74.7361Z" fill="#E4897B"/>
<path d="M141.087 68.5761C139.271 68.8961 136.723 74.1081 136.723 74.1081L141.711 78.6161C141.711 78.6161 144.943 74.2761 144.751 71.9081C144.587 69.8881 143.399 68.1681 141.087 68.5761Z" fill="#FA1239"/>
<path opacity="0.6" d="M141.087 68.5761C139.271 68.8961 136.723 74.1081 136.723 74.1081L141.711 78.6161C141.711 78.6161 144.943 74.2761 144.751 71.9081C144.587 69.8881 143.399 68.1681 141.087 68.5761Z" fill="#FAFAFA"/>
<path d="M122.839 157.42C122.792 157.42 122.744 157.412 122.699 157.396C122.263 157.252 121.979 156.448 121.847 155.98C121.843 155.966 121.844 155.952 121.848 155.938C121.852 155.925 121.86 155.913 121.871 155.904C121.884 155.897 121.897 155.893 121.911 155.893C121.925 155.893 121.939 155.897 121.951 155.904C122.083 155.972 123.243 156.596 123.279 157.052C123.285 157.102 123.276 157.153 123.254 157.198C123.232 157.243 123.198 157.281 123.155 157.308C123.065 157.379 122.954 157.419 122.839 157.42ZM122.039 156.108C122.239 156.752 122.499 157.176 122.747 157.26C122.804 157.277 122.864 157.279 122.921 157.265C122.979 157.252 123.032 157.224 123.075 157.184C123.097 157.171 123.115 157.152 123.126 157.129C123.138 157.107 123.142 157.081 123.139 157.056C123.115 156.776 122.435 156.332 122.035 156.108H122.039Z" fill="#FA1239"/>
<path d="M123.019 156.288C122.624 156.287 122.234 156.195 121.879 156.02C121.868 156.015 121.859 156.006 121.852 155.995C121.846 155.985 121.843 155.973 121.843 155.96C121.843 155.947 121.847 155.934 121.854 155.922C121.861 155.911 121.871 155.902 121.883 155.896C121.919 155.896 122.839 155.372 123.335 155.548C123.396 155.568 123.452 155.601 123.498 155.646C123.545 155.69 123.581 155.744 123.603 155.804C123.635 155.862 123.646 155.929 123.634 155.993C123.622 156.058 123.589 156.117 123.539 156.16C123.384 156.258 123.202 156.303 123.019 156.288ZM122.075 155.96C122.475 156.128 123.231 156.232 123.447 156.048C123.483 156.02 123.515 155.968 123.471 155.856C123.455 155.816 123.431 155.779 123.399 155.749C123.367 155.719 123.329 155.697 123.287 155.684C122.947 155.564 122.335 155.832 122.075 155.96Z" fill="#FA1239"/>
<path d="M146.975 166.592C146.571 166.583 146.169 166.532 145.775 166.44C145.76 166.437 145.747 166.429 145.737 166.417C145.727 166.406 145.721 166.391 145.719 166.376C145.717 166.361 145.72 166.346 145.727 166.333C145.734 166.32 145.746 166.31 145.759 166.304C145.939 166.22 147.511 165.504 147.911 165.76C147.947 165.785 147.975 165.819 147.994 165.858C148.012 165.897 148.019 165.941 148.015 165.984C148.011 166.062 147.989 166.139 147.951 166.208C147.914 166.277 147.862 166.337 147.799 166.384C147.552 166.535 147.265 166.607 146.975 166.592ZM146.039 166.344C146.507 166.432 147.371 166.544 147.727 166.276C147.774 166.241 147.813 166.196 147.841 166.144C147.868 166.092 147.884 166.035 147.887 165.976C147.89 165.958 147.887 165.94 147.88 165.923C147.873 165.906 147.862 165.891 147.847 165.88C147.623 165.728 146.691 166.056 146.039 166.344Z" fill="#FA1239"/>
<path d="M145.807 166.44C145.792 166.446 145.775 166.446 145.759 166.44C145.749 166.431 145.742 166.42 145.738 166.407C145.733 166.395 145.733 166.381 145.735 166.368C145.735 166.304 146.111 164.748 146.963 164.848C147.179 164.872 147.235 164.98 147.247 165.064C147.303 165.464 146.307 166.264 145.835 166.452L145.807 166.44ZM146.887 164.972C146.339 164.972 146.023 165.876 145.915 166.24C146.431 165.968 147.139 165.32 147.115 165.068C147.115 165.048 147.115 164.992 146.959 164.976L146.887 164.972Z" fill="#FA1239"/>
<path d="M154.263 57.2961L154.995 57.2201C154.995 57.2201 154.539 57.7001 154.263 57.2961Z" fill="#263238"/>
<path opacity="0.6" d="M124.171 34.5001L112.447 110.288L178.415 120.48L190.139 44.6881L124.171 34.5001ZM151.275 77.6081C148.247 77.1395 145.426 75.7833 143.169 73.7111C140.913 71.6389 139.321 68.9439 138.596 65.9669C137.871 62.99 138.045 59.8649 139.097 56.987C140.148 54.1091 142.03 51.6078 144.503 49.7994C146.977 47.9911 149.931 46.9571 152.992 46.8281C156.053 46.6991 159.084 47.481 161.701 49.0749C164.318 50.6687 166.403 53.0029 167.693 55.7821C168.983 58.5614 169.419 61.6607 168.947 64.6881C168.315 68.7438 166.099 72.3827 162.785 74.8053C159.471 77.2278 155.332 78.2359 151.275 77.6081Z" fill="#FA1239"/>
<g style="mix-blend-mode:multiply" opacity="0.3">
<path d="M176.423 117.604H176.323L110.255 107.368V107.268L122.011 31.3921H122.107L188.175 41.6281V41.7281L176.423 117.604ZM110.483 107.204L176.255 117.376L187.947 41.7761L122.175 31.6201L110.483 107.204Z" fill="#FA1239"/>
</g>
<path d="M153.651 78.3921C152.825 78.3912 152 78.327 151.183 78.2001C147.08 77.5599 143.384 75.3552 140.87 72.0487C138.357 68.7422 137.222 64.5908 137.704 60.4656C138.185 56.3404 140.246 52.562 143.453 49.9232C146.66 47.2844 150.765 45.9903 154.906 46.3125C159.046 46.6346 162.901 48.5479 165.662 51.651C168.422 54.754 169.874 58.8056 169.711 62.9556C169.549 67.1057 167.786 71.0316 164.791 73.9096C161.797 76.7877 157.805 78.3942 153.651 78.3921ZM151.367 77.0161C154.276 77.4655 157.253 77.0423 159.922 75.8C162.59 74.5576 164.831 72.552 166.359 70.0365C167.888 67.5211 168.636 64.6089 168.51 61.6681C168.384 58.7273 167.388 55.8899 165.65 53.5148C163.911 51.1397 161.507 49.3334 158.742 48.3244C155.977 47.3154 152.975 47.1489 150.115 47.8461C147.255 48.5432 144.666 50.0726 142.676 52.241C140.685 54.4093 139.382 57.1192 138.931 60.0281C138.332 63.9293 139.305 67.9087 141.637 71.0935C143.968 74.2783 147.468 76.4082 151.367 77.0161Z" fill="#FAFAFA"/>
<path d="M138.533 82.297L124.001 80.05L123.496 83.3152L138.028 85.5622L138.533 82.297Z" fill="#FA1239"/>
<path opacity="0.6" d="M138.533 82.297L124.001 80.05L123.496 83.3152L138.028 85.5622L138.533 82.297Z" fill="#FAFAFA"/>
<path d="M150.278 84.1137L140.447 82.5935L139.942 85.8587L149.773 87.3789L150.278 84.1137Z" fill="#FA1239"/>
<path opacity="0.6" d="M150.278 84.1137L140.447 82.5935L139.942 85.8587L149.773 87.3789L150.278 84.1137Z" fill="#FAFAFA"/>
<path d="M175.523 94.7919L122.976 86.6665L122.471 89.9317L175.018 98.0571L175.523 94.7919Z" fill="#FAFAFA"/>
<path d="M148.461 97.5356L122.285 93.5696L121.789 96.8405L147.965 100.807L148.461 97.5356Z" fill="#FAFAFA"/>
<path d="M169.985 101.044L152.505 98.3412L152 101.606L169.48 104.309L169.985 101.044Z" fill="#FAFAFA"/>
<path d="M162.839 107.05L120.831 100.554L120.326 103.82L162.334 110.315L162.839 107.05Z" fill="#FAFAFA"/>
<path d="M190.843 120.48H190.443C190.445 119.487 190.322 118.499 190.079 117.536L190.479 117.44C190.727 118.434 190.849 119.456 190.843 120.48ZM189.275 115.312C188.395 113.47 187.065 111.88 185.407 110.688L185.639 110.364C187.351 111.593 188.726 113.233 189.639 115.132L189.275 115.312Z" fill="#FA1239"/>
<path opacity="0.6" d="M190.843 120.48H190.443C190.445 119.487 190.322 118.499 190.079 117.536L190.479 117.44C190.727 118.434 190.849 119.456 190.843 120.48ZM189.275 115.312C188.395 113.47 187.065 111.88 185.407 110.688L185.639 110.364C187.351 111.593 188.726 113.233 189.639 115.132L189.275 115.312Z" fill="#FAFAFA"/>
<path d="M178.415 109.452C176.234 109.452 174.102 110.099 172.288 111.311C170.475 112.522 169.061 114.245 168.227 116.26C167.392 118.275 167.174 120.492 167.599 122.632C168.025 124.771 169.075 126.736 170.617 128.278C172.16 129.82 174.125 130.871 176.264 131.296C178.403 131.722 180.62 131.503 182.636 130.669C184.651 129.834 186.373 128.421 187.585 126.607C188.796 124.793 189.443 122.661 189.443 120.48C189.443 117.555 188.281 114.75 186.213 112.682C184.145 110.614 181.34 109.452 178.415 109.452ZM178.415 130.08C176.517 130.08 174.661 129.517 173.082 128.462C171.503 127.407 170.273 125.908 169.546 124.154C168.819 122.4 168.629 120.469 169 118.607C169.37 116.745 170.284 115.035 171.627 113.692C172.97 112.349 174.68 111.435 176.542 111.065C178.405 110.694 180.335 110.884 182.089 111.611C183.843 112.338 185.343 113.568 186.397 115.147C187.452 116.725 188.015 118.581 188.015 120.48C188.015 123.026 187.004 125.468 185.203 127.268C183.403 129.069 180.961 130.08 178.415 130.08Z" fill="#FA1239"/>
<path opacity="0.6" d="M178.415 109.452C176.234 109.452 174.102 110.099 172.288 111.311C170.475 112.522 169.061 114.245 168.227 116.26C167.392 118.275 167.174 120.492 167.599 122.632C168.025 124.771 169.075 126.736 170.617 128.278C172.16 129.82 174.125 130.871 176.264 131.296C178.403 131.722 180.62 131.503 182.636 130.669C184.651 129.834 186.373 128.421 187.585 126.607C188.796 124.793 189.443 122.661 189.443 120.48C189.443 117.555 188.281 114.75 186.213 112.682C184.145 110.614 181.34 109.452 178.415 109.452ZM178.415 130.08C176.517 130.08 174.661 129.517 173.082 128.462C171.503 127.407 170.273 125.908 169.546 124.154C168.819 122.4 168.629 120.469 169 118.607C169.37 116.745 170.284 115.035 171.627 113.692C172.97 112.349 174.68 111.435 176.542 111.065C178.405 110.694 180.335 110.884 182.089 111.611C183.843 112.338 185.343 113.568 186.397 115.147C187.452 116.725 188.015 118.581 188.015 120.48C188.015 123.026 187.004 125.468 185.203 127.268C183.403 129.069 180.961 130.08 178.415 130.08Z" fill="#FAFAFA"/>
<path d="M178.415 130.076C183.715 130.076 188.011 125.78 188.011 120.48C188.011 115.18 183.715 110.884 178.415 110.884C173.116 110.884 168.819 115.18 168.819 120.48C168.819 125.78 173.116 130.076 178.415 130.076Z" fill="#FA1239"/>
<path opacity="0.2" d="M178.415 130.076C183.715 130.076 188.011 125.78 188.011 120.48C188.011 115.18 183.715 110.884 178.415 110.884C173.116 110.884 168.819 115.18 168.819 120.48C168.819 125.78 173.116 130.076 178.415 130.076Z" fill="black"/>
<path d="M176.923 126.552L171.291 120.92L172.707 119.508L176.923 123.724L184.127 116.52L185.539 117.936L176.923 126.552Z" fill="#FAFAFA"/>
</svg>
