<svg width="301" height="200" viewBox="0 0 301 200" fill="none" xmlns="http://www.w3.org/2000/svg">
<path d="M250.125 156.448H50.125V156.548H250.125V156.448Z" fill="#E0E0E0"/>
<path d="M201.189 160.684H187.429V160.784H201.189V160.684Z" fill="#E0E0E0"/>
<path d="M94.5411 160.732H86.7971V160.832H94.5411V160.732Z" fill="#E0E0E0"/>
<path d="M150.525 160.5H134.829V160.6H150.525V160.5Z" fill="#E0E0E0"/>
<path d="M134.429 159.076H127.413V159.176H134.429V159.076Z" fill="#E0E0E0"/>
<path d="M219.949 159.128H198.753V159.228H219.949V159.128Z" fill="#E0E0E0"/>
<path d="M144.925 138.608H67.689C67.0839 138.607 66.504 138.366 66.0766 137.938C65.6491 137.509 65.409 136.929 65.409 136.324V27.752C65.4143 27.1504 65.6567 26.5752 66.0836 26.1513C66.5105 25.7274 67.0874 25.4891 67.689 25.488H144.925C145.531 25.488 146.112 25.7287 146.54 26.157C146.968 26.5853 147.209 27.1663 147.209 27.772V136.324C147.209 136.93 146.968 137.511 146.54 137.939C146.112 138.367 145.531 138.608 144.925 138.608ZM67.689 25.568C67.1105 25.5691 66.556 25.7997 66.1473 26.2091C65.7385 26.6186 65.509 27.1735 65.509 27.752V136.324C65.509 136.903 65.7385 137.457 66.1473 137.867C66.556 138.276 67.1105 138.507 67.689 138.508H144.925C145.504 138.507 146.059 138.277 146.468 137.867C146.877 137.458 147.108 136.903 147.109 136.324V27.752C147.108 27.1731 146.877 26.6182 146.468 26.2089C146.059 25.7995 145.504 25.5691 144.925 25.568H67.689Z" fill="#E0E0E0"/>
<path d="M231.449 138.608H154.209C153.604 138.607 153.023 138.366 152.595 137.938C152.167 137.51 151.926 136.929 151.925 136.324V27.752C151.931 27.1501 152.175 26.5749 152.602 26.1511C153.03 25.7273 153.607 25.4891 154.209 25.488H231.449C232.05 25.4901 232.626 25.7289 233.052 26.1527C233.478 26.5765 233.72 27.1511 233.725 27.752V136.324C233.725 136.928 233.485 137.508 233.059 137.936C232.632 138.364 232.053 138.606 231.449 138.608ZM154.209 25.568C153.63 25.5691 153.075 25.7995 152.666 26.2089C152.256 26.6182 152.026 27.1731 152.025 27.752V136.324C152.026 136.903 152.256 137.458 152.666 137.867C153.075 138.277 153.63 138.507 154.209 138.508H231.449C232.028 138.507 232.583 138.277 232.992 137.867C233.401 137.458 233.632 136.903 233.633 136.324V27.752C233.632 27.1731 233.401 26.6182 232.992 26.2089C232.583 25.7995 232.028 25.5691 231.449 25.568H154.209Z" fill="#E0E0E0"/>
<path d="M225.849 106.38C220.929 98.8881 225.421 90.836 224.673 82.5C223.925 74.164 216.005 72.348 217.505 65.3C219.241 57.108 214.613 49.248 209.369 49.248C204.125 49.248 199.501 57.088 201.237 65.288C202.737 72.348 194.837 74.168 194.069 82.488C193.301 90.808 197.813 98.8881 192.889 106.368C187.965 113.848 189.261 123.78 192.033 128.704C192.77 130.011 193.659 131.226 194.681 132.324C196.56 134.341 198.833 135.949 201.361 137.049C203.888 138.149 206.615 138.716 209.371 138.716C212.127 138.716 214.854 138.149 217.381 137.049C219.909 135.949 222.182 134.341 224.061 132.324C225.08 131.224 225.968 130.01 226.705 128.704C229.481 123.792 230.773 113.888 225.849 106.38Z" fill="#E0E0E0"/>
<path d="M209.369 112.064C209.696 112.064 210.019 112.128 210.321 112.253C210.623 112.379 210.897 112.562 211.128 112.793C211.359 113.024 211.543 113.298 211.668 113.6C211.793 113.902 211.857 114.225 211.857 114.552V156.448H206.881V114.552C206.881 114.225 206.945 113.902 207.07 113.6C207.195 113.298 207.379 113.024 207.61 112.793C207.841 112.562 208.115 112.379 208.417 112.253C208.719 112.128 209.042 112.064 209.369 112.064Z" fill="#F0F0F0"/>
<path d="M178.089 156.448H171.325V114.556C171.327 113.658 171.685 112.798 172.32 112.163C172.955 111.528 173.815 111.17 174.713 111.168C175.611 111.17 176.471 111.528 177.106 112.163C177.741 112.798 178.099 113.658 178.101 114.556L178.089 156.448Z" fill="#E0E0E0"/>
<path d="M174.701 145.148C186.226 145.148 195.569 135.805 195.569 124.28C195.569 112.755 186.226 103.412 174.701 103.412C163.176 103.412 153.833 112.755 153.833 124.28C153.833 135.805 163.176 145.148 174.701 145.148Z" fill="#F0F0F0"/>
<path d="M199.222 118.018C200.317 113.61 197.632 109.149 193.224 108.054C188.816 106.959 184.355 109.645 183.26 114.053C182.165 118.461 184.85 122.922 189.258 124.017C193.666 125.112 198.128 122.426 199.222 118.018Z" fill="#F0F0F0"/>
<path d="M162.625 111.948C163.058 109.294 161.257 106.793 158.603 106.361C155.95 105.928 153.448 107.729 153.016 110.383C152.584 113.036 154.385 115.538 157.038 115.97C159.692 116.402 162.193 114.601 162.625 111.948Z" fill="#F0F0F0"/>
<path d="M163.117 112.064C165.004 112.064 166.533 110.535 166.533 108.648C166.533 106.761 165.004 105.232 163.117 105.232C161.23 105.232 159.701 106.761 159.701 108.648C159.701 110.535 161.23 112.064 163.117 112.064Z" fill="#F0F0F0"/>
<path d="M131.725 131.444C128.48 131.927 125.379 133.111 122.637 134.912C122.613 131.744 122.033 128.74 120.545 126.312C118.281 128.516 116.445 131.372 114.945 134.444C114.397 128.688 112.881 123.088 109.525 119.54C104.497 122.704 101.905 127.976 100.673 133.56C98.6377 129.795 95.6835 126.605 92.085 124.288C89.009 127.528 88.025 132.008 88.109 136.6C84.613 132.528 80.733 129.352 76.949 128.98C76.017 135.416 78.001 141.488 80.525 146.288C82.1637 149.368 84.6118 151.942 87.6054 153.733C90.5989 155.524 94.0246 156.464 97.513 156.452H113.949C120.953 156.452 127.521 152.716 130.805 146.528C132.881 142.608 133.873 137.564 131.725 131.444Z" fill="#E0E0E0"/>
<path d="M127.029 48.344C129.057 42.396 127.429 38.16 122.481 38.16C119.369 38.16 115.509 39.828 111.749 42.54C111.325 40.992 110.129 40.068 108.205 40.068C104.817 40.068 100.149 42.932 96.4891 46.972C95.4586 45.993 94.0944 45.4425 92.6731 45.432C89.4291 45.248 85.5051 46.896 82.0931 49.572C81.9221 49.3327 81.6964 49.1378 81.4347 49.0035C81.1731 48.8692 80.8832 48.7995 80.5891 48.8C78.7211 48.696 76.1891 50.36 74.9371 52.512C74.8611 52.644 74.7931 52.776 74.7211 52.912H128.013C128.173 51.032 127.841 49.464 127.029 48.344Z" fill="#F0F0F0"/>
<path d="M127.193 84.46C128.185 81.556 127.397 79.488 124.973 79.488C123.449 79.488 121.565 80.288 119.729 81.628C119.63 81.2548 119.401 80.9289 119.084 80.709C118.767 80.4891 118.381 80.3895 117.997 80.428C116.345 80.428 114.065 81.828 112.273 83.804C111.771 83.3242 111.104 83.0551 110.409 83.052C108.809 82.96 106.909 83.764 105.241 85.072C105.16 84.9564 105.053 84.8614 104.929 84.7946C104.804 84.7279 104.666 84.6914 104.525 84.688C103.613 84.636 102.377 85.448 101.765 86.5L101.657 86.692H127.689C127.798 85.9126 127.622 85.12 127.193 84.46Z" fill="#F0F0F0"/>
<path d="M187.233 62.4841C187.028 62.4552 186.821 62.4405 186.613 62.4401C186.805 59.5401 185.697 57.6841 183.325 57.6841C181.617 57.6841 179.517 58.6521 177.381 60.2881C177.993 54.6561 176.033 50.9961 171.593 50.9961C168.017 50.9961 163.485 53.3961 159.009 57.2601C158.609 55.0521 157.297 53.7241 155.081 53.7241C151.189 53.7241 145.657 57.8201 141.221 63.5961C140.716 62.9301 140.067 62.3857 139.324 62.0029C138.581 61.6201 137.761 61.4087 136.925 61.3841C133.221 61.1241 128.617 63.4761 124.525 67.3081C124.376 66.985 124.139 66.7103 123.841 66.5158C123.544 66.3212 123.197 66.2146 122.841 66.2081C120.813 66.0641 118.041 68.1801 116.397 71.0081H190.493C192.233 66.7201 190.849 62.9681 187.233 62.4841Z" fill="#F0F0F0"/>
<path d="M150.125 174.512C192.958 174.512 227.681 172.485 227.681 169.984C227.681 167.483 192.958 165.456 150.125 165.456C107.292 165.456 72.569 167.483 72.569 169.984C72.569 172.485 107.292 174.512 150.125 174.512Z" fill="#F5F5F5"/>
<path d="M69.6689 63.712L160.857 76.84L173.093 89.188L69.6689 63.712Z" fill="#FA1239"/>
<path opacity="0.6" d="M69.6689 63.712L160.857 76.84L173.093 89.188L69.6689 63.712Z" fill="white"/>
<path d="M69.6689 63.712L160.857 76.84L156.625 94.696L69.6689 63.712Z" fill="#FA1239"/>
<path opacity="0.2" d="M69.6689 63.712L160.857 76.84L156.625 94.696L69.6689 63.712Z" fill="black"/>
<path d="M154.753 43.04L160.045 67.84C160.183 68.4876 160.058 69.1634 159.698 69.719C159.338 70.2747 158.772 70.6649 158.125 70.804L110.893 80.884C110.246 81.0206 109.57 80.8953 109.015 80.5355C108.46 80.1758 108.069 79.6108 107.929 78.964L102.633 54.164C102.497 53.516 102.622 52.8402 102.983 52.2847C103.344 51.7292 103.91 51.3392 104.557 51.2L151.789 41.12C152.437 40.9836 153.113 41.1094 153.668 41.47C154.224 41.8306 154.614 42.3965 154.753 43.044V43.04Z" fill="#FA1239"/>
<path opacity="0.4" d="M154.753 43.04L160.045 67.84C160.183 68.4876 160.058 69.1634 159.698 69.719C159.338 70.2747 158.772 70.6649 158.125 70.804L110.893 80.884C110.246 81.0206 109.57 80.8953 109.015 80.5355C108.46 80.1758 108.069 79.6108 107.929 78.964L102.633 54.164C102.497 53.516 102.622 52.8402 102.983 52.2847C103.344 51.7292 103.91 51.3392 104.557 51.2L151.789 41.12C152.437 40.9836 153.113 41.1094 153.668 41.47C154.224 41.8306 154.614 42.3965 154.753 43.044V43.04Z" fill="black"/>
<path d="M153.589 41.416L137.809 60.788C136.346 62.5841 134.313 63.8267 132.047 64.3104C129.781 64.7941 127.418 64.4899 125.349 63.448L103.033 52.208C103.394 51.6894 103.939 51.3276 104.557 51.196L151.789 41.116C152.405 40.9848 153.049 41.092 153.589 41.416Z" fill="#FA1239"/>
<path d="M69.6689 63.712L144.881 81.588L156.625 94.696L69.6689 63.712Z" fill="#FA1239"/>
<path opacity="0.6" d="M69.6689 63.712L144.881 81.588L156.625 94.696L69.6689 63.712Z" fill="white"/>
<path d="M97.1045 80.9421L96.9023 81.2872L105.272 86.1899L105.474 85.8448L97.1045 80.9421Z" fill="#FA1239"/>
<path d="M109.17 88.0062L108.967 88.3513L111.977 90.1143L112.179 89.7691L109.17 88.0062Z" fill="#FA1239"/>
<path d="M69.6689 63.712L144.881 81.588L130.261 99.208L69.6689 63.712Z" fill="#FA1239"/>
<path d="M170.269 105.592C170.168 105.592 170.067 105.573 169.973 105.536L157.725 100.688C157.529 100.609 157.372 100.456 157.289 100.262C157.205 100.068 157.202 99.8485 157.28 99.652C157.357 99.4555 157.51 99.2977 157.703 99.2131C157.897 99.1284 158.116 99.1237 158.313 99.2001L170.565 104.048C170.738 104.117 170.882 104.243 170.972 104.407C171.062 104.57 171.092 104.76 171.057 104.943C171.021 105.126 170.924 105.291 170.78 105.409C170.636 105.528 170.455 105.593 170.269 105.592Z" fill="#FA1239"/>
<path opacity="0.3" d="M170.269 105.592C170.168 105.592 170.067 105.573 169.973 105.536L157.725 100.688C157.529 100.609 157.372 100.456 157.289 100.262C157.205 100.068 157.202 99.8485 157.28 99.652C157.357 99.4555 157.51 99.2977 157.703 99.2131C157.897 99.1284 158.116 99.1237 158.313 99.2001L170.565 104.048C170.738 104.117 170.882 104.243 170.972 104.407C171.062 104.57 171.092 104.76 171.057 104.943C171.021 105.126 170.924 105.291 170.78 105.409C170.636 105.528 170.455 105.593 170.269 105.592Z" fill="black"/>
<path d="M169.545 98.568C169.445 98.5674 169.345 98.547 169.253 98.508L162.673 95.888C162.575 95.8499 162.485 95.7927 162.409 95.7197C162.332 95.6467 162.271 95.5593 162.229 95.4627C162.187 95.366 162.164 95.2619 162.162 95.1565C162.16 95.051 162.179 94.9462 162.218 94.848C162.257 94.7499 162.315 94.6604 162.388 94.5847C162.462 94.5091 162.549 94.4486 162.646 94.407C162.743 94.3654 162.847 94.3433 162.953 94.3421C163.058 94.3409 163.163 94.3606 163.261 94.4L169.841 97.008C170.038 97.0856 170.197 97.2383 170.281 97.4325C170.366 97.6267 170.37 97.8466 170.293 98.044C170.237 98.1972 170.135 98.3295 170.001 98.4232C169.867 98.5169 169.708 98.5674 169.545 98.568Z" fill="#FA1239"/>
<path opacity="0.5" d="M169.545 98.568C169.445 98.5674 169.345 98.547 169.253 98.508L162.673 95.888C162.575 95.8499 162.485 95.7927 162.409 95.7197C162.332 95.6467 162.271 95.5593 162.229 95.4627C162.187 95.366 162.164 95.2619 162.162 95.1565C162.16 95.051 162.179 94.9462 162.218 94.848C162.257 94.7499 162.315 94.6604 162.388 94.5847C162.462 94.5091 162.549 94.4486 162.646 94.407C162.743 94.3654 162.847 94.3433 162.953 94.3421C163.058 94.3409 163.163 94.3606 163.261 94.4L169.841 97.008C170.038 97.0856 170.197 97.2383 170.281 97.4325C170.366 97.6267 170.37 97.8466 170.293 98.044C170.237 98.1972 170.135 98.3295 170.001 98.4232C169.867 98.5169 169.708 98.5674 169.545 98.568Z" fill="white"/>
<path d="M155.789 105.488C155.689 105.487 155.59 105.468 155.497 105.432L143.549 100.688C143.451 100.65 143.361 100.593 143.285 100.52C143.208 100.447 143.147 100.359 143.105 100.263C143.063 100.166 143.04 100.062 143.038 99.9565C143.036 99.851 143.055 99.7462 143.094 99.6481C143.133 99.55 143.191 99.4605 143.264 99.3848C143.338 99.3091 143.425 99.2487 143.522 99.207C143.619 99.1654 143.723 99.1433 143.829 99.1421C143.934 99.1409 144.039 99.1606 144.137 99.2L156.085 103.928C156.258 103.997 156.402 104.123 156.492 104.287C156.582 104.45 156.612 104.64 156.577 104.823C156.542 105.006 156.444 105.171 156.3 105.289C156.156 105.408 155.975 105.472 155.789 105.472V105.488Z" fill="#FA1239"/>
<path opacity="0.3" d="M155.789 105.488C155.689 105.487 155.59 105.468 155.497 105.432L143.549 100.688C143.451 100.65 143.361 100.593 143.285 100.52C143.208 100.447 143.147 100.359 143.105 100.263C143.063 100.166 143.04 100.062 143.038 99.9565C143.036 99.851 143.055 99.7462 143.094 99.6481C143.133 99.55 143.191 99.4605 143.264 99.3848C143.338 99.3091 143.425 99.2487 143.522 99.207C143.619 99.1654 143.723 99.1433 143.829 99.1421C143.934 99.1409 144.039 99.1606 144.137 99.2L156.085 103.928C156.258 103.997 156.402 104.123 156.492 104.287C156.582 104.45 156.612 104.64 156.577 104.823C156.542 105.006 156.444 105.171 156.3 105.289C156.156 105.408 155.975 105.472 155.789 105.472V105.488Z" fill="black"/>
<path d="M199.045 69.416C200.105 71.484 201.077 73.556 202.001 75.676C202.925 77.796 203.785 79.944 204.537 82.196L204.809 83.048C204.857 83.2 204.925 83.448 204.965 83.624C205.005 83.8 205.041 84 205.061 84.168C205.152 84.8133 205.199 85.4642 205.201 86.116C205.207 87.3181 205.151 88.5197 205.033 89.716C204.809 92.0319 204.446 94.3321 203.945 96.604L201.749 96.36C201.721 94.108 201.701 91.832 201.621 89.612C201.585 88.508 201.521 87.4 201.409 86.36C201.358 85.8716 201.278 85.3867 201.169 84.908C201.149 84.796 201.117 84.712 201.093 84.62C201.069 84.528 201.045 84.496 201.005 84.376L200.701 83.62C199.865 81.596 198.925 79.556 197.965 77.524L195.061 71.428L199.045 69.416Z" fill="#E4897B"/>
<path d="M201.781 95.656L200.757 97.572L204.029 98.484C204.029 98.484 204.653 96.944 203.909 95.728L201.781 95.656Z" fill="#E4897B"/>
<path d="M199.505 100.332L202.513 100.572L204.029 98.484L200.757 97.572L199.505 100.332Z" fill="#E4897B"/>
<path d="M185.273 55.5921C185.229 55.8281 185.065 55.9921 184.913 55.9601C184.761 55.9281 184.677 55.7161 184.725 55.4841C184.773 55.2521 184.933 55.0841 185.085 55.1161C185.237 55.1481 185.325 55.3601 185.273 55.5921Z" fill="#263238"/>
<path d="M185.089 55.9921C184.666 56.6465 184.156 57.24 183.573 57.7561C183.709 57.901 183.875 58.0146 184.06 58.0892C184.244 58.1638 184.442 58.1975 184.641 58.1881L185.089 55.9921Z" fill="#DE5753"/>
<path d="M186.385 54.476C186.347 54.475 186.311 54.4592 186.285 54.432C186.17 54.3005 186.026 54.198 185.864 54.1327C185.702 54.0674 185.527 54.0411 185.353 54.056C185.32 54.0563 185.287 54.0449 185.262 54.0237C185.236 54.0025 185.219 53.973 185.214 53.9403C185.208 53.9077 185.214 53.8741 185.231 53.8454C185.247 53.8168 185.274 53.795 185.305 53.784C185.527 53.7558 185.753 53.783 185.963 53.8633C186.172 53.9436 186.358 54.0743 186.505 54.244C186.53 54.2702 186.545 54.3053 186.545 54.342C186.545 54.3786 186.53 54.4138 186.505 54.44C186.489 54.4546 186.47 54.4655 186.449 54.4717C186.428 54.478 186.406 54.4794 186.385 54.476Z" fill="#263238"/>
<path d="M191.889 58.86C191.469 61.012 191.049 64.948 192.553 66.384C192.553 66.384 191.965 68.564 187.969 68.564C183.569 68.564 185.873 66.384 185.873 66.384C188.273 65.812 188.205 64.032 187.789 62.364L191.889 58.86Z" fill="#E4897B"/>
<path d="M193.157 67.74C193.473 66.688 193.821 65.484 193.101 65.104C192.301 64.704 187.953 64.264 186.453 65.044C184.953 65.824 185.381 67.964 185.381 67.964L193.157 67.74Z" fill="#263238"/>
<path d="M202.381 167.488C202.257 167.505 202.13 167.496 202.009 167.463C201.889 167.43 201.775 167.373 201.677 167.296C201.642 167.248 201.623 167.19 201.623 167.13C201.623 167.07 201.642 167.012 201.677 166.964C201.7 166.923 201.731 166.887 201.769 166.858C201.807 166.83 201.851 166.81 201.897 166.8C202.329 166.704 203.137 167.256 203.173 167.28C203.183 167.289 203.191 167.3 203.196 167.312C203.201 167.325 203.203 167.339 203.201 167.352C203.199 167.365 203.192 167.377 203.183 167.386C203.174 167.396 203.162 167.402 203.149 167.404C202.896 167.458 202.639 167.487 202.381 167.488ZM202.013 166.928H201.929C201.902 166.934 201.876 166.945 201.854 166.962C201.832 166.978 201.814 167 201.801 167.024C201.737 167.136 201.777 167.184 201.801 167.2C201.925 167.368 202.525 167.368 202.965 167.296C202.678 167.107 202.353 166.984 202.013 166.936V166.928Z" fill="#FA1239"/>
<path d="M203.133 167.416H203.101C202.797 167.248 202.209 166.616 202.269 166.28C202.279 166.228 202.307 166.181 202.348 166.148C202.389 166.114 202.44 166.096 202.493 166.096C202.546 166.09 202.599 166.095 202.65 166.11C202.7 166.125 202.748 166.15 202.789 166.184C203.129 166.464 203.189 167.312 203.189 167.348C203.19 167.361 203.188 167.374 203.183 167.385C203.177 167.396 203.168 167.406 203.157 167.412C203.149 167.415 203.141 167.416 203.133 167.416ZM202.541 166.216H202.525C202.433 166.216 202.425 166.272 202.421 166.288C202.385 166.484 202.761 166.968 203.061 167.196C203.041 166.862 202.921 166.541 202.717 166.276C202.69 166.255 202.659 166.24 202.626 166.231C202.593 166.222 202.559 166.219 202.525 166.224L202.541 166.216Z" fill="#FA1239"/>
<path d="M184.737 167.488C184.361 167.488 183.997 167.436 183.873 167.268C183.842 167.224 183.825 167.17 183.825 167.116C183.825 167.062 183.842 167.009 183.873 166.964C183.897 166.923 183.929 166.887 183.968 166.859C184.007 166.831 184.05 166.811 184.097 166.8C184.581 166.668 185.613 167.252 185.657 167.276C185.669 167.284 185.678 167.294 185.684 167.307C185.689 167.32 185.691 167.334 185.689 167.348C185.687 167.362 185.68 167.375 185.67 167.385C185.66 167.395 185.647 167.402 185.633 167.404C185.337 167.46 185.037 167.488 184.737 167.488ZM184.269 166.92C184.225 166.914 184.181 166.914 184.137 166.92C184.109 166.926 184.082 166.937 184.059 166.954C184.035 166.97 184.016 166.991 184.001 167.016C183.949 167.104 183.969 167.144 184.001 167.168C184.133 167.352 184.877 167.364 185.429 167.288C185.069 167.094 184.675 166.972 184.269 166.928V166.92Z" fill="#FA1239"/>
<path d="M185.625 167.416H185.597C185.241 167.26 184.541 166.616 184.593 166.292C184.593 166.212 184.661 166.116 184.853 166.096C184.924 166.085 184.997 166.09 185.066 166.111C185.135 166.132 185.199 166.168 185.253 166.216C185.629 166.52 185.705 167.312 185.709 167.348C185.71 167.36 185.709 167.373 185.704 167.384C185.699 167.395 185.691 167.405 185.681 167.412C185.672 167.417 185.663 167.419 185.653 167.42C185.644 167.421 185.634 167.419 185.625 167.416ZM184.909 166.216H184.865C184.741 166.216 184.733 166.28 184.729 166.296C184.697 166.496 185.177 166.996 185.529 167.212C185.494 166.876 185.354 166.56 185.129 166.308C185.072 166.259 185 166.229 184.925 166.224L184.909 166.216Z" fill="#FA1239"/>
<path d="M188.857 167.344H185.917L185.625 160.54H188.565L188.857 167.344Z" fill="#E4897B"/>
<path d="M206.501 167.344H203.561L202.085 160.54H205.021L206.501 167.344Z" fill="#E4897B"/>
<path d="M203.353 167.004H206.653C206.712 167.004 206.769 167.025 206.815 167.062C206.86 167.099 206.892 167.151 206.905 167.208L207.485 169.82C207.498 169.884 207.497 169.949 207.481 170.012C207.465 170.076 207.436 170.134 207.394 170.184C207.353 170.234 207.3 170.274 207.241 170.301C207.182 170.328 207.118 170.341 207.053 170.34C205.901 170.32 205.341 170.252 203.889 170.252C202.997 170.252 201.157 170.348 199.921 170.348C198.685 170.348 198.529 169.148 199.033 169.016C201.297 168.52 202.149 167.836 202.873 167.188C203.004 167.069 203.176 167.003 203.353 167.004Z" fill="#263238"/>
<path d="M185.937 167.004H189.137C189.196 167.004 189.253 167.025 189.299 167.062C189.344 167.099 189.376 167.15 189.389 167.208L189.969 169.82C189.983 169.883 189.982 169.948 189.967 170.011C189.952 170.074 189.923 170.133 189.883 170.183C189.842 170.233 189.79 170.273 189.732 170.3C189.673 170.327 189.609 170.341 189.545 170.34C188.389 170.32 186.717 170.252 185.261 170.252C183.561 170.252 182.089 170.348 180.093 170.348C178.893 170.348 178.553 169.148 179.057 169.016C181.357 168.512 183.233 168.46 185.221 167.236C185.433 167.092 185.681 167.012 185.937 167.004Z" fill="#263238"/>
<path d="M184.525 71.5441C182.068 71.3537 179.623 71.0292 177.201 70.5721C176.001 70.3401 174.777 70.0801 173.561 69.7521C172.314 69.4331 171.09 69.0322 169.897 68.5521C169.589 68.4241 169.277 68.2841 168.969 68.1521C168.622 67.9813 168.288 67.7861 167.969 67.5681C167.393 67.1881 166.897 66.7921 166.405 66.4001C165.425 65.6001 164.517 64.8001 163.605 63.9801C161.817 62.3241 160.121 60.6121 158.485 58.8121L159.957 57.1681L165.761 61.3401C166.717 62.0281 167.685 62.7041 168.637 63.3401C169.109 63.6561 169.593 63.9521 170.037 64.2041C170.223 64.31 170.415 64.4035 170.613 64.4841C170.849 64.5761 171.089 64.6681 171.341 64.7561C173.503 65.4218 175.714 65.9166 177.953 66.2361C180.237 66.5961 182.597 66.8921 184.877 67.1321L184.525 71.5441Z" fill="#E4897B"/>
<path d="M197.813 67.0481C200.569 67.6801 203.353 75.7321 203.353 75.7321L197.685 79.8001C197.685 79.8001 196.085 76.0481 194.541 72.7681C192.925 69.3321 194.997 66.4041 197.813 67.0481Z" fill="#FA1239"/>
<path opacity="0.4" d="M197.813 67.0481C200.569 67.6801 203.353 75.7321 203.353 75.7321L197.685 79.8001C197.685 79.8001 196.085 76.0481 194.541 72.7681C192.925 69.3321 194.997 66.4041 197.813 67.0481Z" fill="black"/>
<path d="M196.225 71.448L195.101 73.964C196.265 76.476 197.329 78.964 197.613 79.628C197.573 76.656 197.009 72.968 196.225 71.448Z" fill="#FA1239"/>
<path opacity="0.6" d="M196.225 71.448L195.101 73.964C196.265 76.476 197.329 78.964 197.613 79.628C197.573 76.656 197.009 72.968 196.225 71.448Z" fill="black"/>
<path d="M181.353 67.2C181.353 67.2 178.225 70.732 181.177 92.6H196.893C197.005 90.2 195.489 78.416 197.813 67.048C196.076 66.7135 194.319 66.4917 192.553 66.384C190.328 66.2559 188.098 66.2559 185.873 66.384C184.347 66.5377 182.836 66.8106 181.353 67.2Z" fill="#FA1239"/>
<path opacity="0.4" d="M181.353 67.2C181.353 67.2 178.225 70.732 181.177 92.6H196.893C197.005 90.2 195.489 78.416 197.813 67.048C196.076 66.7135 194.319 66.4917 192.553 66.384C190.328 66.2559 188.098 66.2559 185.873 66.384C184.347 66.5377 182.836 66.8106 181.353 67.2Z" fill="black"/>
<path d="M180.189 71.448C180.085 72.276 180.005 73.256 179.953 74.412C181.505 73.9462 182.98 73.2534 184.329 72.356L180.189 71.448Z" fill="#FA1239"/>
<path opacity="0.6" d="M180.189 71.448C180.085 72.276 180.005 73.256 179.953 74.412C181.505 73.9462 182.98 73.2534 184.329 72.356L180.189 71.448Z" fill="black"/>
<path d="M186.925 71.8881C184.821 73.7521 176.789 73.5641 176.789 73.5641L176.525 65.7881C179.237 66.1744 181.973 66.3722 184.713 66.3801C189.189 66.2881 189.221 69.8321 186.925 71.8881Z" fill="#FA1239"/>
<path opacity="0.4" d="M186.925 71.8881C184.821 73.7521 176.789 73.5641 176.789 73.5641L176.525 65.7881C179.237 66.1744 181.973 66.3722 184.713 66.3801C189.189 66.2881 189.221 69.8321 186.925 71.8881Z" fill="black"/>
<path d="M160.033 57.184L158.033 54.828L155.877 57.228C155.877 57.228 157.205 59.46 159.313 59.108L160.033 57.184Z" fill="#E4897B"/>
<path d="M155.169 52.0801L154.393 55.1561L155.861 57.2121L158.017 54.8281L155.169 52.0801Z" fill="#E4897B"/>
<path d="M185.625 160.544L185.777 164.048H188.717L188.565 160.544H185.625Z" fill="#CE6F64"/>
<path d="M205.025 160.544H202.085L202.845 164.048H205.785L205.025 160.544Z" fill="#CE6F64"/>
<path d="M187.393 52.688C184.757 51.488 183.925 46.156 191.509 47.488C191.509 47.488 190.365 48.752 192.685 49.552C195.005 50.352 193.065 55.292 187.393 52.688Z" fill="#263238"/>
<path d="M193.121 56.6881C192.365 59.4881 192.069 61.1921 190.321 62.3641C187.705 64.1241 184.453 62.1041 184.349 59.1161C184.257 56.4321 185.509 52.2761 188.529 51.7081C189.196 51.5774 189.885 51.6196 190.53 51.8308C191.176 52.042 191.756 52.4151 192.217 52.9145C192.677 53.4139 193.002 54.0229 193.161 54.6835C193.319 55.3441 193.305 56.0342 193.121 56.6881Z" fill="#E4897B"/>
<path d="M191.405 48.8881C193.201 49.8881 195.633 50.4881 195.405 51.9121C195.105 53.6521 196.873 52.5641 196.461 55.1521C196.193 56.8441 193.073 61.9721 190.861 61.7241C187.557 61.3241 187.977 56.3001 187.965 53.6521C187.957 52.0881 187.885 46.9161 191.405 48.8881Z" fill="#263238"/>
<path d="M187.569 51.1321C186.769 51.3201 185.709 55.9321 188.809 56.3561C192.373 56.8401 187.569 51.1321 187.569 51.1321Z" fill="#263238"/>
<path d="M187.649 52.7681C186.669 52.8561 184.449 51.6761 184.721 49.9001C184.721 49.8881 186.125 51.9761 187.649 52.7681Z" fill="#263238"/>
<path d="M189.105 56.724C188.804 57.3835 188.294 57.925 187.653 58.264C186.809 58.704 186.333 58.064 186.525 57.216C186.697 56.456 187.345 55.308 188.213 55.216C189.081 55.124 189.453 55.924 189.105 56.724Z" fill="#E4897B"/>
<path d="M193.505 53.488C194.103 53.2286 194.627 52.825 195.03 52.3133C195.434 51.8016 195.704 51.1978 195.817 50.556C195.817 50.556 197.137 54.224 193.505 53.488Z" fill="#263238"/>
<path d="M196.841 53.428C196.562 53.2411 196.242 53.126 195.908 53.0932C195.575 53.0604 195.238 53.1108 194.929 53.24C194.929 53.24 196.161 51.644 196.841 53.428Z" fill="#263238"/>
<path d="M186.753 92.6C186.753 92.6 190.089 115.056 191.917 123.468C193.917 132.668 201.477 163.372 201.477 163.372H206.857C206.857 163.372 201.877 133.424 200.733 124.288C199.493 114.388 196.893 92.584 196.893 92.584L186.753 92.6Z" fill="#FA1239"/>
<path opacity="0.5" d="M186.753 92.6C186.753 92.6 190.089 115.056 191.917 123.468C193.917 132.668 201.477 163.372 201.477 163.372H206.857C206.857 163.372 201.877 133.424 200.733 124.288C199.493 114.388 196.893 92.584 196.893 92.584L186.753 92.6Z" fill="white"/>
<path d="M200.617 161.388C200.593 161.388 201.173 163.456 201.173 163.456H207.229L207.117 161.612L200.617 161.388Z" fill="#FA1239"/>
<path opacity="0.1" d="M200.617 161.388C200.593 161.388 201.173 163.456 201.173 163.456H207.229L207.117 161.612L200.617 161.388Z" fill="black"/>
<path d="M188.861 100.6C192.717 101.356 192.309 115.736 191.845 123.132C190.733 117.904 189.105 107.844 187.993 100.704C188.262 100.571 188.568 100.535 188.861 100.6Z" fill="#FA1239"/>
<path opacity="0.4" d="M188.861 100.6C192.717 101.356 192.309 115.736 191.845 123.132C190.733 117.904 189.105 107.844 187.993 100.704C188.262 100.571 188.568 100.535 188.861 100.6Z" fill="white"/>
<path d="M181.177 92.6001C181.177 92.6001 180.777 114.568 181.093 123.532C181.425 132.852 184.693 163.372 184.693 163.372H189.669C189.669 163.372 189.853 133.396 190.069 124.244C190.313 114.264 191.517 92.6001 191.517 92.6001H181.177Z" fill="#FA1239"/>
<path opacity="0.5" d="M181.177 92.6001C181.177 92.6001 180.777 114.568 181.093 123.532C181.425 132.852 184.693 163.372 184.693 163.372H189.669C189.669 163.372 189.853 133.396 190.069 124.244C190.313 114.264 191.517 92.6001 191.517 92.6001H181.177Z" fill="white"/>
<path d="M185.725 159.796C185.713 159.796 185.701 159.792 185.692 159.783C185.683 159.775 185.678 159.764 185.677 159.752C184.797 151.304 182.729 130.864 182.477 123.532C182.209 116.048 182.453 99.256 182.533 94.288C182.533 94.2753 182.538 94.263 182.547 94.254C182.556 94.245 182.568 94.24 182.581 94.24C182.594 94.24 182.607 94.2449 182.616 94.2538C182.626 94.2627 182.632 94.2749 182.633 94.288C182.553 99.256 182.309 116.048 182.577 123.528C182.837 130.86 184.905 151.292 185.777 159.74C185.777 159.754 185.772 159.767 185.763 159.777C185.755 159.787 185.742 159.794 185.729 159.796H185.725Z" fill="#FA1239"/>
<path opacity="0.4" d="M185.725 159.796C185.713 159.796 185.701 159.792 185.692 159.783C185.683 159.775 185.678 159.764 185.677 159.752C184.797 151.304 182.729 130.864 182.477 123.532C182.209 116.048 182.453 99.256 182.533 94.288C182.533 94.2753 182.538 94.263 182.547 94.254C182.556 94.245 182.568 94.24 182.581 94.24C182.594 94.24 182.607 94.2449 182.616 94.2538C182.626 94.2627 182.632 94.2749 182.633 94.288C182.553 99.256 182.309 116.048 182.577 123.528C182.837 130.86 184.905 151.292 185.777 159.74C185.777 159.754 185.772 159.767 185.763 159.777C185.755 159.787 185.742 159.794 185.729 159.796H185.725Z" fill="white"/>
<path d="M183.725 161.388C183.705 161.388 184.009 163.456 184.009 163.456H190.061L190.225 161.612L183.725 161.388Z" fill="#FA1239"/>
<path opacity="0.1" d="M183.725 161.388C183.705 161.388 184.009 163.456 184.009 163.456H190.061L190.225 161.612L183.725 161.388Z" fill="black"/>
</svg>
