<svg width="301" height="200" viewBox="0 0 301 200" fill="none" xmlns="http://www.w3.org/2000/svg">
<path d="M250.625 156.448H50.625V156.548H250.625V156.448Z" fill="#EBEBEB"/>
<path d="M230.585 162.884H217.337V162.984H230.585V162.884Z" fill="#EBEBEB"/>
<path d="M212.301 162.884H183.977V162.984H212.301V162.884Z" fill="#EBEBEB"/>
<path d="M168.357 159.172H160.681V159.272H168.357V159.172Z" fill="#EBEBEB"/>
<path d="M85.325 159.844H71.609V159.944H85.325V159.844Z" fill="#EBEBEB"/>
<path d="M113.825 159.844H88.885V159.944H113.825V159.844Z" fill="#EBEBEB"/>
<path d="M140.681 161.532H125.957V161.632H140.681V161.532Z" fill="#EBEBEB"/>
<path d="M145.425 138.608H68.1889C67.5839 138.607 67.004 138.366 66.5765 137.938C66.149 137.509 65.9089 136.929 65.9089 136.324V27.752C65.9142 27.1504 66.1566 26.5752 66.5835 26.1513C67.0104 25.7274 67.5873 25.4891 68.1889 25.488H145.425C146.031 25.488 146.612 25.7287 147.04 26.157C147.468 26.5853 147.709 27.1663 147.709 27.772V136.324C147.709 136.93 147.468 137.511 147.04 137.939C146.612 138.367 146.031 138.608 145.425 138.608ZM68.1889 25.568C67.6104 25.5691 67.0559 25.7997 66.6472 26.2091C66.2385 26.6186 66.0089 27.1735 66.0089 27.752V136.324C66.0089 136.903 66.2385 137.457 66.6472 137.867C67.0559 138.276 67.6104 138.507 68.1889 138.508H145.425C146.004 138.507 146.559 138.277 146.968 137.867C147.377 137.458 147.608 136.903 147.609 136.324V27.752C147.608 27.1731 147.377 26.6182 146.968 26.2089C146.559 25.7995 146.004 25.5691 145.425 25.568H68.1889Z" fill="#EBEBEB"/>
<path d="M231.949 138.608H154.709C154.104 138.607 153.523 138.366 153.095 137.938C152.667 137.51 152.426 136.929 152.425 136.324V27.752C152.431 27.1501 152.675 26.5749 153.102 26.1511C153.53 25.7273 154.107 25.4891 154.709 25.488H231.949C232.55 25.4901 233.126 25.7289 233.552 26.1527C233.978 26.5765 234.22 27.1511 234.225 27.752V136.324C234.225 136.928 233.986 137.508 233.559 137.936C233.132 138.364 232.553 138.606 231.949 138.608ZM154.709 25.568C154.13 25.5691 153.575 25.7995 153.166 26.2089C152.757 26.6182 152.526 27.1731 152.525 27.752V136.324C152.526 136.903 152.757 137.458 153.166 137.867C153.575 138.277 154.13 138.507 154.709 138.508H231.949C232.528 138.507 233.083 138.277 233.492 137.867C233.902 137.458 234.132 136.903 234.133 136.324V27.752C234.132 27.1731 233.902 26.6182 233.492 26.2089C233.083 25.7995 232.528 25.5691 231.949 25.568H154.709Z" fill="#EBEBEB"/>
<path d="M114.121 39.436H75.4449V146.116H114.121V39.436Z" fill="#F5F5F5"/>
<path d="M114.121 146.12H114.513L114.513 39.44H114.121L114.121 146.12Z" fill="#EBEBEB"/>
<path d="M110.389 43.5081H79.177V142.048H110.389V43.5081Z" fill="white"/>
<path d="M130.701 102.584L221.937 102.584V34.796L130.701 34.796V102.584Z" fill="#E6E6E6"/>
<path d="M129.289 102.584L220.525 102.584V34.796L129.289 34.796V102.584Z" fill="#F5F5F5"/>
<path d="M217.989 99.74V37.644L131.821 37.644V99.74H217.989Z" fill="white"/>
<path d="M132.885 99.736V37.64H131.817V99.736H132.885Z" fill="#E6E6E6"/>
<path d="M130.333 86.472L219.473 86.472V82.648L130.333 82.648V86.472Z" fill="#F5F5F5"/>
<g opacity="0.4">
<path d="M135.069 31.8H126.457V53.588H135.069V31.8Z" fill="#E6E6E6"/>
<path d="M135.069 51.8361H139.341V31.8001H135.069V51.8361Z" fill="#F5F5F5"/>
<path d="M147.953 31.8H139.341V53.588H147.953V31.8Z" fill="#E6E6E6"/>
<path d="M147.953 51.8361H152.225V31.8001H147.953V51.8361Z" fill="#F5F5F5"/>
<path d="M160.837 31.8H152.225V53.588H160.837V31.8Z" fill="#E6E6E6"/>
<path d="M160.837 51.8361H165.109V31.8001H160.837V51.8361Z" fill="#F5F5F5"/>
<path d="M173.721 31.8H165.109V53.588H173.721V31.8Z" fill="#E6E6E6"/>
<path d="M173.721 51.8361H177.993V31.8001H173.721V51.8361Z" fill="#F5F5F5"/>
<path d="M186.605 31.8H177.993V53.588H186.605V31.8Z" fill="#E6E6E6"/>
<path d="M186.605 51.8361H190.877V31.8001H186.605V51.8361Z" fill="#F5F5F5"/>
<path d="M199.489 31.8H190.877V53.588H199.489V31.8Z" fill="#E6E6E6"/>
<path d="M199.489 51.8361H203.761V31.8001H199.489V51.8361Z" fill="#F5F5F5"/>
<path d="M212.373 31.8H203.761V53.588H212.373V31.8Z" fill="#E6E6E6"/>
<path d="M212.373 51.8361H216.645V31.8001H212.373V51.8361Z" fill="#F5F5F5"/>
<path d="M225.257 31.8H216.645V53.588H225.257V31.8Z" fill="#E6E6E6"/>
</g>
<path d="M132.109 156.448H142.785V116.688H132.109V156.448Z" fill="#E6E6E6"/>
<path d="M133.889 156.448H132.113V152.868H135.753L133.889 156.448Z" fill="#F0F0F0"/>
<path d="M208.929 156.448H219.605V116.688H208.929V156.448Z" fill="#E6E6E6"/>
<path d="M132.113 155.072H210.477V116.688H132.113V155.072Z" fill="#F0F0F0"/>
<path d="M133.493 128.916H209.101V118.388L133.493 118.388V128.916Z" fill="#E6E6E6"/>
<path d="M152.625 121.66H189.981C191.713 121.66 193.373 120.36 194.565 118.06H148.033C149.225 120.36 150.881 121.66 152.625 121.66Z" fill="#F0F0F0"/>
<path d="M208.701 156.448H210.477V152.868H206.837L208.701 156.448Z" fill="#F0F0F0"/>
<path d="M133.493 141.144H209.101V130.616H133.493V141.144Z" fill="#E6E6E6"/>
<path d="M152.625 133.888H189.981C191.713 133.888 193.373 132.592 194.565 130.288H148.033C149.225 132.592 150.881 133.888 152.625 133.888Z" fill="#F0F0F0"/>
<path d="M133.493 153.372H209.101V142.844H133.493V153.372Z" fill="#E6E6E6"/>
<path d="M152.625 146.116H189.981C191.713 146.116 193.373 144.82 194.565 142.516H148.033C149.225 144.82 150.881 146.116 152.625 146.116Z" fill="#F0F0F0"/>
<path d="M150.625 174.512C193.458 174.512 228.181 172.485 228.181 169.984C228.181 167.483 193.458 165.456 150.625 165.456C107.792 165.456 73.069 167.483 73.069 169.984C73.069 172.485 107.792 174.512 150.625 174.512Z" fill="#F5F5F5"/>
<path d="M198.577 167.7H198.149C198.06 167.693 197.976 167.654 197.913 167.59C197.851 167.526 197.814 167.441 197.809 167.352L195.177 149.024H197.177L198.921 167.232C198.931 167.285 198.929 167.34 198.917 167.393C198.905 167.446 198.882 167.496 198.85 167.54C198.818 167.584 198.777 167.621 198.73 167.648C198.683 167.676 198.631 167.693 198.577 167.7Z" fill="#FF657E"/>
<path opacity="0.3" d="M198.577 167.7H198.149C198.06 167.693 197.976 167.654 197.913 167.59C197.851 167.526 197.814 167.441 197.809 167.352L195.177 149.024H197.177L198.921 167.232C198.931 167.285 198.929 167.34 198.917 167.393C198.905 167.446 198.882 167.496 198.85 167.54C198.818 167.584 198.777 167.621 198.73 167.648C198.683 167.676 198.631 167.693 198.577 167.7Z" fill="black"/>
<path d="M204.065 167.7H203.637C203.548 167.693 203.464 167.654 203.401 167.59C203.339 167.526 203.302 167.441 203.297 167.352L200.665 149.024H202.665L204.413 167.232C204.423 167.286 204.421 167.341 204.409 167.394C204.396 167.447 204.373 167.497 204.34 167.541C204.308 167.585 204.266 167.622 204.219 167.649C204.172 167.676 204.119 167.694 204.065 167.7Z" fill="#FF657E"/>
<path opacity="0.3" d="M204.065 167.7H203.637C203.548 167.693 203.464 167.654 203.401 167.59C203.339 167.526 203.302 167.441 203.297 167.352L200.665 149.024H202.665L204.413 167.232C204.423 167.286 204.421 167.341 204.409 167.394C204.396 167.447 204.373 167.497 204.34 167.541C204.308 167.585 204.266 167.622 204.219 167.649C204.172 167.676 204.119 167.694 204.065 167.7Z" fill="black"/>
<path d="M173.489 167.7H173.917C174.006 167.693 174.09 167.654 174.153 167.59C174.215 167.526 174.253 167.441 174.257 167.352L176.889 149.024H174.889L173.145 167.232C173.135 167.285 173.137 167.34 173.149 167.393C173.161 167.446 173.184 167.496 173.216 167.54C173.249 167.584 173.289 167.621 173.336 167.648C173.383 167.676 173.435 167.693 173.489 167.7Z" fill="#FF657E"/>
<path opacity="0.3" d="M173.489 167.7H173.917C174.006 167.693 174.09 167.654 174.153 167.59C174.215 167.526 174.253 167.441 174.257 167.352L176.889 149.024H174.889L173.145 167.232C173.135 167.285 173.137 167.34 173.149 167.393C173.161 167.446 173.184 167.496 173.216 167.54C173.249 167.584 173.289 167.621 173.336 167.648C173.383 167.676 173.435 167.693 173.489 167.7Z" fill="black"/>
<path d="M168.001 167.7H168.429C168.518 167.693 168.602 167.654 168.665 167.59C168.727 167.526 168.765 167.441 168.769 167.352L171.401 149.024H169.401L167.657 167.232C167.647 167.285 167.649 167.34 167.661 167.393C167.673 167.446 167.696 167.496 167.728 167.54C167.761 167.584 167.801 167.621 167.848 167.648C167.895 167.676 167.947 167.693 168.001 167.7Z" fill="#FF657E"/>
<path opacity="0.3" d="M168.001 167.7H168.429C168.518 167.693 168.602 167.654 168.665 167.59C168.727 167.526 168.765 167.441 168.769 167.352L171.401 149.024H169.401L167.657 167.232C167.647 167.285 167.649 167.34 167.661 167.393C167.673 167.446 167.696 167.496 167.728 167.54C167.761 167.584 167.801 167.621 167.848 167.648C167.895 167.676 167.947 167.693 168.001 167.7Z" fill="black"/>
<path d="M160.889 127.292H174.361C176.761 118.992 185.353 112.444 194.161 112.444H198.537C207.737 112.444 213.705 119.616 211.825 128.468C211.474 130.096 210.896 131.668 210.109 133.136L207.985 146.012C207.713 147.676 206.385 149.024 205.025 149.024H164.473C163.113 149.024 161.785 147.676 161.513 146.012L158.921 130.288C158.645 128.64 159.529 127.292 160.889 127.292Z" fill="#FF657E"/>
<path opacity="0.5" d="M160.889 127.292H174.361C176.761 118.992 185.353 112.444 194.161 112.444H198.537C207.737 112.444 213.705 119.616 211.825 128.468C211.474 130.096 210.896 131.668 210.109 133.136L207.985 146.012C207.713 147.676 206.385 149.024 205.025 149.024H164.473C163.113 149.024 161.785 147.676 161.513 146.012L158.921 130.288C158.645 128.64 159.529 127.292 160.889 127.292Z" fill="white"/>
<path d="M157.517 162.96L160.853 164.488C160.91 164.512 160.955 164.557 160.979 164.614C161.003 164.671 161.004 164.735 160.981 164.792L159.929 167.508C159.866 167.647 159.751 167.755 159.609 167.809C159.466 167.863 159.308 167.858 159.169 167.796C158.017 167.244 157.493 166.92 156.025 166.248C154.473 165.481 152.974 164.613 151.537 163.648C150.449 162.848 151.249 161.768 151.789 162.008C154.229 163.084 155.789 163.18 156.921 162.908C157.12 162.856 157.33 162.874 157.517 162.96Z" fill="#263238"/>
<path d="M181.177 122.06C181.177 122.06 159.845 122.324 159.513 130.732C159.041 142.82 157.257 162.888 157.257 162.888L160.857 164.488C160.857 164.488 167.161 144.352 167.385 134.912C173.385 133.424 188.813 134.912 190.625 130.008C191.513 127.457 191.748 124.725 191.309 122.06H181.177Z" fill="#FF657E"/>
<path opacity="0.2" d="M181.177 122.06C181.177 122.06 159.845 122.324 159.513 130.732C159.041 142.82 157.257 162.888 157.257 162.888L160.857 164.488C160.857 164.488 167.161 144.352 167.385 134.912C173.385 133.424 188.813 134.912 190.625 130.008C191.513 127.457 191.748 124.725 191.309 122.06H181.177Z" fill="black"/>
<path d="M185.717 99.9359C185.529 100.712 185.341 101.412 185.129 102.14C184.917 102.868 184.697 103.576 184.465 104.288C183.997 105.712 183.481 107.128 182.889 108.528C182.296 109.959 181.608 111.349 180.829 112.688C180.42 113.396 179.969 114.079 179.477 114.732C178.936 115.455 178.311 116.113 177.617 116.692L177.557 116.744L177.429 116.84C177.025 117.104 176.565 117.268 176.085 117.32C175.784 117.357 175.479 117.357 175.177 117.32C174.758 117.269 174.346 117.169 173.949 117.024C173.334 116.802 172.736 116.535 172.161 116.224C171.135 115.653 170.142 115.023 169.189 114.336C168.261 113.668 167.365 112.976 166.493 112.256C165.621 111.536 164.785 110.8 163.957 110.008C163.745 109.802 163.614 109.525 163.59 109.23C163.566 108.935 163.649 108.641 163.825 108.403C164.001 108.165 164.257 107.999 164.546 107.935C164.835 107.871 165.137 107.914 165.397 108.056H165.417C166.361 108.58 167.313 109.136 168.269 109.656C169.225 110.176 170.169 110.7 171.117 111.188C172.065 111.676 173.017 112.14 173.917 112.516C174.33 112.692 174.757 112.834 175.193 112.94C175.323 112.979 175.458 112.996 175.593 112.992C175.621 112.992 175.593 112.992 175.509 112.992C175.305 113.015 175.11 113.088 174.941 113.204L174.749 113.348C175.143 112.965 175.491 112.536 175.785 112.072C176.136 111.545 176.458 110.999 176.749 110.436C177.362 109.229 177.911 107.989 178.393 106.724C178.885 105.436 179.345 104.116 179.773 102.78C180.201 101.444 180.601 100.072 180.973 98.7799V98.7319C181.143 98.1117 181.55 97.5831 182.106 97.2605C182.663 96.938 183.324 96.8473 183.946 97.0081C184.569 97.1688 185.103 97.5682 185.434 98.1198C185.765 98.6714 185.865 99.331 185.713 99.9559L185.717 99.9359Z" fill="#263238"/>
<path d="M177.069 164.688H181.069C181.102 164.686 181.136 164.691 181.167 164.703C181.199 164.714 181.228 164.732 181.252 164.755C181.277 164.777 181.297 164.805 181.31 164.835C181.324 164.866 181.332 164.899 181.333 164.932L181.529 168.096C181.529 168.263 181.464 168.423 181.347 168.542C181.23 168.66 181.072 168.729 180.905 168.732C179.513 168.708 178.845 168.624 177.085 168.624C176.005 168.624 173.821 168.736 172.325 168.736C170.829 168.736 170.873 167.26 171.505 167.136C174.349 166.536 175.449 165.708 176.453 164.916C176.628 164.775 176.844 164.695 177.069 164.688Z" fill="#263238"/>
<path d="M186.925 122.06C186.925 122.06 167.577 123.692 168.053 132.096C168.573 141.296 177.069 164.696 177.069 164.696H180.981C180.981 164.696 177.633 143.268 176.453 133.896C181.909 133.896 194.557 134.92 196.373 130.004C197.261 127.453 197.495 124.721 197.053 122.056L186.925 122.06Z" fill="#FF657E"/>
<path d="M165.697 108.448C165.395 107.956 165.029 107.507 164.609 107.112C163.809 107.856 163.373 110.02 163.373 110.02L164.465 110.116C164.465 110.116 165.721 109.708 165.697 108.448Z" fill="#FF657E"/>
<path d="M161.681 106.504L160.437 105.964C160.275 105.894 160.094 105.885 159.926 105.939C159.759 105.993 159.616 106.105 159.525 106.256L158.933 107.232C158.851 107.369 158.817 107.53 158.835 107.689C158.853 107.848 158.923 107.996 159.033 108.112L160.741 109.892L163.589 109.776C163.75 109.771 163.907 109.722 164.042 109.636C164.178 109.549 164.288 109.428 164.361 109.284L164.689 108.64C164.792 108.446 164.821 108.221 164.768 108.008C164.716 107.794 164.586 107.608 164.405 107.484C163.481 106.876 161.681 106.504 161.681 106.504Z" fill="#FFC3BD"/>
<path d="M180.993 99.116C180.425 102.716 179.685 110.488 181.193 122.208L197.053 122.06C196.957 113.936 198.229 106.312 199.473 98.86C199.523 98.5673 199.513 98.2678 199.444 97.9791C199.375 97.6904 199.25 97.4184 199.074 97.1793C198.898 96.9401 198.676 96.7387 198.421 96.587C198.166 96.4353 197.883 96.3363 197.589 96.296C193.041 95.764 188.446 95.764 183.897 96.296C183.176 96.3945 182.504 96.7214 181.982 97.2288C181.459 97.7362 181.113 98.3975 180.993 99.116Z" fill="#263238"/>
<path d="M199.617 97.848C200.085 99.004 200.457 100.112 200.841 101.256C201.225 102.4 201.553 103.548 201.869 104.712C202.185 105.876 202.461 107.064 202.669 108.276C202.911 109.514 203.073 110.766 203.153 112.024C203.177 112.348 203.181 112.684 203.185 113.02V113.532C203.179 114.058 203.042 114.573 202.785 115.032C202.614 115.33 202.389 115.593 202.121 115.808C201.996 115.908 201.862 115.996 201.721 116.072C201.593 116.143 201.459 116.201 201.321 116.248C200.945 116.388 200.546 116.458 200.145 116.456C199.671 116.445 199.2 116.371 198.745 116.236C198.08 116.036 197.432 115.78 196.809 115.472C196.229 115.184 195.685 114.884 195.153 114.572C193.085 113.337 191.122 111.934 189.285 110.376C189.054 110.186 188.901 109.919 188.854 109.623C188.807 109.328 188.871 109.026 189.032 108.774C189.193 108.523 189.441 108.339 189.729 108.258C190.017 108.178 190.324 108.205 190.593 108.336H190.621C192.689 109.32 194.793 110.336 196.841 111.18C197.353 111.388 197.861 111.58 198.361 111.752C198.804 111.915 199.261 112.039 199.725 112.124C199.909 112.156 200.073 112.152 200.053 112.124C199.945 112.114 199.835 112.133 199.737 112.18C199.674 112.204 199.613 112.232 199.553 112.264C199.477 112.305 199.404 112.353 199.337 112.408C199.179 112.531 199.043 112.682 198.937 112.852C198.817 113.051 198.746 113.276 198.729 113.508L198.709 113.144C198.685 112.896 198.665 112.652 198.629 112.396C198.296 110.227 197.796 108.088 197.133 105.996C196.493 103.848 195.757 101.656 195.009 99.572V99.552C194.802 98.9513 194.837 98.2938 195.106 97.7184C195.376 97.1429 195.858 96.6947 196.451 96.4683C197.045 96.2418 197.703 96.255 198.287 96.505C198.871 96.755 199.335 97.2223 199.581 97.808L199.617 97.848Z" fill="#263238"/>
<path d="M193.277 88.252L191.361 89.852L188.745 92.024C188.826 92.3702 188.882 92.7218 188.913 93.076C189.037 94.34 188.761 95.5 187.229 96.088C186.938 96.1833 186.672 96.3444 186.453 96.5587C186.234 96.773 186.067 97.0348 185.965 97.324C185.757 97.992 186.001 98.74 188.105 98.74C191.197 98.74 192.809 97.364 193.417 96.688C193.499 96.5941 193.546 96.4752 193.551 96.3509C193.556 96.2266 193.519 96.1042 193.445 96.0039C192.225 94.2599 192.777 90.42 193.277 88.252Z" fill="#FFC3BD"/>
<path d="M188.029 98.052C188.164 98.2074 188.256 98.3947 188.297 98.596C188.456 98.3809 188.652 98.1965 188.877 98.052C189.143 98.1771 189.38 98.3573 189.571 98.5807C189.762 98.8042 189.903 99.0657 189.985 99.348C189.402 99.2286 188.841 99.0208 188.321 98.732C187.978 98.9221 187.6 99.0392 187.209 99.076C187.233 98.384 188.029 98.052 188.029 98.052Z" fill="#FF657E"/>
<path d="M188.877 98.052C189.432 98.7207 189.798 99.5259 189.937 100.384C189.937 100.384 195.057 99.104 194.817 95.764C194.367 95.5515 193.889 95.4046 193.397 95.328C193.397 95.328 192.297 97.328 188.877 98.052Z" fill="#FF657E"/>
<path d="M188.029 98.0519C187.469 98.7259 187.082 99.5264 186.901 100.384C186.901 100.384 184.277 97.9839 186.833 95.7919C187.274 95.6516 187.729 95.5565 188.189 95.5079C188.189 95.5079 186.489 96.8879 188.029 98.0519Z" fill="#FF657E"/>
<path opacity="0.2" d="M188.745 92.012C188.825 92.3597 188.881 92.7125 188.913 93.068C189.889 92.872 191.189 91.836 191.313 90.84C191.361 90.5103 191.373 90.1763 191.349 89.844L188.745 92.012Z" fill="black"/>
<path d="M185.945 81.3639C183.545 83.0719 184.881 87.0759 186.937 85.5439C188.993 84.0119 187.905 79.9719 185.945 81.3639Z" fill="#263238"/>
<path d="M194.069 84.932C193.401 87.996 193.169 89.82 191.357 91.22C190.773 91.6809 190.075 91.9736 189.337 92.0663C188.599 92.1589 187.85 92.0481 187.17 91.7458C186.491 91.4436 185.907 90.9613 185.481 90.3511C185.056 89.7409 184.806 89.0261 184.757 88.284C184.517 85.428 185.649 80.892 188.873 80.024C189.567 79.8171 190.303 79.7964 191.008 79.964C191.712 80.1317 192.36 80.4817 192.887 80.979C193.413 81.4763 193.8 82.1034 194.007 82.7972C194.215 83.4911 194.236 84.2273 194.069 84.932Z" fill="#FFC3BD"/>
<path d="M192.649 82.656C190.949 82.188 186.565 83.304 185.009 81.644C183.341 79.864 185.773 78.996 186.493 79.616C185.585 78.576 185.921 77.464 187.209 77.564C188.149 77.636 188.445 78.676 188.445 78.676C188.445 78.676 188.289 76.856 189.905 76.984C191.369 77.096 191.373 79.072 191.373 79.072C191.373 79.072 194.869 78.084 196.037 81.42C198.237 81.372 198.189 86.004 193.761 87.652C191.965 86.764 191.881 83.604 192.649 82.656Z" fill="#263238"/>
<path d="M195.565 82.0879C195.45 82.095 195.336 82.0568 195.249 81.9815C195.161 81.9062 195.106 81.7998 195.096 81.6848C195.086 81.5698 195.12 81.4552 195.193 81.3655C195.266 81.2757 195.37 81.2177 195.485 81.2039C195.605 81.1279 195.697 81.0139 195.745 80.8799C195.81 80.7519 195.847 80.612 195.855 80.4689C195.864 80.3258 195.842 80.1825 195.793 80.0479C195.759 79.9945 195.738 79.9344 195.729 79.8719C195.721 79.8093 195.726 79.7456 195.744 79.6851C195.762 79.6246 195.792 79.5686 195.834 79.5209C195.875 79.4733 195.926 79.4349 195.984 79.4085C196.041 79.3822 196.103 79.3683 196.166 79.3679C196.23 79.3675 196.292 79.3806 196.35 79.4063C196.407 79.432 196.459 79.4697 196.501 79.5169C196.543 79.5641 196.574 79.6197 196.593 79.6799C196.702 79.9477 196.75 80.2363 196.733 80.5248C196.716 80.8133 196.636 81.0944 196.497 81.3479C196.419 81.5273 196.301 81.6864 196.152 81.8132C196.003 81.9401 195.827 82.0313 195.637 82.0799C195.614 82.086 195.589 82.0887 195.565 82.0879Z" fill="#263238"/>
<path d="M194.569 87.776C194.153 88.3161 193.554 88.6859 192.885 88.816C192.017 88.972 191.753 88.172 192.137 87.4C192.481 86.7 193.337 85.78 194.137 85.98C194.937 86.18 195.081 87.088 194.569 87.776Z" fill="#FFC3BD"/>
<path d="M188.817 85.212C188.777 85.464 188.613 85.652 188.449 85.632C188.285 85.612 188.181 85.392 188.217 85.14C188.253 84.888 188.421 84.7 188.589 84.74C188.757 84.78 188.853 84.96 188.817 85.212Z" fill="#263238"/>
<path d="M185.961 84.872C185.921 85.124 185.757 85.312 185.593 85.272C185.429 85.232 185.325 85.032 185.361 84.78C185.397 84.528 185.565 84.34 185.733 84.36C185.901 84.38 186.001 84.62 185.961 84.872Z" fill="#263238"/>
<path d="M186.833 84.9719C186.515 85.6214 186.111 86.2254 185.633 86.7679C185.775 86.8811 185.94 86.9617 186.116 87.0039C186.292 87.0461 186.476 87.0488 186.653 87.0119L186.833 84.9719Z" fill="#ED847E"/>
<path d="M187.825 88.308C188.122 88.3119 188.417 88.2558 188.692 88.1431C188.967 88.0304 189.216 87.8633 189.425 87.652C189.435 87.6367 189.439 87.6185 189.436 87.6006C189.434 87.5826 189.425 87.5662 189.412 87.5541C189.398 87.542 189.381 87.5352 189.363 87.5348C189.345 87.5344 189.327 87.5405 189.313 87.552C189.085 87.7777 188.808 87.948 188.503 88.05C188.199 88.1519 187.875 88.1827 187.557 88.14C187.538 88.1386 187.518 88.1444 187.503 88.1561C187.487 88.1679 187.477 88.1849 187.473 88.204C187.472 88.214 187.473 88.2241 187.476 88.2337C187.478 88.2434 187.483 88.2523 187.489 88.2602C187.496 88.268 187.504 88.2745 187.512 88.2792C187.521 88.284 187.531 88.287 187.541 88.288C187.635 88.3 187.73 88.3067 187.825 88.308Z" fill="#263238"/>
<path d="M189.965 83.76C189.989 83.755 190.011 83.744 190.029 83.728C190.043 83.7142 190.054 83.6977 190.062 83.6795C190.07 83.6613 190.074 83.6417 190.074 83.622C190.074 83.6022 190.07 83.5827 190.062 83.5645C190.054 83.5463 190.043 83.5298 190.029 83.516C189.877 83.3367 189.684 83.1976 189.465 83.1111C189.247 83.0246 189.01 82.9933 188.777 83.02C188.758 83.0231 188.739 83.0301 188.722 83.0404C188.705 83.0508 188.691 83.0643 188.679 83.0803C188.668 83.0963 188.66 83.1144 188.655 83.1335C188.651 83.1527 188.65 83.1725 188.653 83.192C188.656 83.2114 188.663 83.23 188.674 83.2468C188.684 83.2635 188.697 83.2781 188.713 83.2896C188.729 83.3011 188.747 83.3094 188.767 83.3139C188.786 83.3184 188.806 83.3191 188.825 83.316C189.009 83.2981 189.195 83.3252 189.366 83.3949C189.538 83.4645 189.69 83.5747 189.809 83.716C189.828 83.7377 189.853 83.7534 189.881 83.7612C189.908 83.7691 189.938 83.7686 189.965 83.76Z" fill="#263238"/>
<path d="M184.941 83.596C184.964 83.6025 184.989 83.6033 185.012 83.5985C185.036 83.5936 185.058 83.5831 185.077 83.568C185.221 83.4404 185.392 83.3479 185.577 83.2979C185.762 83.2479 185.957 83.2418 186.145 83.28C186.183 83.2899 186.224 83.2846 186.258 83.2652C186.292 83.2458 186.318 83.2138 186.329 83.176C186.335 83.1571 186.336 83.1373 186.334 83.1177C186.332 83.0982 186.325 83.0793 186.316 83.0622C186.306 83.045 186.293 83.03 186.277 83.018C186.262 83.0059 186.244 82.9971 186.225 82.992C185.991 82.9414 185.748 82.9465 185.516 83.007C185.284 83.0674 185.069 83.1815 184.889 83.34C184.859 83.365 184.84 83.4009 184.836 83.4399C184.832 83.4789 184.844 83.5178 184.869 83.548C184.888 83.571 184.913 83.5878 184.941 83.596Z" fill="#263238"/>
<path d="M190.149 106.264L188.397 105.176C188.272 105.098 188.134 105.046 187.988 105.022C187.843 104.999 187.695 105.004 187.552 105.038C187.409 105.073 187.274 105.135 187.156 105.222C187.037 105.309 186.937 105.418 186.861 105.544L186.657 105.888C186.535 106.089 186.48 106.323 186.501 106.556C186.521 106.79 186.615 107.011 186.769 107.188L187.969 108.576C187.969 108.576 189.021 111.028 190.241 110.38L191.169 108.78L190.149 106.264Z" fill="#FFC3BD"/>
<path d="M191.953 109.4C191.713 108.819 191.401 108.271 191.025 107.768C190.145 108.52 189.425 110.92 189.425 110.92L190.501 111.152C190.893 111.042 191.241 110.816 191.501 110.503C191.76 110.19 191.918 109.805 191.953 109.4Z" fill="#FF657E"/>
<path d="M205.357 127.292H184.589C183.229 127.292 182.349 128.64 182.621 130.304L185.213 146.012C185.489 147.676 186.813 149.024 188.177 149.024H202.785L205.357 127.292Z" fill="#FF657E"/>
<path opacity="0.5" d="M205.357 127.292H184.589C183.229 127.292 182.349 128.64 182.621 130.304L185.213 146.012C185.489 147.676 186.813 149.024 188.177 149.024H202.785L205.357 127.292Z" fill="white"/>
<path d="M109.537 169.048H110.137C110.243 169.048 110.345 169.006 110.42 168.931C110.495 168.856 110.537 168.754 110.537 168.648L113.825 119.088H111.349L109.149 168.592C109.141 168.648 109.145 168.705 109.161 168.76C109.177 168.814 109.204 168.864 109.24 168.907C109.277 168.951 109.322 168.985 109.374 169.01C109.425 169.034 109.48 169.047 109.537 169.048Z" fill="#FF657E"/>
<path opacity="0.3" d="M109.537 169.048H110.137C110.243 169.048 110.345 169.006 110.42 168.931C110.495 168.856 110.537 168.754 110.537 168.648L113.825 119.088H111.349L109.149 168.592C109.141 168.648 109.145 168.705 109.161 168.76C109.177 168.814 109.204 168.864 109.24 168.907C109.277 168.951 109.322 168.985 109.374 169.01C109.425 169.034 109.48 169.047 109.537 169.048Z" fill="white"/>
<path d="M102.737 169.048H103.337C103.443 169.048 103.545 169.006 103.62 168.931C103.695 168.856 103.737 168.754 103.737 168.648L107.025 119.088H104.545L102.349 168.592C102.341 168.648 102.345 168.705 102.361 168.76C102.377 168.814 102.404 168.864 102.44 168.907C102.477 168.951 102.523 168.985 102.574 169.01C102.625 169.034 102.68 169.047 102.737 169.048Z" fill="#FF657E"/>
<path opacity="0.3" d="M102.737 169.048H103.337C103.443 169.048 103.545 169.006 103.62 168.931C103.695 168.856 103.737 168.754 103.737 168.648L107.025 119.088H104.545L102.349 168.592C102.341 168.648 102.345 168.705 102.361 168.76C102.377 168.814 102.404 168.864 102.44 168.907C102.477 168.951 102.523 168.985 102.574 169.01C102.625 169.034 102.68 169.047 102.737 169.048Z" fill="white"/>
<path d="M186.597 169.048H185.997C185.891 169.048 185.789 169.006 185.714 168.931C185.639 168.856 185.597 168.754 185.597 168.648L182.309 119.088H184.785L186.985 168.592C186.993 168.648 186.989 168.705 186.973 168.76C186.957 168.814 186.93 168.864 186.894 168.907C186.857 168.951 186.812 168.985 186.76 169.01C186.709 169.034 186.654 169.047 186.597 169.048Z" fill="#FF657E"/>
<path opacity="0.3" d="M186.597 169.048H185.997C185.891 169.048 185.789 169.006 185.714 168.931C185.639 168.856 185.597 168.754 185.597 168.648L182.309 119.088H184.785L186.985 168.592C186.993 168.648 186.989 168.705 186.973 168.76C186.957 168.814 186.93 168.864 186.894 168.907C186.857 168.951 186.812 168.985 186.76 169.01C186.709 169.034 186.654 169.047 186.597 169.048Z" fill="white"/>
<path d="M193.397 169.048H192.797C192.691 169.048 192.589 169.006 192.514 168.931C192.439 168.856 192.397 168.754 192.397 168.648L189.109 119.088H191.589L193.785 168.592C193.793 168.648 193.789 168.705 193.773 168.76C193.758 168.814 193.73 168.864 193.694 168.907C193.657 168.951 193.612 168.985 193.561 169.01C193.509 169.034 193.454 169.047 193.397 169.048Z" fill="#FF657E"/>
<path opacity="0.3" d="M193.397 169.048H192.797C192.691 169.048 192.589 169.006 192.514 168.931C192.439 168.856 192.397 168.754 192.397 168.648L189.109 119.088H191.589L193.785 168.592C193.793 168.648 193.789 168.705 193.773 168.76C193.758 168.814 193.73 168.864 193.694 168.907C193.657 168.951 193.612 168.985 193.561 169.01C193.509 169.034 193.454 169.047 193.397 169.048Z" fill="white"/>
<path d="M196.257 118.08H99.7369V119.1H196.257V118.08Z" fill="#FF657E"/>
<path d="M98.1289 102.288L97.2169 108.996C96.9289 111.228 96.6289 113.468 96.4169 115.668C96.3889 115.944 96.3689 116.212 96.3449 116.468L96.3129 116.868C96.3195 116.801 96.3195 116.734 96.3129 116.668C96.3053 116.604 96.2905 116.541 96.2689 116.48C96.2526 116.432 96.2325 116.385 96.2089 116.34C96.1929 116.308 96.1742 116.277 96.1529 116.248C96.0809 116.156 96.0729 116.168 96.0929 116.188C96.1338 116.232 96.1794 116.271 96.2289 116.304C96.3972 116.419 96.5737 116.522 96.7569 116.612C97.7089 117.047 98.6915 117.412 99.6969 117.704C101.793 118.34 103.997 118.904 106.173 119.428L105.925 121.336C103.599 121.266 101.28 121.027 98.9889 120.62C97.7747 120.416 96.5818 120.101 95.4249 119.68C95.085 119.549 94.7548 119.394 94.4369 119.216C94.2406 119.104 94.0534 118.977 93.8769 118.836C93.6322 118.642 93.4178 118.413 93.2409 118.156C93.1135 117.966 93.0113 117.76 92.9369 117.544C92.896 117.413 92.8639 117.279 92.8409 117.144C92.8262 117.011 92.8182 116.878 92.8169 116.744V116.3C92.8169 116.004 92.8169 115.708 92.8409 115.416C92.9369 113.08 93.1489 110.8 93.3969 108.52C93.6449 106.24 93.9329 103.98 94.2889 101.72L98.1289 102.288Z" fill="#7F3E3B"/>
<path d="M111.189 121.488L109.721 122.828C109.553 122.981 109.344 123.08 109.119 123.112C108.895 123.145 108.666 123.11 108.461 123.012L106.841 122.232C106.841 122.232 104.441 122.132 104.093 120.664L104.717 119.524L108.441 119.124C108.823 119.083 109.208 119.169 109.537 119.368L111.073 120.308C111.17 120.369 111.251 120.452 111.311 120.549C111.371 120.646 111.408 120.756 111.419 120.87C111.43 120.984 111.415 121.098 111.375 121.205C111.336 121.313 111.272 121.409 111.189 121.488Z" fill="#7F3E3B"/>
<path d="M102.405 88.512C102.805 90.816 103.109 95.02 101.461 96.512C101.461 96.512 105.461 98.616 108.113 102.288C110.913 100.056 108.573 96.724 108.573 96.724C106.037 96.04 106.173 94.148 106.657 92.384L102.405 88.512Z" fill="#7F3E3B"/>
<path d="M109.921 98.124C109.921 98.124 109.709 96.172 108.645 95.208C107.753 94.408 103.045 94.848 101.577 95.012C101.441 95.0283 101.311 95.0787 101.199 95.1583C101.087 95.238 100.997 95.3445 100.937 95.468L99.8649 97.708L109.921 98.124Z" fill="#FF657E"/>
<path opacity="0.8" d="M109.921 98.124C109.921 98.124 109.709 96.172 108.645 95.208C107.753 94.408 103.045 94.848 101.577 95.012C101.441 95.0283 101.311 95.0787 101.199 95.1583C101.087 95.238 100.997 95.3445 100.937 95.468L99.8649 97.708L109.921 98.124Z" fill="white"/>
<path d="M96.9169 97.088C94.0209 98.032 93.3969 101.916 93.6609 104.936L99.5049 108.536C99.5049 108.536 100.925 104.136 100.913 101.768C100.901 99.264 98.8849 96.456 96.9169 97.088Z" fill="#FF657E"/>
<path d="M98.0489 107.66C97.9752 107.662 97.902 107.649 97.8333 107.622C97.7647 107.595 97.702 107.555 97.6489 107.504C97.625 107.478 97.6036 107.45 97.5849 107.42C97.5629 107.391 97.5453 107.358 97.5329 107.324C97.5198 107.291 97.5091 107.258 97.5009 107.224C97.4969 107.189 97.4969 107.155 97.5009 107.12C97.4991 107.046 97.5124 106.972 97.5399 106.904C97.5674 106.835 97.6086 106.772 97.6609 106.72C97.7648 106.622 97.9021 106.568 98.0449 106.568C98.1876 106.568 98.325 106.622 98.4289 106.72C98.4812 106.772 98.5223 106.835 98.5498 106.904C98.5773 106.972 98.5906 107.046 98.5889 107.12C98.5928 107.155 98.5928 107.189 98.5889 107.224C98.5826 107.259 98.5719 107.292 98.5569 107.324C98.5458 107.358 98.5296 107.391 98.5089 107.42L98.4409 107.504C98.3892 107.555 98.3279 107.595 98.2606 107.622C98.1933 107.648 98.1213 107.661 98.0489 107.66Z" fill="white"/>
<path d="M96.9249 107.292C96.8254 107.254 96.7395 107.187 96.6776 107.1C96.6157 107.014 96.5807 106.911 96.5769 106.804C96.4985 106.875 96.4008 106.921 96.2962 106.937C96.1916 106.953 96.0846 106.937 95.9889 106.892C95.8933 106.847 95.8126 106.776 95.7565 106.687C95.7005 106.597 95.6714 106.494 95.6729 106.388C95.5906 106.455 95.4903 106.495 95.3848 106.504C95.2793 106.514 95.1735 106.491 95.0809 106.44C94.988 106.39 94.9116 106.315 94.8612 106.222C94.8107 106.13 94.7884 106.025 94.7969 105.92C94.7103 105.981 94.6077 106.015 94.5019 106.019C94.396 106.023 94.2914 105.995 94.2009 105.94C94.0782 105.865 93.9901 105.745 93.9556 105.606C93.9211 105.467 93.9432 105.319 94.0169 105.196C94.0923 105.073 94.2131 104.985 94.3531 104.95C94.4931 104.916 94.6411 104.938 94.7649 105.012C94.8498 105.066 94.9187 105.141 94.9644 105.23C95.0102 105.32 95.0311 105.42 95.0249 105.52C95.1066 105.461 95.2032 105.427 95.3037 105.42C95.4042 105.414 95.5044 105.436 95.5929 105.484C95.6814 105.532 95.7551 105.603 95.8059 105.69C95.8567 105.776 95.8826 105.875 95.8809 105.976C95.9593 105.913 96.0536 105.874 96.1532 105.862C96.2528 105.85 96.3538 105.866 96.4449 105.908C96.5359 105.95 96.6136 106.016 96.6694 106.1C96.7251 106.183 96.7568 106.28 96.7609 106.38C96.8363 106.314 96.9283 106.27 97.027 106.252C97.1257 106.235 97.2272 106.244 97.3209 106.28C97.4542 106.333 97.5611 106.437 97.618 106.569C97.675 106.701 97.6774 106.85 97.6249 106.984C97.5853 107.086 97.5161 107.173 97.4261 107.234C97.3362 107.295 97.2298 107.328 97.1209 107.328C97.054 107.327 96.9877 107.315 96.9249 107.292Z" fill="white"/>
<path d="M93.6609 105.488C93.625 105.492 93.5888 105.492 93.5529 105.488C93.5183 105.482 93.4847 105.471 93.4529 105.456C93.4187 105.445 93.3863 105.429 93.3569 105.408L93.2769 105.34C93.251 105.316 93.2282 105.289 93.2089 105.26C93.2089 105.228 93.1729 105.196 93.1569 105.164C93.1444 105.131 93.1337 105.098 93.1249 105.064C93.1229 105.028 93.1229 104.992 93.1249 104.956C93.1228 104.921 93.1228 104.887 93.1249 104.852C93.1337 104.817 93.1444 104.782 93.1569 104.748C93.1701 104.715 93.1876 104.684 93.2089 104.656C93.2291 104.626 93.2519 104.598 93.2769 104.572L93.3569 104.504C93.3872 104.485 93.4194 104.469 93.4529 104.456L93.5529 104.424C93.6401 104.408 93.7299 104.414 93.8147 104.439C93.8996 104.465 93.9771 104.511 94.0409 104.572C94.0659 104.598 94.0887 104.626 94.1089 104.656C94.1286 104.685 94.146 104.716 94.1609 104.748C94.1739 104.782 94.1833 104.816 94.1889 104.852C94.193 104.887 94.193 104.921 94.1889 104.956C94.1928 104.992 94.1928 105.028 94.1889 105.064C94.1833 105.098 94.1739 105.132 94.1609 105.164C94.1609 105.196 94.1289 105.228 94.1089 105.26C94.0896 105.289 94.0668 105.316 94.0409 105.34C93.938 105.436 93.8019 105.489 93.6609 105.488Z" fill="white"/>
<path d="M115.333 102.74C115.089 106.068 114.349 111.668 112.533 121.1L96.8771 120.636C97.2771 114.856 96.6651 110.548 95.2491 100.432C95.1888 99.9943 95.2172 99.549 95.3326 99.1225C95.4481 98.696 95.6482 98.2972 95.921 97.9497C96.1939 97.6022 96.5339 97.3131 96.9208 97.0998C97.3077 96.8865 97.7336 96.7532 98.1731 96.708C99.1771 96.604 100.321 96.52 101.469 96.496C103.842 96.3977 106.218 96.4685 108.581 96.708C109.341 96.8 110.129 96.924 110.881 97.052C112.198 97.2763 113.384 97.9834 114.207 99.0352C115.03 100.087 115.432 101.408 115.333 102.74Z" fill="#FF657E"/>
<path d="M110.505 84.288C110.541 84.596 110.737 84.828 110.937 84.8C111.137 84.772 111.273 84.508 111.237 84.2C111.201 83.892 111.005 83.66 110.805 83.684C110.605 83.708 110.469 83.968 110.505 84.288Z" fill="#263238"/>
<path d="M110.717 83.704L111.433 83.4C111.433 83.4 111.121 84.024 110.717 83.704Z" fill="#263238"/>
<path d="M110.625 84.756C110.984 85.4274 111.434 86.0465 111.961 86.596C111.817 86.728 111.647 86.8268 111.461 86.8856C111.275 86.9443 111.078 86.9615 110.885 86.936L110.625 84.756Z" fill="#630F0F"/>
<path d="M110.541 81.572C110.557 81.5439 110.565 81.5122 110.565 81.48C110.565 81.4478 110.557 81.4161 110.541 81.388C110.519 81.3448 110.482 81.3117 110.436 81.296C110.39 81.2803 110.34 81.2832 110.297 81.304C110.032 81.4219 109.799 81.6019 109.618 81.8289C109.437 82.0559 109.313 82.3231 109.257 82.608C109.254 82.6316 109.255 82.6557 109.261 82.6789C109.267 82.702 109.278 82.7237 109.292 82.7427C109.307 82.7617 109.325 82.7776 109.346 82.7895C109.366 82.8014 109.389 82.809 109.413 82.812C109.437 82.8153 109.461 82.814 109.484 82.8079C109.507 82.8019 109.529 82.7913 109.548 82.7768C109.567 82.7622 109.583 82.7441 109.594 82.7233C109.606 82.7026 109.614 82.6797 109.617 82.656C109.666 82.4314 109.767 82.2216 109.912 82.0436C110.057 81.8657 110.243 81.7246 110.453 81.632C110.489 81.6232 110.52 81.6019 110.541 81.572Z" fill="#263238"/>
<path d="M99.849 84.208C100.537 87.972 100.749 89.58 102.897 91.3C106.129 93.884 110.605 92.216 111.057 88.32C111.457 84.812 110.257 79.244 106.377 78.18C105.519 77.9415 104.615 77.9261 103.75 78.1353C102.885 78.3444 102.087 78.7712 101.433 79.375C100.779 79.9789 100.291 80.7399 100.013 81.5857C99.7361 82.4315 99.6795 83.3342 99.849 84.208Z" fill="#7F3E3B"/>
<path d="M108.145 85.264C108.777 87.332 110.289 92.332 106.945 93.448C104.333 94.32 96.145 95.016 95.205 90.22C94.233 85.264 98.653 81.732 98.653 81.732C98.653 81.732 95.149 78.86 97.393 75.732C100.285 71.7 107.213 73.98 109.265 76.828C111.269 79.6 108.145 85.264 108.145 85.264Z" fill="#263238"/>
<path d="M101.825 94.136C100.316 94.1344 98.8222 93.841 97.425 93.272C95.569 92.472 94.485 91.236 94.289 89.696C93.633 84.468 98.497 81.596 98.549 81.568L98.741 81.9C98.693 81.928 94.049 84.676 94.673 89.648C94.897 91.412 96.377 92.4 97.581 92.916C99.957 93.94 103.025 93.932 103.769 93.388L103.997 93.7C103.621 93.984 102.805 94.136 101.825 94.136Z" fill="#263238"/>
<path d="M97.149 80.984C97.105 81.652 96.553 82.584 98.869 82.916C101.185 83.248 104.409 83.228 105.073 82.672C105.737 82.116 106.385 80.78 105.001 80.9C103.617 81.02 97.225 79.84 97.149 80.984Z" fill="#FF657E"/>
<path d="M106.877 85.852C107.255 86.5507 107.893 87.0724 108.653 87.304C109.661 87.6 110.181 86.7 109.913 85.74C109.669 84.876 108.849 83.68 107.833 83.804C106.817 83.928 106.425 84.992 106.877 85.852Z" fill="#7F3E3B"/>
<path d="M131.281 164.912L134.993 164.84L133.197 155.576L129.485 155.644L131.281 164.912Z" fill="#7F3E3B"/>
<path d="M134.065 160.876C135.045 164.576 138.657 168.476 138.657 168.476L133.505 167.164L131.253 163.964L131.653 163.116L134.065 160.876Z" fill="#7F3E3B"/>
<path d="M130.405 162.596C130.394 163.029 130.42 163.463 130.481 163.892C130.701 165.42 131.373 169.492 131.373 169.492H131.725C131.566 168.252 131.471 167.005 131.441 165.756C131.489 164.752 132.137 166.528 132.921 167.536C133.705 168.544 135.117 169.46 137.401 169.536C140.073 169.62 141.141 169.508 140.285 168.84C139.429 168.172 137.605 167.74 137.605 167.74C136.134 167.11 134.881 166.059 134.005 164.72C133.14 163.517 132.004 162.534 130.689 161.852C130.465 161.864 130.421 162.288 130.405 162.596Z" fill="#263238"/>
<path d="M144.429 152.324L149.165 152.472L143.865 144.592L140.585 147.396L144.429 152.324Z" fill="#7F3E3B"/>
<path d="M145.553 148.98C148.997 150.58 154.509 150.268 154.509 150.268L150.029 153.868L146.185 153.58L145.785 152.728L145.553 148.98Z" fill="#7F3E3B"/>
<path d="M144.825 153.064C145.135 153.366 145.47 153.641 145.825 153.888C147.081 154.764 150.477 157.008 150.477 157.008L150.693 156.732C149.682 156.005 148.708 155.227 147.777 154.4C147.065 153.672 148.773 154.38 149.997 154.452C151.221 154.524 152.765 154.052 154.225 152.292C155.941 150.248 156.513 149.332 155.497 149.548C154.481 149.764 153.033 150.9 153.033 150.9C151.673 151.628 150.115 151.9 148.589 151.676C147.171 151.532 145.74 151.753 144.433 152.32C144.325 152.52 144.593 152.832 144.825 153.064Z" fill="#263238"/>
<path d="M107.065 120.828C107.065 120.828 132.409 117.088 135.025 123.576C139.593 134.88 146.037 147.832 146.037 147.832L142.925 150.408C142.925 150.408 131.873 140.176 127.945 128.808C123.249 130.328 108.309 135.208 102.837 135.208C96.993 135.208 94.605 130.228 96.717 121.952C96.8095 121.597 97.0164 121.283 97.3057 121.058C97.595 120.833 97.9505 120.71 98.317 120.708C102.025 120.744 107.065 120.828 107.065 120.828Z" fill="#263238"/>
<path d="M109.493 124.128C109.493 124.128 130.293 123.504 130.473 130.872C130.761 143.06 134.197 160.524 134.197 160.524L130.401 160.876C130.401 160.876 124.197 146.984 122.557 135.088C115.149 135.568 108.317 135.236 102.845 135.236C96.7128 135.236 96.2048 128.504 102.173 120.644C105.825 120.636 109.493 124.128 109.493 124.128Z" fill="#263238"/>
<path d="M96.6609 119.708L96.2249 121.088C96.1649 121.196 96.2889 121.308 96.4729 121.316L112.585 121.792C112.725 121.792 112.845 121.732 112.857 121.644L113.041 120.248C113.041 120.148 112.933 120.064 112.777 120.06L96.9249 119.588C96.8741 119.582 96.8228 119.591 96.7764 119.612C96.7299 119.633 96.69 119.666 96.6609 119.708Z" fill="white"/>
<path d="M98.737 121.544H98.313C98.229 121.544 98.165 121.496 98.173 121.444L98.425 119.628C98.425 119.576 98.509 119.536 98.593 119.536H99.017C99.101 119.536 99.165 119.584 99.157 119.636L98.905 121.448C98.897 121.508 98.821 121.548 98.737 121.544Z" fill="#263238"/>
<path d="M111.381 121.924H110.957C110.873 121.924 110.809 121.876 110.817 121.824L111.073 120.008C111.073 119.956 111.153 119.916 111.237 119.916H111.661C111.749 119.916 111.809 119.964 111.805 120.016L111.549 121.832C111.541 121.888 111.469 121.924 111.381 121.924Z" fill="#263238"/>
<path d="M105.061 121.732H104.637C104.549 121.732 104.489 121.684 104.497 121.632L104.749 119.816C104.749 119.764 104.833 119.724 104.917 119.724H105.341C105.425 119.724 105.489 119.772 105.481 119.824L105.229 121.64C105.221 121.696 105.145 121.736 105.061 121.732Z" fill="#263238"/>
<path d="M124.357 104.132H134.473C134.548 104.132 134.622 104.15 134.69 104.184C134.757 104.217 134.815 104.266 134.861 104.326C134.906 104.386 134.937 104.456 134.951 104.53C134.965 104.603 134.961 104.68 134.941 104.752L131.157 117.732C131.128 117.833 131.067 117.921 130.984 117.984C130.9 118.047 130.798 118.081 130.693 118.08H120.573C120.498 118.081 120.423 118.064 120.355 118.03C120.288 117.997 120.229 117.948 120.184 117.888C120.139 117.827 120.108 117.757 120.095 117.683C120.082 117.608 120.087 117.532 120.109 117.46L123.889 104.48C123.919 104.379 123.98 104.29 124.065 104.228C124.149 104.165 124.252 104.131 124.357 104.132Z" fill="#FF657E"/>
<path d="M124.541 104.608L134.377 104.84L130.493 117.084L120.657 116.848L124.541 104.608Z" fill="#E0E0E0"/>
<path d="M124.233 104.488L134.069 104.528L130.425 116.844L120.589 116.804L124.233 104.488Z" fill="white"/>
<path d="M115.361 104.744C115.361 105.144 115.421 105.616 115.453 106.06C115.485 106.504 115.545 106.968 115.605 107.42C115.717 108.324 115.866 109.215 116.053 110.092C116.232 110.947 116.47 111.789 116.765 112.612C116.913 113.012 117.077 113.412 117.253 113.764C117.341 113.948 117.437 114.12 117.533 114.296L117.681 114.54C117.865 114.707 118.081 114.834 118.317 114.912C118.691 115.057 119.077 115.174 119.469 115.26C120.352 115.446 121.246 115.58 122.145 115.66C123.993 115.84 125.925 115.928 127.813 115.968L128.005 117.884C126.039 118.274 124.044 118.5 122.041 118.56C121 118.592 119.959 118.549 118.925 118.432C118.358 118.363 117.798 118.249 117.249 118.092C116.547 117.906 115.894 117.569 115.337 117.104C115.15 116.942 114.981 116.761 114.833 116.564L114.577 116.204C114.413 115.964 114.253 115.724 114.117 115.48C113.832 115.004 113.579 114.51 113.361 114C112.934 113.022 112.589 112.011 112.329 110.976C112.07 109.97 111.871 108.95 111.733 107.92C111.665 107.412 111.613 106.9 111.569 106.384C111.525 105.868 111.497 105.376 111.489 104.784L115.361 104.744Z" fill="#7F3E3B"/>
<path d="M114.045 98.844C116.565 101.216 115.957 107.396 115.957 107.396L111.133 108.24C111.133 108.24 108.153 103.808 109.201 101.952C110.289 100.016 112.685 97.56 114.045 98.844Z" fill="#FF657E"/>
<path d="M115.957 107.94C115.883 107.941 115.81 107.928 115.741 107.9C115.672 107.873 115.61 107.832 115.557 107.78C115.531 107.755 115.508 107.726 115.489 107.696C115.471 107.667 115.455 107.636 115.441 107.604C115.433 107.566 115.427 107.527 115.425 107.488C115.423 107.453 115.423 107.419 115.425 107.384C115.422 107.31 115.435 107.237 115.462 107.168C115.489 107.099 115.529 107.037 115.581 106.984C115.607 106.959 115.635 106.936 115.665 106.916C115.693 106.896 115.724 106.88 115.757 106.868C115.79 106.854 115.825 106.843 115.861 106.836C115.94 106.821 116.021 106.823 116.098 106.843C116.176 106.862 116.248 106.899 116.31 106.949C116.372 107 116.422 107.064 116.456 107.137C116.491 107.209 116.509 107.288 116.509 107.368C116.513 107.403 116.513 107.437 116.509 107.472C116.503 107.508 116.492 107.543 116.477 107.576C116.465 107.609 116.449 107.64 116.429 107.668C116.41 107.698 116.387 107.727 116.361 107.752C116.311 107.81 116.249 107.856 116.179 107.889C116.109 107.921 116.034 107.939 115.957 107.94Z" fill="white"/>
<path d="M111.573 108.228C111.561 108.084 111.606 107.942 111.699 107.831C111.792 107.721 111.925 107.652 112.069 107.64C112.169 107.631 112.27 107.65 112.36 107.695C112.449 107.74 112.525 107.81 112.577 107.896C112.609 107.801 112.667 107.716 112.744 107.651C112.82 107.586 112.914 107.544 113.013 107.528C113.113 107.515 113.214 107.529 113.307 107.569C113.399 107.609 113.479 107.674 113.537 107.756C113.56 107.659 113.609 107.57 113.68 107.499C113.75 107.428 113.84 107.379 113.937 107.356C114.036 107.335 114.138 107.343 114.233 107.377C114.328 107.412 114.411 107.472 114.473 107.552C114.496 107.455 114.546 107.366 114.617 107.296C114.687 107.225 114.776 107.176 114.873 107.152C114.943 107.133 115.016 107.129 115.087 107.139C115.159 107.15 115.228 107.174 115.289 107.211C115.351 107.249 115.405 107.298 115.448 107.357C115.49 107.415 115.521 107.482 115.537 107.552C115.555 107.622 115.559 107.695 115.548 107.766C115.538 107.837 115.513 107.906 115.476 107.968C115.439 108.029 115.39 108.083 115.331 108.126C115.273 108.168 115.207 108.199 115.137 108.216C115.035 108.242 114.927 108.238 114.827 108.205C114.727 108.172 114.639 108.11 114.573 108.028C114.55 108.131 114.498 108.226 114.423 108.301C114.348 108.375 114.253 108.426 114.149 108.448C114.045 108.467 113.938 108.457 113.84 108.417C113.742 108.377 113.658 108.31 113.597 108.224C113.57 108.327 113.514 108.42 113.435 108.491C113.356 108.562 113.258 108.608 113.153 108.624C113.048 108.639 112.941 108.623 112.845 108.578C112.749 108.534 112.669 108.462 112.613 108.372C112.579 108.472 112.516 108.56 112.433 108.625C112.35 108.69 112.25 108.73 112.145 108.74H112.101C111.965 108.735 111.836 108.68 111.738 108.586C111.641 108.491 111.582 108.364 111.573 108.228Z" fill="white"/>
<path d="M111.133 108.784C111.097 108.788 111.061 108.788 111.025 108.784L110.925 108.752C110.892 108.738 110.86 108.722 110.829 108.704L110.749 108.636C110.722 108.612 110.699 108.583 110.681 108.552C110.661 108.523 110.644 108.492 110.629 108.46C110.616 108.426 110.607 108.392 110.601 108.356C110.597 108.322 110.597 108.287 110.601 108.252C110.597 108.216 110.597 108.18 110.601 108.144C110.607 108.11 110.616 108.076 110.629 108.044C110.629 108.012 110.661 107.98 110.681 107.948C110.7 107.919 110.723 107.892 110.749 107.868L110.829 107.8C110.859 107.78 110.891 107.764 110.925 107.752C110.957 107.737 110.99 107.726 111.025 107.72C111.112 107.702 111.203 107.706 111.288 107.732C111.373 107.758 111.45 107.805 111.513 107.868C111.539 107.892 111.562 107.919 111.581 107.948C111.601 107.98 111.617 108.012 111.633 108.044C111.645 108.077 111.656 108.11 111.665 108.144C111.667 108.18 111.667 108.216 111.665 108.252C111.667 108.287 111.667 108.321 111.665 108.356C111.656 108.391 111.646 108.426 111.633 108.46C111.618 108.492 111.601 108.523 111.581 108.552C111.562 108.583 111.539 108.611 111.513 108.636C111.41 108.732 111.274 108.785 111.133 108.784Z" fill="white"/>
<path d="M132.305 113.976L130.633 113.864C130.217 113.835 129.802 113.946 129.457 114.18L126.389 116.24L126.365 117.54C127.349 118.684 129.525 117.66 129.525 117.66L131.545 117.592C131.706 117.588 131.862 117.535 131.992 117.441C132.123 117.347 132.222 117.215 132.277 117.064L133.009 115.064C133.055 114.946 133.072 114.819 133.059 114.693C133.046 114.567 133.003 114.446 132.935 114.34C132.866 114.234 132.773 114.146 132.664 114.082C132.554 114.019 132.431 113.983 132.305 113.976Z" fill="#7F3E3B"/>
<path d="M97.661 170.852H98.113C98.2068 170.843 98.2943 170.801 98.3601 170.734C98.426 170.666 98.466 170.578 98.473 170.484L101.273 151.108H99.157L97.313 170.356C97.3021 170.412 97.3026 170.469 97.3143 170.524C97.3261 170.579 97.3489 170.632 97.3814 170.678C97.4139 170.725 97.4554 170.764 97.5035 170.794C97.5515 170.824 97.6051 170.843 97.661 170.852Z" fill="#FF657E"/>
<path opacity="0.3" d="M97.661 170.852H98.113C98.2068 170.843 98.2943 170.801 98.3601 170.734C98.426 170.666 98.466 170.578 98.473 170.484L101.273 151.108H99.157L97.313 170.356C97.3021 170.412 97.3026 170.469 97.3143 170.524C97.3261 170.579 97.3489 170.632 97.3814 170.678C97.4139 170.725 97.4554 170.764 97.5035 170.794C97.5515 170.824 97.6051 170.843 97.661 170.852Z" fill="black"/>
<path d="M91.861 170.852H92.313C92.4067 170.843 92.4942 170.801 92.5601 170.734C92.6259 170.666 92.6659 170.578 92.673 170.484L95.473 151.108H93.357L91.513 170.356C91.5021 170.412 91.5025 170.469 91.5143 170.524C91.526 170.579 91.5488 170.632 91.5813 170.678C91.6138 170.725 91.6553 170.764 91.7034 170.794C91.7515 170.824 91.8051 170.843 91.861 170.852Z" fill="#FF657E"/>
<path opacity="0.3" d="M91.861 170.852H92.313C92.4067 170.843 92.4942 170.801 92.5601 170.734C92.6259 170.666 92.6659 170.578 92.673 170.484L95.473 151.108H93.357L91.513 170.356C91.5021 170.412 91.5025 170.469 91.5143 170.524C91.526 170.579 91.5488 170.632 91.5813 170.678C91.6138 170.725 91.6553 170.764 91.7034 170.794C91.7515 170.824 91.8051 170.843 91.861 170.852Z" fill="black"/>
<path d="M124.181 170.852H123.725C123.632 170.842 123.545 170.8 123.48 170.732C123.415 170.665 123.376 170.577 123.369 170.484L120.569 151.108H122.681L124.525 170.356C124.536 170.411 124.536 170.468 124.524 170.523C124.513 170.578 124.49 170.631 124.458 170.677C124.426 170.723 124.385 170.763 124.337 170.793C124.29 170.823 124.237 170.843 124.181 170.852Z" fill="#FF657E"/>
<path opacity="0.3" d="M124.181 170.852H123.725C123.632 170.842 123.545 170.8 123.48 170.732C123.415 170.665 123.376 170.577 123.369 170.484L120.569 151.108H122.681L124.525 170.356C124.536 170.411 124.536 170.468 124.524 170.523C124.513 170.578 124.49 170.631 124.458 170.677C124.426 170.723 124.385 170.763 124.337 170.793C124.29 170.823 124.237 170.843 124.181 170.852Z" fill="black"/>
<path d="M129.981 170.852H129.525C129.432 170.842 129.345 170.8 129.28 170.732C129.215 170.665 129.176 170.577 129.169 170.484L126.369 151.108H128.481L130.325 170.356C130.336 170.411 130.336 170.468 130.324 170.523C130.313 170.578 130.29 170.631 130.258 170.677C130.226 170.723 130.185 170.763 130.137 170.793C130.09 170.823 130.037 170.843 129.981 170.852Z" fill="#FF657E"/>
<path opacity="0.3" d="M129.981 170.852H129.525C129.432 170.842 129.345 170.8 129.28 170.732C129.215 170.665 129.176 170.577 129.169 170.484L126.369 151.108H128.481L130.325 170.356C130.336 170.411 130.336 170.468 130.324 170.523C130.313 170.578 130.29 170.631 130.258 170.677C130.226 170.723 130.185 170.763 130.137 170.793C130.09 170.823 130.037 170.843 129.981 170.852Z" fill="black"/>
<path d="M137.497 128.14H123.257C120.729 119.364 111.657 112.444 102.329 112.444H97.7049C87.9609 112.444 81.6729 120.044 83.6569 129.38C84.0326 131.1 84.6423 132.761 85.4689 134.316L87.7169 147.916C88.0049 149.672 89.4089 151.096 90.8449 151.096H133.709C135.145 151.096 136.549 149.672 136.837 147.916L139.577 131.308C139.869 129.564 138.937 128.14 137.497 128.14Z" fill="#FF657E"/>
<path opacity="0.5" d="M137.497 128.14H123.257C120.729 119.364 111.657 112.444 102.329 112.444H97.7049C87.9609 112.444 81.6729 120.044 83.6569 129.38C84.0326 131.1 84.6423 132.761 85.4689 134.316L87.7169 147.916C88.0049 149.672 89.4089 151.096 90.8449 151.096H133.709C135.145 151.096 136.549 149.672 136.837 147.916L139.577 131.308C139.869 129.564 138.937 128.14 137.497 128.14Z" fill="white"/>
<path d="M135.641 64.348H132.373V64.748H135.641V64.348Z" fill="#FF657E"/>
<path d="M120.353 69.06H119.953V67.088C119.954 66.3599 120.244 65.6619 120.759 65.1474C121.274 64.633 121.973 64.344 122.701 64.344H129.993V64.744H122.701C122.079 64.744 121.482 64.9908 121.042 65.4303C120.602 65.8698 120.354 66.466 120.353 67.088V69.06Z" fill="#FF657E"/>
<path d="M122.701 65.7481H159.169C159.525 65.7481 159.867 65.8897 160.119 66.1417C160.371 66.3938 160.513 66.7356 160.513 67.0921V81.3921C160.513 81.7496 160.371 82.0924 160.118 82.3452C159.865 82.598 159.522 82.7401 159.165 82.7401H122.701C122.343 82.7401 122 82.598 121.747 82.3452C121.495 82.0924 121.353 81.7496 121.353 81.3921V67.0881C121.353 66.9116 121.388 66.7369 121.456 66.574C121.525 66.4112 121.624 66.2633 121.749 66.1389C121.874 66.0144 122.023 65.9159 122.186 65.8488C122.349 65.7818 122.524 65.7475 122.701 65.7481Z" fill="#FF657E"/>
<path d="M157.445 75.148H124.425C124.185 75.148 123.955 75.0527 123.785 74.8832C123.616 74.7137 123.521 74.4837 123.521 74.244C123.521 74.0042 123.616 73.7743 123.785 73.6047C123.955 73.4352 124.185 73.34 124.425 73.34H157.445C157.684 73.34 157.914 73.4352 158.084 73.6047C158.253 73.7743 158.349 74.0042 158.349 74.244C158.349 74.4837 158.253 74.7137 158.084 74.8832C157.914 75.0527 157.684 75.148 157.445 75.148Z" fill="white"/>
<path d="M150.377 78.904H124.425C124.185 78.904 123.955 78.8088 123.785 78.6392C123.616 78.4697 123.521 78.2398 123.521 78C123.52 77.8806 123.542 77.7622 123.587 77.6516C123.632 77.541 123.699 77.4404 123.783 77.3556C123.867 77.2708 123.967 77.2035 124.077 77.1576C124.187 77.1117 124.305 77.088 124.425 77.088H150.377C150.616 77.088 150.846 77.1833 151.016 77.3528C151.185 77.5223 151.281 77.7523 151.281 77.992C151.282 78.1114 151.259 78.2298 151.214 78.3404C151.169 78.451 151.103 78.5516 151.019 78.6364C150.935 78.7212 150.835 78.7885 150.724 78.8344C150.614 78.8804 150.496 78.904 150.377 78.904Z" fill="white"/>
<path d="M135.561 71.392H124.425C124.185 71.392 123.955 71.2967 123.785 71.1272C123.616 70.9577 123.521 70.7277 123.521 70.488C123.521 70.2482 123.616 70.0183 123.785 69.8488C123.955 69.6792 124.185 69.584 124.425 69.584H135.561C135.8 69.584 136.03 69.6792 136.2 69.8488C136.369 70.0183 136.465 70.2482 136.465 70.488C136.465 70.7277 136.369 70.9577 136.2 71.1272C136.03 71.2967 135.8 71.392 135.561 71.392Z" fill="white"/>
<path d="M150.321 71.392H139.185C138.945 71.392 138.715 71.2967 138.545 71.1272C138.376 70.9577 138.281 70.7277 138.281 70.488C138.281 70.2482 138.376 70.0183 138.545 69.8488C138.715 69.6792 138.945 69.584 139.185 69.584H150.321C150.56 69.584 150.79 69.6792 150.96 69.8488C151.129 70.0183 151.225 70.2482 151.225 70.488C151.225 70.7277 151.129 70.9577 150.96 71.1272C150.79 71.2967 150.56 71.392 150.321 71.392Z" fill="white"/>
<path d="M123.521 81.656V85.988C123.521 86.1737 123.572 86.3557 123.67 86.5137C123.768 86.6717 123.907 86.7994 124.073 86.8824C124.24 86.9655 124.425 87.0006 124.61 86.9839C124.795 86.9673 124.972 86.8994 125.121 86.788L131.761 81.652L123.521 81.656Z" fill="#FF657E"/>
<path d="M179.749 44.288H143.281C143.104 44.288 142.928 44.3228 142.765 44.3906C142.601 44.4583 142.453 44.5576 142.328 44.6828C142.202 44.808 142.103 44.9566 142.035 45.1201C141.968 45.2837 141.933 45.4589 141.933 45.636V59.936C141.933 60.2935 142.075 60.6363 142.328 60.8891C142.58 61.1419 142.923 61.284 143.281 61.284H172.081L177.305 65.324C177.453 65.4354 177.63 65.5032 177.815 65.5199C178 65.5366 178.186 65.5014 178.352 65.4184C178.518 65.3353 178.658 65.2077 178.755 65.0497C178.853 64.8917 178.905 64.7097 178.905 64.524V61.276H179.725C180.082 61.276 180.425 61.1339 180.678 60.8811C180.931 60.6283 181.073 60.2855 181.073 59.928V45.636C181.073 45.2826 180.934 44.9433 180.686 44.6912C180.439 44.4391 180.102 44.2943 179.749 44.288Z" fill="white"/>
<path d="M177.925 65.736C177.659 65.7343 177.4 65.6458 177.189 65.484L172.021 61.484H143.281C142.871 61.483 142.477 61.3195 142.187 61.0294C141.897 60.7394 141.734 60.3462 141.733 59.936V45.636C141.734 45.2258 141.897 44.8327 142.187 44.5426C142.477 44.2525 142.871 44.0891 143.281 44.088H179.749C180.159 44.0891 180.552 44.2525 180.842 44.5426C181.132 44.8327 181.296 45.2258 181.297 45.636V59.936C181.296 60.3462 181.132 60.7394 180.842 61.0294C180.552 61.3195 180.159 61.483 179.749 61.484H179.129V64.532C179.129 64.8503 179.002 65.1555 178.777 65.3805C178.552 65.6056 178.247 65.732 177.929 65.732L177.925 65.736ZM143.281 44.488C142.977 44.4891 142.685 44.6104 142.47 44.8254C142.255 45.0405 142.134 45.3319 142.133 45.636V59.936C142.134 60.2402 142.255 60.5315 142.47 60.7466C142.685 60.9617 142.977 61.083 143.281 61.084H172.161L177.425 65.164C177.543 65.2574 177.685 65.3156 177.835 65.3317C177.985 65.3479 178.136 65.3214 178.271 65.2554C178.407 65.1894 178.521 65.0864 178.6 64.9585C178.68 64.8305 178.722 64.6827 178.721 64.532V61.088H179.741C180.045 61.087 180.336 60.9657 180.551 60.7506C180.766 60.5355 180.888 60.2442 180.889 59.94V45.636C180.888 45.3319 180.766 45.0405 180.551 44.8254C180.336 44.6104 180.045 44.4891 179.741 44.488H143.281Z" fill="#FF657E"/>
<path d="M160.737 53.6921H178.025C178.143 53.6921 178.261 53.6687 178.371 53.6232C178.48 53.5778 178.58 53.5112 178.664 53.4273C178.748 53.3433 178.815 53.2437 178.86 53.134C178.905 53.0243 178.929 52.9068 178.929 52.7881C178.927 52.5493 178.831 52.321 178.661 52.1526C178.492 51.9841 178.264 51.8891 178.025 51.8881H160.737C160.497 51.8891 160.267 51.9853 160.097 52.1554C159.928 52.3256 159.833 52.5559 159.833 52.7961C159.835 53.0344 159.931 53.2623 160.1 53.4301C160.27 53.5979 160.498 53.6921 160.737 53.6921Z" fill="#FF657E"/>
<path d="M148.665 53.6921H157.225C157.343 53.6921 157.461 53.6687 157.571 53.6232C157.68 53.5778 157.78 53.5112 157.864 53.4273C157.948 53.3433 158.015 53.2437 158.06 53.134C158.105 53.0243 158.129 52.9068 158.129 52.7881C158.127 52.5493 158.031 52.321 157.861 52.1526C157.692 51.9841 157.463 51.8891 157.225 51.8881H148.665C148.425 51.8891 148.195 51.9853 148.025 52.1554C147.856 52.3256 147.761 52.5559 147.761 52.7961C147.763 53.0344 147.859 53.2623 148.028 53.4301C148.198 53.5979 148.426 53.6921 148.665 53.6921Z" fill="#FF657E"/>
<path d="M152.069 57.448H178.025C178.524 57.448 178.929 57.0433 178.929 56.544C178.929 56.0447 178.524 55.64 178.025 55.64H152.069C151.569 55.64 151.165 56.0447 151.165 56.544C151.165 57.0433 151.569 57.448 152.069 57.448Z" fill="#FF657E"/>
<path d="M145.025 49.936H178.025C178.264 49.936 178.494 49.8408 178.664 49.6712C178.833 49.5017 178.929 49.2718 178.929 49.032C178.929 48.7919 178.833 48.5616 178.664 48.3914C178.495 48.2212 178.265 48.1251 178.025 48.124H145.025C144.784 48.1251 144.555 48.2212 144.385 48.3914C144.216 48.5616 144.121 48.7919 144.121 49.032C144.121 49.2718 144.216 49.5017 144.385 49.6712C144.555 49.8408 144.785 49.936 145.025 49.936Z" fill="#FF657E"/>
</svg>
