<svg width="301" height="200" viewBox="0 0 301 200" fill="none" xmlns="http://www.w3.org/2000/svg">
<path d="M250.875 156.448H50.875V156.548H250.875V156.448Z" fill="#EBEBEB"/>
<path d="M230.835 162.884H217.587V162.984H230.835V162.884Z" fill="#EBEBEB"/>
<path d="M183.363 163.972H179.887V164.072H183.363V163.972Z" fill="#EBEBEB"/>
<path d="M217.187 159.172H209.511V159.272H217.187V159.172Z" fill="#EBEBEB"/>
<path d="M89.135 159.844H71.859V159.944H89.135V159.844Z" fill="#EBEBEB"/>
<path d="M95.231 159.844H92.699V159.944H95.231V159.844Z" fill="#EBEBEB"/>
<path d="M140.935 161.532H103.463V161.632H140.935V161.532Z" fill="#EBEBEB"/>
<path d="M145.675 138.608H68.4389C67.8339 138.607 67.254 138.366 66.8265 137.938C66.399 137.509 66.1589 136.929 66.1589 136.324V27.752C66.1642 27.1504 66.4066 26.5752 66.8335 26.1513C67.2604 25.7274 67.8373 25.4891 68.4389 25.488H145.675C146.281 25.488 146.862 25.7287 147.29 26.157C147.718 26.5853 147.959 27.1663 147.959 27.772V136.324C147.959 136.93 147.718 137.511 147.29 137.939C146.862 138.367 146.281 138.608 145.675 138.608ZM68.4389 25.568C67.8604 25.5691 67.3059 25.7997 66.8972 26.2091C66.4885 26.6186 66.2589 27.1735 66.2589 27.752V136.324C66.2589 136.903 66.4885 137.457 66.8972 137.867C67.3059 138.276 67.8604 138.507 68.4389 138.508H145.675C146.254 138.507 146.809 138.277 147.218 137.867C147.627 137.458 147.858 136.903 147.859 136.324V27.752C147.858 27.1731 147.627 26.6182 147.218 26.2089C146.809 25.7995 146.254 25.5691 145.675 25.568H68.4389Z" fill="#EBEBEB"/>
<path d="M232.199 138.608H154.959C154.354 138.607 153.773 138.366 153.345 137.938C152.917 137.51 152.676 136.929 152.675 136.324V27.752C152.681 27.1501 152.925 26.5749 153.352 26.1511C153.78 25.7273 154.357 25.4891 154.959 25.488H232.199C232.8 25.4901 233.376 25.7289 233.802 26.1527C234.228 26.5765 234.47 27.1511 234.475 27.752V136.324C234.475 136.928 234.236 137.508 233.809 137.936C233.382 138.364 232.803 138.606 232.199 138.608ZM154.959 25.568C154.38 25.5691 153.825 25.7995 153.416 26.2089C153.007 26.6182 152.776 27.1731 152.775 27.752V136.324C152.776 136.903 153.007 137.458 153.416 137.867C153.825 138.277 154.38 138.507 154.959 138.508H232.199C232.778 138.507 233.333 138.277 233.742 137.867C234.152 137.458 234.382 136.903 234.383 136.324V27.752C234.382 27.1731 234.152 26.6182 233.742 26.2089C233.333 25.7995 232.778 25.5691 232.199 25.568H154.959Z" fill="#EBEBEB"/>
<path d="M200.139 55.4921H194.471V73.1361H200.139V55.4921Z" fill="#E6E6E6"/>
<path d="M215.503 73.136H196.695L193.855 52.484H212.663L215.503 73.136Z" fill="#F0F0F0"/>
<path d="M217.539 73.136H198.115L195.275 52.484H214.699L217.539 73.136Z" fill="#F5F5F5"/>
<path d="M199.519 71.5081L197.127 54.1121H213.295L215.691 71.5081H199.519Z" fill="white"/>
<path d="M202.715 66.2401L201.815 59.7121C201.788 59.5398 201.799 59.3638 201.848 59.1962C201.896 59.0286 201.98 58.8736 202.094 58.7419C202.208 58.6102 202.35 58.5049 202.509 58.4334C202.668 58.362 202.841 58.326 203.015 58.3281H208.891C209.185 58.3258 209.47 58.4318 209.691 58.6257C209.912 58.8196 210.055 59.0881 210.091 59.3801L210.987 65.9121C211.013 66.0841 211.001 66.2597 210.953 66.4267C210.904 66.5938 210.82 66.7483 210.706 66.8796C210.592 67.0108 210.451 67.1157 210.292 67.187C210.133 67.2582 209.961 67.2941 209.787 67.2921H203.919C203.624 67.2953 203.338 67.1898 203.116 66.9958C202.894 66.8018 202.751 66.5327 202.715 66.2401Z" fill="#F5F5F5"/>
<path d="M164.855 36.16H80.139V88.42H164.855V36.16Z" fill="#E6E6E6"/>
<path d="M167.031 36.16H81.155V88.42H167.031V36.16Z" fill="#F0F0F0"/>
<path d="M164.855 88.4241H80.139V92.4681H164.855V88.4241Z" fill="#E6E6E6"/>
<path d="M170.655 88.4241H84.7789V92.4681H170.655V88.4241Z" fill="#F0F0F0"/>
<path d="M163.983 85.376V39.208L84.203 39.208V85.376H163.983Z" fill="#FAFAFA"/>
<path d="M90.059 85.376L107.943 39.208H116.383L98.499 85.376H90.059Z" fill="white"/>
<path d="M100.315 85.376L118.199 39.208H121.487L103.603 85.376H100.315Z" fill="white"/>
<path d="M131.603 85.376L149.487 39.208H152.775L134.895 85.376H131.603Z" fill="white"/>
<path d="M163.979 85.376V39.208H163.591V85.376H163.979Z" fill="#E6E6E6"/>
<path d="M229.075 73.136H211.139V156.448H229.075V73.136Z" fill="#E6E6E6"/>
<path d="M227.271 156.448H229.075V151.316H225.379L227.271 156.448Z" fill="#F0F0F0"/>
<path d="M197.647 73.136H179.711V156.448H197.647V73.136Z" fill="#E6E6E6"/>
<path d="M229.075 73.136H196.071V153.3H229.075V73.136Z" fill="#F0F0F0"/>
<path d="M197.875 156.448H196.071V151.316H199.767L197.875 156.448Z" fill="#F0F0F0"/>
<path d="M227.675 74.604H197.471V112.42H227.675V74.604Z" fill="#E6E6E6"/>
<path d="M215.843 77.548H209.303C207.897 77.5479 206.506 77.2613 205.214 76.7056C203.923 76.1499 202.758 75.3368 201.791 74.316H223.355C222.389 75.3374 221.224 76.1508 219.932 76.7066C218.641 77.2623 217.249 77.5486 215.843 77.548Z" fill="#F0F0F0"/>
<path d="M227.675 113.952H197.471V151.768H227.675V113.952Z" fill="#E6E6E6"/>
<path d="M215.843 116.896H209.303C207.897 116.896 206.506 116.609 205.214 116.054C203.923 115.498 202.758 114.685 201.791 113.664H223.355C222.389 114.685 221.224 115.499 219.932 116.055C218.641 116.61 217.249 116.897 215.843 116.896Z" fill="#F0F0F0"/>
<path d="M102.675 99.4441H132.523L136.851 117.072H106.999L102.675 99.4441Z" fill="#E6E6E6"/>
<path d="M106.999 117.072L107.123 118.044H136.971L136.851 117.072H106.999Z" fill="#E6E6E6"/>
<path d="M103.595 99.4441H133.443L137.771 117.072H107.919L103.595 99.4441Z" fill="#F0F0F0"/>
<path d="M108.551 116.264L104.619 100.248H132.811L136.743 116.264H108.551Z" fill="white"/>
<path d="M115.699 117.072L115.819 118.044H148.687L148.567 117.072H115.699Z" fill="#F0F0F0"/>
<path d="M156.187 118.044H152.611V156.444H156.187V118.044Z" fill="#E6E6E6"/>
<path d="M157.319 118.044H154.835V156.444H157.319V118.044Z" fill="#F0F0F0"/>
<path d="M112.007 122.44H158.091V118.044H112.007V122.44Z" fill="#F0F0F0"/>
<path d="M110.403 122.44H106.827V156.444H110.403V122.44Z" fill="#E6E6E6"/>
<path d="M111.531 122.44H109.047V156.444H111.531V122.44Z" fill="#F0F0F0"/>
<path d="M87.767 122.44H84.191V156.444H87.767V122.44Z" fill="#E6E6E6"/>
<path d="M88.899 122.44H86.415V156.444H88.899V122.44Z" fill="#F0F0F0"/>
<path d="M133.555 122.44H129.979V156.444H133.555V122.44Z" fill="#E6E6E6"/>
<path d="M134.683 122.44H132.199V156.444H134.683V122.44Z" fill="#F0F0F0"/>
<path d="M112.003 118.044H84.191V122.44H112.003V118.044Z" fill="#E6E6E6"/>
<path d="M167.811 156.448H166.943L164.475 144.192L164.039 142.044L161.303 128.688H150.903L145.275 156.448H144.395L150.139 128.176C150.157 128.082 150.207 127.998 150.279 127.936C150.352 127.874 150.444 127.839 150.539 127.836H161.675C161.771 127.835 161.865 127.869 161.938 127.931C162.012 127.994 162.06 128.081 162.075 128.176L164.475 139.904L164.875 142.048L167.811 156.448Z" fill="#F0F0F0"/>
<path d="M184.511 156.448H183.639L177.999 128.688H167.599L164.875 142.048L164.475 144.192L161.983 156.448H161.115L164.039 142.048L164.471 139.908L166.871 128.18C166.89 128.087 166.939 128.002 167.012 127.941C167.085 127.879 167.176 127.844 167.271 127.84H178.371C178.466 127.843 178.558 127.878 178.631 127.94C178.703 128.002 178.753 128.086 178.771 128.18L184.511 156.448Z" fill="#F0F0F0"/>
<path d="M158.875 128.26H177.987C181.635 128.26 183.659 125.78 184.691 121.692L185.195 119.356C185.365 118.649 185.373 117.914 185.217 117.204C185.061 116.494 184.746 115.829 184.296 115.258C183.846 114.688 183.272 114.227 182.618 113.911C181.963 113.594 181.246 113.431 180.519 113.432H168.519C166.039 113.432 165.383 114.024 163.667 117.76C161.951 121.496 158.875 128.26 158.875 128.26Z" fill="#F0F0F0"/>
<path d="M169.295 128.26H148.927C148.673 128.26 148.43 128.159 148.251 127.98C148.072 127.801 147.971 127.558 147.971 127.304V127.216C147.971 126.873 148.039 126.532 148.17 126.215C148.302 125.898 148.494 125.609 148.737 125.366C148.98 125.123 149.268 124.931 149.586 124.799C149.903 124.668 150.243 124.6 150.587 124.6H169.295V128.264V128.26Z" fill="#F0F0F0"/>
<path d="M150.875 174.512C193.708 174.512 228.431 172.485 228.431 169.984C228.431 167.483 193.708 165.456 150.875 165.456C108.042 165.456 73.319 167.483 73.319 169.984C73.319 172.485 108.042 174.512 150.875 174.512Z" fill="#F5F5F5"/>
<path d="M132.087 157.188L129.527 158.836L124.887 153.44L127.447 151.792L132.087 157.188Z" fill="#FF8B7B"/>
<path opacity="0.2" d="M127.451 151.792L124.887 153.44L127.283 156.224L129.843 154.572L127.451 151.792Z" fill="black"/>
<path d="M112.523 165.988L109.579 166.276L106.519 159.276L109.463 158.988L112.523 165.988Z" fill="#FF8B7B"/>
<path opacity="0.2" d="M106.523 159.28L108.099 162.888H111.167L109.463 158.992L106.523 159.28Z" fill="black"/>
<path d="M90.1668 71.488C88.6868 71.62 88.6468 69.108 86.0468 70.288C82.7428 71.792 83.8588 74.124 81.2788 74.028C78.6988 73.932 76.9708 75.944 77.5468 77.444C78.1228 78.944 79.0148 80.364 77.1908 80.968C75.3668 81.572 74.1268 82.104 74.3908 83.616C74.6548 85.128 75.9468 85.736 73.7708 86.7C71.5948 87.664 71.8148 91.832 73.9468 91.836C76.0788 91.84 74.0348 93.916 75.9468 96.028C77.8588 98.14 80.7668 98.428 81.9788 97.388C83.1908 96.348 84.5428 95.488 86.8228 97.088C89.1028 98.688 92.9628 99.088 92.7868 96.552C92.6108 94.016 90.3868 92.352 92.4828 91.032C94.5788 89.712 97.2828 89.06 96.4348 86.492C95.8948 84.892 94.2628 83.5 95.5788 82.304C97.7188 80.36 97.7308 75.96 95.1068 74.844C93.5828 74.2 95.0508 71.048 90.1668 71.488Z" fill="#263238"/>
<path d="M87.319 91.256C87.247 92.456 87.095 93.524 86.919 94.648C86.743 95.772 86.487 96.868 86.195 97.968C85.9104 99.08 85.5482 100.171 85.111 101.232C84.895 101.768 84.647 102.3 84.383 102.832C84.251 103.096 84.107 103.356 83.959 103.612C83.891 103.744 83.807 103.872 83.731 104.012L83.615 104.2C83.5363 104.325 83.448 104.444 83.351 104.556C83.1292 104.807 82.8564 105.007 82.551 105.144C82.2782 105.268 81.9857 105.342 81.687 105.364C81.2477 105.389 80.8077 105.33 80.391 105.188C79.7705 104.975 79.1793 104.685 78.631 104.324C77.6656 103.692 76.752 102.985 75.899 102.208C74.2546 100.712 72.7212 99.0986 71.311 97.38L72.447 96.288C73.247 96.992 74.047 97.708 74.883 98.388C75.719 99.068 76.535 99.752 77.387 100.388C78.1982 101.012 79.0538 101.576 79.947 102.076C80.3247 102.29 80.7279 102.455 81.147 102.568C81.2479 102.599 81.3542 102.609 81.459 102.596H81.379C81.3262 102.622 81.2776 102.656 81.235 102.696L81.215 102.716L81.303 102.552C81.359 102.444 81.423 102.34 81.475 102.228C81.587 102.007 81.695 101.783 81.799 101.556C81.999 101.1 82.199 100.636 82.359 100.152C82.695 99.192 82.975 98.2 83.223 97.192C83.471 96.184 83.659 95.156 83.827 94.12C83.995 93.084 84.123 92.024 84.227 91.04L87.319 91.256Z" fill="#FF8B7B"/>
<path d="M89.6428 91.6321C89.4828 92.6001 88.6788 94.4321 88.0428 95.7921C87.5708 96.7761 87.1868 97.5161 87.1868 97.5161L86.6268 97.2681L81.9908 95.2041C82.3428 92.7041 82.9148 90.0041 85.6708 88.7761C87.3908 88.0161 89.9268 89.8881 89.6428 91.6321Z" fill="#FA1239"/>
<path opacity="0.6" d="M89.6428 91.6321C89.4828 92.6001 88.6788 94.4321 88.0428 95.7921C87.5708 96.7761 87.1868 97.5161 87.1868 97.5161L86.6268 97.2681L81.9908 95.2041C82.3428 92.7041 82.9148 90.0041 85.6708 88.7761C87.3908 88.0161 89.9268 89.8881 89.6428 91.6321Z" fill="black"/>
<path opacity="0.3" d="M88.0309 95.792C87.5589 96.776 87.1749 97.5161 87.1749 97.5161L86.6149 97.268C86.6909 96.28 86.8869 94.724 87.4149 94.024C87.7447 94.5624 87.9547 95.1653 88.0309 95.792Z" fill="black"/>
<path d="M72.6229 97.2041L72.9909 94.5121L69.9709 95.4881C69.9709 95.4881 70.4509 97.1161 71.5269 97.7841L72.6229 97.2041Z" fill="#FF8B7B"/>
<path d="M71.6229 92.212L69.5149 93.368L69.9709 95.504L72.9909 94.512L71.6229 92.212Z" fill="#FF8B7B"/>
<path d="M128.583 158.028L131.363 156.028C131.411 155.993 131.469 155.977 131.528 155.982C131.587 155.987 131.642 156.013 131.683 156.056L133.575 158.028C133.621 158.079 133.656 158.139 133.677 158.205C133.698 158.27 133.705 158.34 133.697 158.408C133.69 158.476 133.668 158.542 133.633 158.602C133.598 158.661 133.551 158.712 133.495 158.752C132.515 159.432 132.007 159.708 130.783 160.584C130.031 161.124 128.447 162.428 127.407 163.172C126.367 163.916 125.579 162.932 125.943 162.528C127.583 160.72 128.019 159.488 128.279 158.472C128.326 158.293 128.433 158.136 128.583 158.028Z" fill="#263238"/>
<path d="M109.191 165.368H112.791C112.856 165.369 112.918 165.391 112.969 165.431C113.021 165.47 113.058 165.526 113.075 165.588L113.875 168.444C113.894 168.512 113.898 168.583 113.885 168.652C113.871 168.721 113.842 168.786 113.8 168.841C113.757 168.897 113.701 168.942 113.638 168.972C113.575 169.002 113.505 169.018 113.435 169.016C112.163 169.016 111.559 169.016 109.971 169.016H105.115C103.795 169.016 103.515 167.68 104.063 167.56C106.511 167.02 107.923 166.272 108.679 165.56C108.819 165.433 109.002 165.365 109.191 165.368Z" fill="#263238"/>
<path d="M103.695 102.472L91.907 106.2C83.747 90.0481 84.911 89.1921 84.911 89.1921C84.911 89.1921 86.795 88.1161 88.755 87.2201C89.051 87.0841 89.351 86.9521 89.647 86.8201C91.3883 86.128 93.1769 85.5613 94.999 85.1241C95.267 85.0521 95.535 84.9881 95.799 84.9241C97.25 84.5959 98.7193 84.3541 100.199 84.2001C100.375 86.4361 100.551 88.3281 100.743 89.9721C100.991 92.1161 101.259 93.8321 101.543 95.3161C102.068 97.7551 102.788 100.148 103.695 102.472Z" fill="#FA1239"/>
<path opacity="0.6" d="M103.695 102.472L91.907 106.2C83.747 90.0481 84.911 89.1921 84.911 89.1921C84.911 89.1921 86.795 88.1161 88.755 87.2201C89.051 87.0841 89.351 86.9521 89.647 86.8201C91.3883 86.128 93.1769 85.5613 94.999 85.1241C95.267 85.0521 95.535 84.9881 95.799 84.9241C97.25 84.5959 98.7193 84.3541 100.199 84.2001C100.375 86.4361 100.551 88.3281 100.743 89.9721C100.991 92.1161 101.259 93.8321 101.543 95.3161C102.068 97.7551 102.788 100.148 103.695 102.472Z" fill="black"/>
<path opacity="0.3" d="M101.575 95.324C100.443 93.724 99.3589 90 99.6389 88.604L100.759 89.98C101.007 92.124 101.275 93.84 101.575 95.324Z" fill="black"/>
<path d="M92.3268 92.2081C92.3268 92.2081 95.2988 91.5641 96.2548 92.8561C97.5668 91.5641 97.1028 86.5161 96.4708 84.7161C95.9696 84.8012 95.4779 84.9352 95.0028 85.1161L92.9028 88.3641L92.3268 92.2081Z" fill="white"/>
<path d="M92.327 92.208C92.327 92.208 90.327 92.656 90.115 94.292C87.315 92.208 87.511 89.156 88.143 87.356C88.6228 87.1238 89.1273 86.9466 89.647 86.828L91.747 89.14L92.327 92.208Z" fill="white"/>
<path d="M93.0108 81.724C93.4108 83.196 94.0188 84.652 95.0108 85.132C95.0108 85.132 95.9348 87.78 92.3348 92.208C88.5668 89.524 89.6548 86.828 89.6548 86.828C91.4308 85.76 90.9308 84.352 90.1748 83.12L91.2188 81.444C91.3228 81.2826 91.4715 81.1548 91.6467 81.0762C91.8219 80.9976 92.0162 80.9715 92.2059 81.0012C92.3957 81.0308 92.5727 81.1149 92.7156 81.2432C92.8585 81.3715 92.961 81.5385 93.0108 81.724Z" fill="#FF8B7B"/>
<path opacity="0.2" d="M93.011 81.724C92.9631 81.5354 92.8609 81.365 92.717 81.2341C92.5731 81.1031 92.3938 81.0174 92.2015 80.9876C92.0093 80.9577 91.8125 80.9851 91.6356 81.0662C91.4588 81.1474 91.3097 81.2788 91.207 81.444L90.871 81.98C90.899 82.336 90.915 82.628 90.911 82.78C90.879 83.82 92.339 83.772 93.527 83.272C93.3152 82.7701 93.1427 82.2526 93.011 81.724Z" fill="black"/>
<path d="M85.7749 77.704C86.8149 80.54 87.1909 81.764 89.0949 82.812C91.9549 84.392 95.2109 82.496 95.0429 79.404C94.8909 76.624 93.2189 72.448 90.0469 72.14C89.3477 72.0692 88.6421 72.1783 87.9969 72.4568C87.3517 72.7353 86.7884 73.1741 86.3604 73.7315C85.9324 74.2889 85.654 74.9465 85.5515 75.6417C85.4491 76.3369 85.5259 77.0468 85.7749 77.704Z" fill="#FF8B7B"/>
<path d="M93.1308 73.4401C92.1548 72.5001 91.1308 71.4081 89.1708 71.6201C87.0028 71.8561 86.1468 73.1681 86.1468 73.1681L84.2828 77.2441C84.2828 77.2441 85.4388 82.4921 87.3468 80.0441C88.4468 78.6281 88.4748 76.4881 88.0748 74.8881C88.8244 74.7824 89.5632 74.6111 90.2828 74.3761C91.1628 74.7041 92.1508 74.7041 92.8828 74.0321C93.0428 73.8841 93.1588 73.7681 93.2428 73.6761L93.3108 73.6001C93.5268 73.3241 93.3468 73.3521 93.1308 73.4401ZM90.6108 74.2881C91.2941 74.0671 91.9884 73.8815 92.6908 73.7321C92.4297 74.0083 92.0969 74.2066 91.7296 74.3048C91.3623 74.403 90.975 74.3972 90.6108 74.2881Z" fill="#263238"/>
<path d="M85.919 80.588C86.2193 81.0914 86.7069 81.4553 87.275 81.6C88.027 81.788 88.383 81.112 88.155 80.4C87.951 79.772 87.315 78.916 86.555 79.036C86.3907 79.0661 86.2365 79.137 86.1068 79.2422C85.9771 79.3474 85.8759 79.4835 85.8125 79.6381C85.7492 79.7927 85.7258 79.9607 85.7444 80.1267C85.7629 80.2927 85.823 80.4513 85.919 80.588Z" fill="#FF8B7B"/>
<path d="M91.9069 106.204C91.9069 106.204 91.5069 130.36 94.6629 139.088C97.7029 147.456 106.771 161.84 106.771 161.84L112.027 161.708C112.027 161.708 103.675 143.488 102.311 136.288C100.039 124.34 100.539 103.488 100.539 103.488L91.9069 106.204Z" fill="#FA1239"/>
<path opacity="0.3" d="M96.6268 108.288L98.0388 104.288L100.539 103.488C100.539 103.488 100.311 112.98 100.859 122.824C98.5908 118.456 96.6268 110.456 96.6268 108.288Z" fill="black"/>
<path d="M106.031 162.112L112.523 161.948L112.147 159.952L105.059 160.288L106.031 162.112Z" fill="#263238"/>
<path d="M94.4749 105.424C94.4749 105.424 102.675 124.18 107.975 134.856C112.255 143.48 125.575 155.048 125.575 155.048L129.227 152.516C129.227 152.516 119.203 138.812 116.247 132.964C106.787 114.252 109.119 106.54 103.679 102.472L94.4749 105.424Z" fill="#FA1239"/>
<path d="M125.791 156.256L130.079 153.204L129.107 151.332L124.395 154.896L125.791 156.256Z" fill="#263238"/>
<path d="M103.675 101.724L104.539 102.612C104.607 102.68 104.539 102.796 104.399 102.84L92.0348 106.748C91.9308 106.784 91.8268 106.748 91.7988 106.696L91.3588 105.672C91.3268 105.604 91.3988 105.512 91.5148 105.476L103.455 101.696C103.491 101.681 103.53 101.676 103.569 101.681C103.607 101.686 103.644 101.701 103.675 101.724Z" fill="#263238"/>
<path d="M102.475 103.568L102.795 103.468C102.859 103.468 102.899 103.396 102.879 103.36L102.299 102.036C102.282 102.014 102.258 101.999 102.231 101.993C102.204 101.986 102.176 101.989 102.151 102L101.831 102.104C101.767 102.124 101.727 102.172 101.747 102.212L102.331 103.532C102.343 103.572 102.407 103.588 102.475 103.568Z" fill="#FA1239"/>
<path d="M92.9509 106.58L93.2709 106.48C93.3349 106.46 93.3709 106.412 93.3549 106.372L92.7709 105.048C92.7709 105.008 92.6869 104.996 92.6229 105.016L92.3029 105.116C92.2429 105.136 92.2029 105.184 92.2189 105.224L92.8029 106.548C92.8209 106.568 92.845 106.583 92.8716 106.588C92.8983 106.594 92.926 106.591 92.9509 106.58Z" fill="#FA1239"/>
<path d="M97.711 105.088L98.031 104.988C98.095 104.968 98.135 104.92 98.115 104.88L97.531 103.556C97.531 103.52 97.451 103.504 97.387 103.524L97.067 103.624C97.003 103.624 96.963 103.692 96.983 103.732L97.563 105.056C97.583 105.088 97.647 105.088 97.711 105.088Z" fill="#FA1239"/>
<path d="M90.751 77.0881C90.823 77.3241 91.003 77.4881 91.151 77.4321C91.299 77.3761 91.371 77.156 91.299 76.924C91.227 76.692 91.051 76.524 90.899 76.58C90.747 76.636 90.683 76.8441 90.751 77.0881Z" fill="#263238"/>
<path d="M93.411 76.2881C93.483 76.5241 93.663 76.6881 93.811 76.6321C93.959 76.5761 94.031 76.3601 93.963 76.1241C93.895 75.8881 93.711 75.7241 93.563 75.7801C93.415 75.8361 93.343 76.0521 93.411 76.2881Z" fill="#263238"/>
<path d="M93.4989 75.812L94.0149 75.48C94.0149 75.48 93.8589 76.008 93.4989 75.812Z" fill="#263238"/>
<path d="M92.7469 76.9C93.1181 77.3733 93.5513 77.7945 94.0349 78.152C93.9384 78.2726 93.817 78.3708 93.6788 78.4398C93.5407 78.5089 93.3893 78.5471 93.2349 78.552L92.7469 76.9Z" fill="#FF5652"/>
<path d="M92.4429 79.848C92.4539 79.8391 92.4621 79.8272 92.4663 79.8137C92.4706 79.8001 92.4708 79.7857 92.4669 79.772C92.4613 79.754 92.4492 79.7386 92.4329 79.729C92.4167 79.7194 92.3974 79.7162 92.3789 79.72C92.0884 79.8149 91.7794 79.8394 91.4776 79.7914C91.1758 79.7434 90.8896 79.6243 90.6429 79.444C90.6355 79.4377 90.627 79.4329 90.6178 79.4299C90.6086 79.4269 90.5989 79.4257 90.5892 79.4265C90.5796 79.4272 90.5701 79.4299 90.5615 79.4343C90.5529 79.4386 90.5452 79.4447 90.5389 79.452C90.5326 79.4594 90.5278 79.4679 90.5248 79.4771C90.5218 79.4863 90.5206 79.496 90.5213 79.5057C90.5221 79.5153 90.5247 79.5248 90.5291 79.5334C90.5335 79.542 90.5395 79.5497 90.5469 79.556C90.8122 79.7521 91.1204 79.8819 91.4461 79.9348C91.7717 79.9877 92.1052 79.962 92.4189 79.86L92.4429 79.848Z" fill="#263238"/>
<path d="M89.747 76.4361C89.7656 76.4185 89.7794 76.3965 89.787 76.3721C89.8464 76.2013 89.945 76.0468 90.0749 75.9211C90.2048 75.7954 90.3624 75.7018 90.535 75.6481C90.5551 75.646 90.5745 75.6396 90.592 75.6295C90.6095 75.6194 90.6247 75.6058 90.6366 75.5894C90.6484 75.5731 90.6567 75.5544 90.6609 75.5346C90.6651 75.5149 90.6651 75.4944 90.6608 75.4747C90.6566 75.4549 90.6482 75.4363 90.6363 75.4199C90.6244 75.4036 90.6092 75.39 90.5917 75.3799C90.5741 75.3699 90.5547 75.3636 90.5346 75.3616C90.5145 75.3595 90.4942 75.3617 90.475 75.3681C90.2526 75.4317 90.0492 75.5488 89.8826 75.7092C89.7159 75.8695 89.5911 76.0683 89.519 76.2881C89.5119 76.3059 89.5085 76.325 89.5089 76.3441C89.5094 76.3633 89.5136 76.3822 89.5214 76.3997C89.5293 76.4172 89.5405 76.433 89.5545 76.4461C89.5685 76.4592 89.585 76.4694 89.603 76.4761C89.6284 76.4813 89.6548 76.4804 89.6798 76.4734C89.7048 76.4665 89.7279 76.4537 89.747 76.4361Z" fill="#263238"/>
<path d="M94.2228 74.78C94.2215 74.7707 94.2215 74.7613 94.2228 74.752C94.2278 74.7146 94.2187 74.6767 94.1972 74.6456C94.1758 74.6146 94.1436 74.5926 94.1068 74.584C93.8827 74.5363 93.6505 74.5426 93.4293 74.6024C93.2081 74.6623 93.0044 74.7738 92.8348 74.928C92.8083 74.9556 92.7938 74.9926 92.7946 75.0308C92.7953 75.0691 92.8113 75.1055 92.8388 75.132C92.8664 75.1585 92.9034 75.173 92.9417 75.1722C92.9799 75.1715 93.0163 75.1556 93.0428 75.128C93.1783 75.008 93.3403 74.9219 93.5155 74.8767C93.6908 74.8315 93.8742 74.8285 94.0508 74.868C94.0853 74.8764 94.1216 74.8721 94.1532 74.8559C94.1847 74.8398 94.2095 74.8128 94.2228 74.78Z" fill="#263238"/>
<path d="M102.007 87.032C102.483 87.388 102.883 87.72 103.299 88.08C103.715 88.44 104.099 88.8 104.499 89.176C105.279 89.928 106.031 90.712 106.743 91.536C107.463 92.3646 108.131 93.2369 108.743 94.148C108.903 94.372 109.043 94.616 109.191 94.848C109.339 95.08 109.487 95.316 109.619 95.564C109.751 95.812 109.891 96.032 110.019 96.308L110.231 96.752L110.403 97.2C110.772 98.3359 110.945 99.5261 110.915 100.72C110.891 101.829 110.772 102.935 110.559 104.024C110.351 105.092 110.079 106.136 109.759 107.16C109.436 108.186 109.06 109.194 108.631 110.18L107.183 109.644C107.431 108.684 107.667 107.676 107.843 106.68C108.038 105.694 108.181 104.698 108.271 103.696C108.367 102.726 108.39 101.75 108.339 100.776C108.31 100.314 108.254 99.8549 108.171 99.4C108.083 98.9801 107.961 98.5681 107.807 98.168L107.683 97.892L107.547 97.64C107.439 97.456 107.291 97.24 107.147 97.036C107.003 96.832 106.883 96.636 106.747 96.432C106.611 96.228 106.471 96.032 106.319 95.84C105.735 95.04 105.075 94.312 104.419 93.572C103.763 92.832 103.043 92.136 102.311 91.456C101.951 91.112 101.579 90.776 101.207 90.448C100.835 90.12 100.435 89.792 100.091 89.512L102.007 87.032Z" fill="#FF8B7B"/>
<path d="M107.643 108.688L105.451 110.288L108.251 111.768C108.251 111.768 109.087 110.288 108.819 109.052L107.643 108.688Z" fill="#FF8B7B"/>
<path d="M104.759 112.884L107.051 113.592L108.271 111.776L105.451 110.296L104.759 112.884Z" fill="#FF8B7B"/>
<path d="M100.215 84.2081C101.747 84.1401 104.759 87.9041 104.759 87.9041L101.631 92.3281C101.631 92.3281 98.119 89.5281 97.847 87.5801C97.619 85.9201 98.263 84.2881 100.215 84.2081Z" fill="#FA1239"/>
<path opacity="0.6" d="M100.215 84.2081C101.747 84.1401 104.759 87.9041 104.759 87.9041L101.631 92.3281C101.631 92.3281 98.119 89.5281 97.847 87.5801C97.619 85.9201 98.263 84.2881 100.215 84.2081Z" fill="black"/>
<path d="M127.531 159.28H127.483C127.413 159.271 127.346 159.244 127.29 159.201C127.234 159.158 127.19 159.101 127.163 159.036C127.142 158.998 127.131 158.955 127.131 158.912C127.131 158.869 127.142 158.826 127.163 158.788C127.359 158.452 128.459 158.388 128.583 158.388C128.597 158.388 128.611 158.392 128.623 158.399C128.635 158.406 128.644 158.416 128.651 158.428C128.659 158.44 128.663 158.454 128.663 158.468C128.663 158.482 128.659 158.496 128.651 158.508C128.383 158.804 127.907 159.28 127.531 159.28ZM128.411 158.548C127.971 158.58 127.387 158.684 127.287 158.86C127.276 158.876 127.27 158.895 127.27 158.914C127.27 158.933 127.276 158.952 127.287 158.968C127.304 159.012 127.332 159.05 127.369 159.08C127.405 159.109 127.449 159.129 127.495 159.136C127.707 159.16 128.043 158.94 128.411 158.548Z" fill="#FA1239"/>
<path d="M128.507 158.54C128.139 158.54 127.415 158.336 127.279 158.04C127.257 157.988 127.253 157.929 127.268 157.875C127.282 157.82 127.314 157.771 127.359 157.736C127.401 157.699 127.449 157.671 127.502 157.653C127.555 157.636 127.612 157.63 127.667 157.636C128.103 157.684 128.619 158.392 128.639 158.436C128.646 158.447 128.649 158.459 128.649 158.472C128.649 158.485 128.646 158.497 128.639 158.508C128.633 158.519 128.626 158.528 128.616 158.535C128.606 158.542 128.595 158.546 128.583 158.548L128.507 158.54ZM127.619 157.78C127.559 157.78 127.502 157.803 127.459 157.844C127.391 157.904 127.399 157.952 127.411 157.984C127.499 158.176 128.067 158.384 128.439 158.384C128.255 158.156 127.911 157.796 127.639 157.768L127.619 157.78Z" fill="#FA1239"/>
<path d="M107.587 165.964C107.341 165.982 107.095 165.923 106.883 165.796C106.828 165.756 106.783 165.703 106.751 165.643C106.719 165.583 106.701 165.516 106.699 165.448C106.696 165.41 106.702 165.372 106.719 165.338C106.735 165.303 106.76 165.274 106.791 165.252C107.119 165.032 108.347 165.588 108.591 165.704C108.605 165.71 108.616 165.72 108.623 165.733C108.63 165.746 108.633 165.761 108.631 165.776C108.63 165.791 108.623 165.806 108.613 165.817C108.603 165.829 108.59 165.837 108.575 165.84C108.251 165.914 107.92 165.956 107.587 165.964ZM107.015 165.34C106.965 165.337 106.915 165.349 106.871 165.372C106.861 165.38 106.853 165.39 106.848 165.402C106.843 165.414 106.841 165.427 106.843 165.44C106.844 165.487 106.857 165.533 106.879 165.575C106.901 165.617 106.933 165.653 106.971 165.68C107.183 165.84 107.683 165.864 108.327 165.744C107.913 165.542 107.471 165.405 107.015 165.34Z" fill="#FA1239"/>
<path d="M108.559 165.84H108.535C108.135 165.672 107.303 165.012 107.335 164.672C107.335 164.6 107.395 164.504 107.579 164.484C108.299 164.396 108.603 165.684 108.615 165.756C108.618 165.769 108.617 165.783 108.613 165.795C108.608 165.808 108.601 165.819 108.591 165.828C108.582 165.835 108.571 165.839 108.559 165.84ZM107.675 164.62H107.627C107.551 164.62 107.511 164.652 107.503 164.688C107.479 164.884 108.047 165.408 108.463 165.636C108.355 165.32 108.095 164.62 107.675 164.62Z" fill="#FA1239"/>
<path d="M90.839 76.6041L91.355 76.2721C91.355 76.2721 91.199 76.8001 90.839 76.6041Z" fill="#263238"/>
<path d="M166.327 47.3561H108.195C107.574 47.3518 106.959 47.4749 106.387 47.7175C105.815 47.9602 105.299 48.3175 104.871 48.7672C104.442 49.2169 104.111 49.7496 103.896 50.3325C103.681 50.9153 103.589 51.5359 103.623 52.1561L109.075 165.184C109.153 166.472 109.715 167.682 110.648 168.573C111.581 169.463 112.817 169.967 114.107 169.984H172.239C172.86 169.988 173.475 169.865 174.047 169.623C174.618 169.38 175.134 169.023 175.562 168.573C175.99 168.123 176.321 167.59 176.535 167.007C176.75 166.425 176.842 165.804 176.807 165.184L171.359 52.1561C171.281 50.8684 170.719 49.6579 169.786 48.7675C168.853 47.8772 167.617 47.3729 166.327 47.3561Z" fill="black"/>
<path d="M168.475 47.3561H110.327C109.706 47.3518 109.091 47.4748 108.519 47.7176C107.948 47.9603 107.432 48.3176 107.004 48.7674C106.576 49.2172 106.244 49.7499 106.03 50.3328C105.816 50.9156 105.724 51.5361 105.759 52.1561L111.207 165.184C111.284 166.472 111.846 167.682 112.78 168.573C113.713 169.463 114.949 169.967 116.239 169.984H174.371C174.992 169.988 175.607 169.865 176.178 169.623C176.75 169.38 177.266 169.023 177.694 168.573C178.122 168.123 178.453 167.59 178.667 167.007C178.881 166.425 178.974 165.804 178.939 165.184L173.491 52.1561C173.413 50.8712 172.854 49.6629 171.924 48.7729C170.993 47.8829 169.762 47.3769 168.475 47.3561Z" fill="#263238"/>
<path d="M116.075 166.784C115.647 166.773 115.238 166.603 114.928 166.308C114.618 166.012 114.429 165.611 114.399 165.184L108.959 52.156C108.949 51.9497 108.981 51.7436 109.053 51.5501C109.126 51.3566 109.236 51.1797 109.379 51.0302C109.521 50.8806 109.692 50.7615 109.882 50.68C110.072 50.5985 110.276 50.5563 110.483 50.556H168.615C169.043 50.5651 169.453 50.7343 169.764 51.0304C170.074 51.3266 170.262 51.7281 170.291 52.156L175.739 165.184C175.748 165.39 175.716 165.596 175.644 165.789C175.573 165.982 175.462 166.159 175.32 166.308C175.178 166.458 175.007 166.577 174.818 166.659C174.629 166.741 174.425 166.783 174.219 166.784H116.075Z" fill="#FA1239"/>
<path opacity="0.1" d="M116.047 165.984C115.833 165.977 115.629 165.892 115.474 165.744C115.32 165.597 115.224 165.397 115.207 165.184L109.759 52.1561C109.755 52.0534 109.772 51.9509 109.808 51.8548C109.845 51.7587 109.9 51.6708 109.971 51.5963C110.041 51.5218 110.126 51.4621 110.22 51.4209C110.315 51.3796 110.416 51.3576 110.519 51.3561H168.651C168.865 51.3623 169.069 51.4475 169.224 51.5952C169.379 51.7428 169.474 51.9426 169.491 52.1561L174.939 165.184C174.943 165.287 174.926 165.389 174.889 165.485C174.853 165.581 174.798 165.669 174.727 165.744C174.656 165.818 174.571 165.878 174.477 165.919C174.383 165.96 174.282 165.983 174.179 165.984H116.047Z" fill="black"/>
<g opacity="0.3">
<path d="M133.591 159.488H122.075C121.759 159.485 121.456 159.361 121.227 159.143C120.998 158.925 120.861 158.628 120.843 158.312L120.003 140.828C119.992 140.674 120.014 140.519 120.066 140.373C120.118 140.227 120.2 140.093 120.307 139.981C120.413 139.868 120.541 139.779 120.684 139.718C120.826 139.657 120.98 139.627 121.135 139.628H132.671C132.986 139.631 133.289 139.753 133.517 139.971C133.745 140.189 133.881 140.485 133.899 140.8L134.727 158.288C134.737 158.443 134.714 158.598 134.662 158.744C134.609 158.89 134.527 159.023 134.42 159.136C134.314 159.248 134.185 159.338 134.042 159.398C133.899 159.459 133.746 159.49 133.591 159.488ZM121.119 140.036C121.019 140.036 120.92 140.055 120.828 140.094C120.736 140.132 120.652 140.189 120.583 140.26C120.515 140.334 120.462 140.42 120.428 140.514C120.393 140.608 120.378 140.708 120.383 140.808L121.227 158.288C121.238 158.502 121.33 158.704 121.485 158.853C121.639 159.001 121.844 159.085 122.059 159.088H133.591C133.691 159.089 133.79 159.069 133.883 159.03C133.975 158.99 134.058 158.933 134.127 158.86C134.196 158.787 134.249 158.701 134.284 158.607C134.318 158.512 134.333 158.412 134.327 158.312L133.483 140.828C133.473 140.614 133.381 140.413 133.227 140.264C133.073 140.115 132.869 140.031 132.655 140.028L121.119 140.036Z" fill="#FAFAFA"/>
<path d="M132.503 144.096H121.675C121.622 144.096 121.571 144.075 121.533 144.037C121.496 144 121.475 143.949 121.475 143.896C121.475 143.843 121.496 143.792 121.533 143.755C121.571 143.717 121.622 143.696 121.675 143.696H132.515C132.568 143.696 132.619 143.717 132.656 143.755C132.694 143.792 132.715 143.843 132.715 143.896C132.715 143.949 132.694 144 132.656 144.037C132.619 144.075 132.568 144.096 132.515 144.096H132.503Z" fill="#FAFAFA"/>
<path d="M132.615 146.356H121.771C121.718 146.355 121.668 146.334 121.63 146.296C121.593 146.259 121.572 146.209 121.571 146.156C121.571 146.103 121.592 146.052 121.629 146.015C121.667 145.977 121.718 145.956 121.771 145.956H132.615C132.668 145.956 132.718 145.977 132.756 146.015C132.793 146.052 132.815 146.103 132.815 146.156C132.814 146.209 132.792 146.259 132.755 146.296C132.718 146.334 132.667 146.355 132.615 146.356Z" fill="#FAFAFA"/>
<path d="M132.723 148.616H121.879C121.826 148.615 121.776 148.594 121.738 148.556C121.701 148.519 121.68 148.469 121.679 148.416C121.679 148.363 121.7 148.312 121.737 148.275C121.775 148.237 121.826 148.216 121.879 148.216H132.723C132.776 148.216 132.827 148.237 132.864 148.275C132.902 148.312 132.923 148.363 132.923 148.416C132.923 148.469 132.902 148.52 132.864 148.557C132.827 148.595 132.776 148.616 132.723 148.616Z" fill="#FAFAFA"/>
<path d="M132.831 150.876H121.991C121.938 150.876 121.887 150.855 121.849 150.817C121.812 150.78 121.791 150.729 121.791 150.676C121.791 150.623 121.812 150.572 121.849 150.535C121.887 150.497 121.938 150.476 121.991 150.476H132.831C132.884 150.476 132.935 150.497 132.972 150.535C133.01 150.572 133.031 150.623 133.031 150.676C133.031 150.729 133.01 150.78 132.972 150.817C132.935 150.855 132.884 150.876 132.831 150.876Z" fill="#FAFAFA"/>
<path d="M132.939 153.136H122.099C122.046 153.136 121.995 153.115 121.957 153.078C121.92 153.04 121.899 152.989 121.899 152.936C121.899 152.883 121.92 152.832 121.957 152.795C121.995 152.757 122.046 152.736 122.099 152.736H132.939C132.992 152.736 133.043 152.757 133.08 152.795C133.118 152.832 133.139 152.883 133.139 152.936C133.139 152.989 133.118 153.04 133.08 153.078C133.043 153.115 132.992 153.136 132.939 153.136Z" fill="#FAFAFA"/>
<path d="M130.827 155.396H122.207C122.154 155.396 122.103 155.375 122.065 155.338C122.028 155.3 122.007 155.249 122.007 155.196C122.007 155.143 122.028 155.092 122.065 155.055C122.103 155.017 122.154 154.996 122.207 154.996H130.827C130.88 154.996 130.931 155.017 130.968 155.055C131.006 155.092 131.027 155.143 131.027 155.196C131.026 155.249 131.004 155.299 130.967 155.336C130.93 155.374 130.879 155.395 130.827 155.396Z" fill="#FAFAFA"/>
</g>
<g opacity="0.3">
<path d="M140.851 95.3401L132.943 96.6041C132.638 95.8515 132.234 95.1427 131.743 94.4961C131.269 93.9992 130.71 93.5926 130.091 93.2961L130.387 99.4961C134.784 100.653 137.743 101.875 139.263 103.16C140.232 103.968 141.018 104.972 141.57 106.106C142.122 107.241 142.426 108.479 142.463 109.74C142.569 111.216 142.297 112.694 141.675 114.036C141.082 115.288 140.23 116.399 139.175 117.296C138.192 118.138 137.055 118.782 135.827 119.192C134.385 119.625 132.892 119.86 131.387 119.888L131.439 120.98C131.451 121.182 131.421 121.385 131.352 121.575C131.282 121.765 131.174 121.939 131.035 122.086C130.895 122.232 130.727 122.349 130.54 122.428C130.354 122.506 130.153 122.546 129.951 122.544C129.53 122.54 129.127 122.376 128.822 122.085C128.518 121.795 128.335 121.4 128.311 120.98L128.259 119.888C126.503 119.775 124.77 119.434 123.103 118.872C121.826 118.411 120.645 117.718 119.619 116.828C118.682 116.029 117.89 115.075 117.275 114.008C116.658 112.861 116.21 111.631 115.943 110.356L124.547 109.352C124.872 110.763 125.272 111.783 125.747 112.412C126.343 113.143 127.109 113.717 127.979 114.084L127.615 106.516C125.484 105.986 123.398 105.29 121.375 104.436C120.066 103.783 118.941 102.814 118.103 101.616C117.123 100.231 116.581 98.5843 116.547 96.8881C116.454 95.7177 116.617 94.5411 117.024 93.4401C117.432 92.339 118.074 91.3399 118.907 90.5121C120.603 88.8027 123.203 87.8561 126.707 87.6721L126.679 87.1161C126.667 86.914 126.696 86.7115 126.766 86.5213C126.835 86.3312 126.943 86.1573 127.083 86.0106C127.222 85.8639 127.391 85.7475 127.577 85.6686C127.764 85.5897 127.964 85.5501 128.167 85.5521C128.587 85.5564 128.991 85.7204 129.295 86.0107C129.6 86.301 129.782 86.6961 129.807 87.1161L129.835 87.6721C133.035 87.8721 135.516 88.6294 137.279 89.9441C139.052 91.2811 140.313 93.1857 140.851 95.3401ZM126.971 93.2001C126.258 93.3829 125.614 93.7709 125.119 94.3161C124.782 94.768 124.619 95.3259 124.659 95.8881C124.68 96.4911 124.899 97.0703 125.283 97.5361C125.817 98.0964 126.493 98.5015 127.239 98.7081L126.971 93.2001ZM131.119 114.288C132.319 114.021 133.185 113.573 133.719 112.944C133.975 112.661 134.172 112.33 134.3 111.97C134.428 111.611 134.483 111.229 134.463 110.848C134.422 110.154 134.139 109.495 133.663 108.988C133.159 108.424 132.199 107.896 130.791 107.412L131.119 114.288Z" fill="#FAFAFA"/>
</g>
<path opacity="0.2" d="M161.755 62.1121H122.155L126.015 142.156C126.203 145.435 127.63 148.521 130.006 150.788C132.382 153.056 135.53 154.337 138.815 154.372H178.415L174.559 74.3281C174.372 71.0475 172.946 67.9605 170.568 65.6923C168.191 63.4241 165.04 62.1443 161.755 62.1121Z" fill="black"/>
<path d="M171.455 62.1121H122.167C125.451 62.1463 128.6 63.4269 130.977 65.6948C133.353 67.9627 134.779 71.0486 134.967 74.3281L138.115 139.488C138.303 142.767 139.73 145.853 142.106 148.12C144.482 150.388 147.63 151.669 150.915 151.704H175.767C177.349 151.721 178.918 151.411 180.375 150.796C181.833 150.18 183.149 149.271 184.24 148.125C185.331 146.979 186.175 145.621 186.719 144.135C187.264 142.65 187.496 141.068 187.403 139.488L184.259 74.3281C184.072 71.0475 182.646 67.9605 180.268 65.6923C177.891 63.4241 174.74 62.1443 171.455 62.1121Z" fill="#FAFAFA"/>
<path d="M162.547 139.488C162.641 141.067 162.409 142.648 161.866 144.133C161.323 145.619 160.48 146.976 159.389 148.122C158.299 149.268 156.985 150.177 155.529 150.793C154.072 151.409 152.504 151.719 150.923 151.704H200.207C201.788 151.719 203.356 151.409 204.813 150.793C206.27 150.177 207.584 149.268 208.675 148.122C209.765 146.977 210.609 145.619 211.152 144.134C211.696 142.648 211.928 141.067 211.835 139.488H162.547Z" fill="#E6E6E6"/>
<path d="M178.395 102.556H143.563C143.319 102.553 143.085 102.458 142.908 102.29C142.731 102.121 142.625 101.892 142.611 101.648C142.604 101.531 142.622 101.414 142.662 101.303C142.703 101.193 142.766 101.092 142.846 101.007C142.927 100.922 143.025 100.855 143.133 100.809C143.241 100.763 143.357 100.739 143.475 100.74H178.307C178.554 100.739 178.792 100.832 178.972 101.001C179.152 101.17 179.261 101.402 179.275 101.648C179.282 101.767 179.264 101.885 179.222 101.997C179.181 102.108 179.116 102.21 179.034 102.295C178.951 102.38 178.852 102.447 178.742 102.492C178.632 102.537 178.514 102.559 178.395 102.556Z" fill="#FA1239"/>
<path d="M178.667 108.224H143.835C143.591 108.221 143.356 108.126 143.18 107.958C143.003 107.789 142.897 107.56 142.883 107.316C142.876 107.199 142.894 107.082 142.934 106.971C142.975 106.861 143.037 106.76 143.118 106.675C143.199 106.59 143.297 106.523 143.405 106.477C143.513 106.431 143.629 106.407 143.747 106.408H178.583C178.826 106.412 179.059 106.507 179.235 106.676C179.411 106.844 179.517 107.073 179.531 107.316C179.537 107.433 179.52 107.551 179.479 107.661C179.439 107.771 179.376 107.872 179.295 107.957C179.214 108.042 179.117 108.11 179.009 108.156C178.9 108.202 178.784 108.225 178.667 108.224Z" fill="#FA1239"/>
<path d="M178.943 113.888H144.107C143.863 113.885 143.629 113.79 143.452 113.622C143.275 113.453 143.169 113.224 143.155 112.98C143.148 112.863 143.166 112.745 143.206 112.635C143.247 112.525 143.309 112.424 143.39 112.339C143.471 112.254 143.569 112.187 143.677 112.141C143.785 112.095 143.901 112.071 144.019 112.072H178.875C179.119 112.075 179.353 112.17 179.53 112.338C179.706 112.507 179.813 112.736 179.827 112.98C179.833 113.099 179.815 113.218 179.774 113.33C179.732 113.441 179.667 113.543 179.584 113.628C179.501 113.714 179.401 113.781 179.291 113.826C179.18 113.87 179.062 113.892 178.943 113.888Z" fill="#FA1239"/>
<path d="M179.215 119.564H144.383C144.139 119.561 143.905 119.465 143.729 119.297C143.552 119.128 143.446 118.9 143.431 118.656C143.424 118.539 143.442 118.421 143.482 118.311C143.523 118.201 143.585 118.1 143.666 118.015C143.747 117.93 143.845 117.863 143.953 117.817C144.061 117.771 144.177 117.747 144.295 117.748H179.127C179.371 117.751 179.605 117.846 179.782 118.014C179.958 118.183 180.065 118.412 180.079 118.656C180.085 118.773 180.068 118.891 180.027 119.001C179.987 119.111 179.924 119.212 179.843 119.297C179.762 119.382 179.665 119.45 179.557 119.496C179.449 119.541 179.332 119.565 179.215 119.564Z" fill="#FA1239"/>
<path d="M165.639 125.232H144.655C144.411 125.229 144.177 125.134 144 124.966C143.823 124.797 143.717 124.568 143.703 124.324C143.696 124.207 143.714 124.089 143.754 123.979C143.795 123.869 143.858 123.768 143.939 123.683C144.019 123.598 144.117 123.531 144.225 123.485C144.333 123.439 144.449 123.415 144.567 123.416H165.551C165.795 123.419 166.029 123.514 166.206 123.682C166.383 123.851 166.489 124.08 166.503 124.324C166.509 124.441 166.492 124.559 166.451 124.669C166.411 124.779 166.348 124.88 166.267 124.965C166.186 125.05 166.089 125.118 165.981 125.163C165.873 125.209 165.756 125.233 165.639 125.232Z" fill="#FA1239"/>
<path d="M168.059 90.8071C172.181 86.5848 171.93 79.6554 167.499 75.3299C163.068 71.0044 156.135 70.9207 152.013 75.1431C147.891 79.3654 148.142 86.2947 152.573 90.6202C157.004 94.9458 163.937 95.0294 168.059 90.8071Z" fill="#FA1239"/>
<path d="M169.067 82.9681C169.142 84.4545 168.838 85.9357 168.183 87.2721C167.472 88.705 166.372 89.9086 165.009 90.7449C163.645 91.5811 162.074 92.0162 160.475 92.0001C158.82 91.9876 157.197 91.5452 155.765 90.7163C154.333 89.8875 153.141 88.7006 152.307 87.2721C151.528 85.9654 151.081 84.4875 151.007 82.9681C150.937 81.8007 151.109 80.6317 151.511 79.5335C151.913 78.4353 152.536 77.4315 153.342 76.5844C154.148 75.7373 155.12 75.0651 156.197 74.6095C157.274 74.1539 158.433 73.9247 159.603 73.9361C162.03 73.9662 164.355 74.9146 166.111 76.5905C167.867 78.2663 168.923 80.545 169.067 82.9681Z" fill="white"/>
<path opacity="0.4" d="M168.183 87.2721C167.472 88.705 166.372 89.9086 165.009 90.7449C163.646 91.5811 162.074 92.0162 160.475 92.0001C158.82 91.9876 157.197 91.5452 155.765 90.7164C154.334 89.8875 153.142 88.7006 152.307 87.2721C154.609 85.6925 157.339 84.855 160.131 84.8721C162.99 84.8774 165.787 85.711 168.183 87.2721Z" fill="#FA1239"/>
<path opacity="0.4" d="M162.832 82.7511C164.347 81.1988 164.256 78.6518 162.628 77.0624C161 75.4729 158.451 75.4428 156.936 76.9951C155.42 78.5475 155.512 81.0944 157.14 82.6839C158.768 84.2734 161.317 84.3035 162.832 82.7511Z" fill="#FA1239"/>
<path d="M193.579 166.984H190.643L190.347 160.176H193.287L193.579 166.984Z" fill="#B55B52"/>
<path opacity="0.2" d="M190.351 160.18L190.499 163.688H193.439L193.287 160.18H190.351Z" fill="black"/>
<path d="M218.591 159.008L215.799 159.92L212.283 153.908L215.079 152.996L218.591 159.008Z" fill="#B55B52"/>
<path opacity="0.2" d="M215.079 152.996L212.283 153.908L214.099 157.008L216.891 156.096L215.079 152.996Z" fill="black"/>
<path d="M203.515 68.656C203.879 69.1 204.187 69.496 204.503 69.932C204.819 70.368 205.119 70.784 205.419 71.216C206.011 72.084 206.579 72.972 207.111 73.888C208.218 75.7464 209.121 77.7193 209.803 79.772L209.871 79.972L209.903 80.076L209.947 80.24L210.027 80.568L210.071 80.868C210.118 81.2273 210.133 81.5901 210.115 81.952C210.078 82.5623 209.99 83.1684 209.851 83.764C209.598 84.8311 209.262 85.8769 208.847 86.892C208.056 88.838 207.098 90.7116 205.983 92.492L203.983 91.536C204.583 89.66 205.183 87.74 205.623 85.872C205.852 84.9715 206.026 84.0578 206.143 83.136C206.192 82.738 206.207 82.3365 206.187 81.936C206.181 81.7933 206.162 81.6514 206.131 81.512L206.111 81.44C206.104 81.4271 206.097 81.4137 206.091 81.4L206.059 81.324L205.995 81.168L205.727 80.54L205.427 79.916C205.227 79.516 205.007 79.084 204.787 78.668C204.331 77.844 203.839 77.024 203.327 76.208C202.815 75.392 202.271 74.608 201.727 73.808C201.183 73.008 200.587 72.208 200.047 71.484L203.515 68.656Z" fill="#B55B52"/>
<path d="M204.167 91.0399L203.019 93.5799H206.303C206.303 93.5799 206.827 91.6519 205.635 90.8719L204.167 91.0399Z" fill="#B55B52"/>
<path d="M203.403 96.436L206.451 95.848L206.303 93.58H203.019L203.403 96.436Z" fill="#B55B52"/>
<path d="M188.963 55.7639C188.963 56.0039 188.839 56.1959 188.683 56.1959C188.527 56.1959 188.403 56.0039 188.403 55.7639C188.403 55.5239 188.531 55.3359 188.683 55.3359C188.835 55.3359 188.963 55.5279 188.963 55.7639Z" fill="#263238"/>
<path d="M188.875 56.1959C188.593 56.9197 188.212 57.6008 187.743 58.2199C187.905 58.3359 188.09 58.4152 188.285 58.4525C188.481 58.4898 188.682 58.4842 188.875 58.4359V56.1959Z" fill="#A02724"/>
<path d="M189.803 54.4519C189.774 54.4523 189.746 54.4424 189.723 54.4239C189.584 54.3191 189.422 54.2482 189.25 54.217C189.079 54.1857 188.902 54.195 188.735 54.2439C188.702 54.253 188.666 54.2494 188.635 54.2337C188.604 54.2181 188.58 54.1915 188.568 54.1591C188.555 54.1267 188.555 54.0909 188.568 54.0585C188.58 54.0262 188.604 53.9996 188.635 53.9839C188.846 53.917 189.069 53.9017 189.287 53.9393C189.505 53.9769 189.711 54.0663 189.887 54.1999C189.917 54.2222 189.936 54.255 189.942 54.2915C189.948 54.328 189.94 54.3654 189.919 54.3959C189.905 54.4134 189.888 54.4275 189.867 54.4372C189.847 54.4469 189.825 54.4519 189.803 54.4519Z" fill="#263238"/>
<path d="M196.615 58.496C196.191 60.648 195.771 64.588 197.275 66.02C197.275 66.02 196.687 68.2 192.695 68.2C188.295 68.2 190.595 66.02 190.595 66.02C192.995 65.448 192.931 63.672 192.511 62L196.615 58.496Z" fill="#B55B52"/>
<path d="M197.851 66.768C198.167 66.08 198.515 65.288 197.795 65.04C196.995 64.768 192.691 64.492 191.199 65.004C191.003 65.0584 190.819 65.1512 190.659 65.2771C190.499 65.403 190.366 65.5594 190.267 65.7373C190.168 65.9153 190.105 66.1111 190.083 66.3134C190.06 66.5158 190.078 66.7206 190.135 66.916L197.851 66.768Z" fill="#263238"/>
<path d="M215.195 160.62C214.979 160.828 214.735 160.996 214.551 160.968C214.493 160.956 214.44 160.927 214.399 160.884C214.358 160.841 214.332 160.787 214.323 160.728C214.311 160.683 214.309 160.635 214.317 160.589C214.325 160.542 214.344 160.498 214.371 160.46C214.611 160.088 215.571 159.928 215.623 159.924C215.636 159.922 215.649 159.924 215.661 159.929C215.673 159.934 215.683 159.942 215.691 159.952C215.699 159.963 215.703 159.976 215.703 159.99C215.703 160.004 215.699 160.017 215.691 160.028C215.547 160.242 215.381 160.441 215.195 160.62ZM214.543 160.468C214.522 160.487 214.503 160.509 214.487 160.532C214.471 160.555 214.46 160.581 214.455 160.609C214.45 160.637 214.452 160.665 214.459 160.692C214.491 160.816 214.551 160.828 214.571 160.828C214.775 160.86 215.211 160.428 215.479 160.092C215.143 160.147 214.824 160.275 214.543 160.468Z" fill="#FA1239"/>
<path d="M215.675 160.04L215.643 160.06C215.311 160.148 214.443 160.092 214.259 159.812C214.232 159.767 214.22 159.715 214.226 159.663C214.231 159.61 214.254 159.562 214.291 159.524C214.325 159.484 214.368 159.45 214.415 159.426C214.462 159.402 214.514 159.388 214.567 159.384C215.007 159.352 215.643 159.916 215.671 159.94C215.681 159.948 215.688 159.959 215.691 159.971C215.695 159.983 215.695 159.996 215.691 160.008C215.69 160.02 215.684 160.032 215.675 160.04ZM214.423 159.592L214.399 159.616C214.343 159.684 214.367 159.72 214.375 159.736C214.483 159.9 215.091 159.992 215.467 159.948C215.219 159.723 214.91 159.576 214.579 159.524C214.523 159.528 214.471 159.552 214.431 159.592H214.423Z" fill="#FA1239"/>
<path d="M189.459 167.132C189.083 167.132 188.719 167.08 188.599 166.912C188.567 166.868 188.549 166.815 188.549 166.76C188.549 166.705 188.567 166.652 188.599 166.608C188.623 166.567 188.654 166.532 188.692 166.503C188.73 166.475 188.773 166.455 188.819 166.444C189.307 166.312 190.335 166.896 190.379 166.924C190.392 166.931 190.402 166.941 190.407 166.954C190.413 166.967 190.415 166.982 190.411 166.996C190.409 167.009 190.403 167.022 190.394 167.032C190.384 167.042 190.372 167.049 190.359 167.052C190.062 167.104 189.761 167.131 189.459 167.132ZM188.995 166.564C188.95 166.558 188.904 166.558 188.859 166.564C188.831 166.569 188.804 166.581 188.781 166.597C188.757 166.614 188.738 166.635 188.723 166.66C188.675 166.748 188.691 166.792 188.723 166.816C188.859 167.004 189.603 167.008 190.147 166.932C189.791 166.736 189.399 166.611 188.995 166.564Z" fill="#FA1239"/>
<path d="M190.347 167.052H190.319C189.967 166.892 189.263 166.252 189.315 165.924C189.315 165.844 189.383 165.748 189.575 165.728C189.646 165.72 189.719 165.726 189.787 165.747C189.856 165.768 189.92 165.802 189.975 165.848C190.347 166.156 190.427 166.948 190.431 166.98C190.431 166.992 190.428 167.004 190.422 167.016C190.417 167.027 190.409 167.036 190.399 167.044C190.391 167.049 190.383 167.052 190.374 167.053C190.365 167.055 190.356 167.054 190.347 167.052ZM189.631 165.852H189.591C189.463 165.852 189.455 165.912 189.455 165.928C189.423 166.128 189.899 166.628 190.255 166.844C190.22 166.508 190.08 166.191 189.855 165.94C189.791 165.889 189.712 165.861 189.631 165.86V165.852Z" fill="#FA1239"/>
<path d="M215.555 159.596L217.955 157.312C217.997 157.271 218.052 157.245 218.11 157.24C218.168 157.235 218.227 157.251 218.275 157.284L220.499 158.772C220.553 158.808 220.598 158.856 220.63 158.912C220.663 158.969 220.682 159.032 220.687 159.096C220.691 159.161 220.681 159.226 220.657 159.286C220.633 159.346 220.595 159.4 220.547 159.444C219.703 160.244 219.251 160.568 218.203 161.568C217.555 162.188 215.627 164.288 214.735 165.144C213.843 166 212.883 165.224 213.171 164.796C214.467 162.872 215.275 161.028 215.347 160.056C215.36 159.883 215.434 159.72 215.555 159.596Z" fill="#263238"/>
<path d="M190.659 166.644H193.859C193.917 166.644 193.973 166.663 194.019 166.7C194.064 166.736 194.095 166.787 194.107 166.844L194.687 169.456C194.702 169.519 194.702 169.584 194.687 169.647C194.673 169.71 194.644 169.768 194.604 169.818C194.563 169.869 194.512 169.909 194.454 169.936C194.395 169.963 194.331 169.977 194.267 169.976C193.107 169.976 191.435 169.892 189.979 169.892C188.279 169.892 186.811 169.984 184.815 169.984C183.615 169.984 183.275 168.764 183.779 168.652C186.075 168.152 187.955 168.096 189.939 166.872C190.153 166.73 190.402 166.651 190.659 166.644Z" fill="#263238"/>
<path d="M186.475 72.688C185.307 74.408 184.103 76.016 182.807 77.604C181.506 79.2114 180.116 80.7445 178.643 82.196L178.075 82.748L177.931 82.884L177.827 82.98L177.675 83.088C177.487 83.2399 177.284 83.3738 177.071 83.488C176.396 83.8442 175.653 84.0528 174.891 84.1C173.729 84.1688 172.562 84.0718 171.427 83.812C169.37 83.3583 167.376 82.6572 165.487 81.724L166.223 79.644C168.096 80.0184 169.99 80.2776 171.895 80.42C172.732 80.4861 173.574 80.4512 174.403 80.316C174.641 80.2804 174.868 80.1915 175.067 80.056C175.087 80.056 175.067 80.032 175.067 80.032L175.099 80L175.215 79.868L175.691 79.348C176.939 77.924 178.151 76.404 179.327 74.852C180.503 73.3 181.683 71.708 182.807 70.156L186.475 72.688Z" fill="#B55B52"/>
<path d="M202.539 66.688C205.291 67.32 208.451 74.828 208.451 74.828L202.919 78.62C201.545 76.6457 200.327 74.5674 199.275 72.404C197.635 68.968 199.723 66.04 202.539 66.688Z" fill="#FA1239"/>
<path opacity="0.3" d="M200.563 71.4879L203.179 78.4519L202.919 78.6319C202.919 78.6319 201.787 77.0319 200.563 74.8999V71.4879Z" fill="black"/>
<path d="M186.075 66.836C186.075 66.836 182.947 70.368 185.903 92.236H201.619C201.727 89.836 200.211 78.052 202.539 66.684C200.801 66.3497 199.042 66.1279 197.275 66.02C195.05 65.8919 192.82 65.8919 190.595 66.02C189.069 66.1737 187.558 66.4466 186.075 66.836Z" fill="#FA1239"/>
<path opacity="0.3" d="M187.819 73.1599C187.41 75.6415 186.338 77.9662 184.715 79.8879C184.651 78.4799 184.627 77.2159 184.631 76.0839L187.819 73.1599Z" fill="black"/>
<path d="M189.175 69.2199C189.575 71.9999 184.079 79.1079 184.079 79.1079L178.571 75.3159C178.571 75.3159 180.099 71.3999 182.671 68.8319C185.611 65.8879 188.755 66.1919 189.175 69.2199Z" fill="#FA1239"/>
<path d="M166.603 79.8879L164.447 77.6599L162.147 80.6239C162.147 80.6239 163.899 82.3159 165.983 81.8239L166.603 79.8879Z" fill="#B55B52"/>
<path d="M161.487 76.4199L160.499 79.5319L162.147 80.6119L164.447 77.6479L161.487 76.4199Z" fill="#B55B52"/>
<path d="M196.875 55.264C196.695 58.172 196.739 59.888 195.275 61.38C193.063 63.628 189.471 62.296 188.779 59.38C188.151 56.764 188.551 52.444 191.399 51.288C192.026 51.0302 192.709 50.9372 193.383 51.0178C194.056 51.0983 194.698 51.3498 195.246 51.7483C195.795 52.1467 196.233 52.6789 196.518 53.2943C196.803 53.9097 196.926 54.5877 196.875 55.264Z" fill="#B55B52"/>
<path d="M199.407 49.188C200.303 50.012 199.923 50.932 199.455 51.104C200.907 51.404 201.119 52.56 200.355 55C199.627 57.336 197.863 60.468 195.659 60.66C192.347 60.948 191.379 57.496 191.355 54.072C189.483 54.188 190.291 52.528 187.991 52.912C185.991 53.244 186.743 51.684 185.043 51.004C183.071 50.204 183.467 47.184 185.307 48.052C185.307 48.052 184.455 48.612 185.447 49.14C186.439 49.668 186.343 48.448 188.307 48.3C190.271 48.152 190.499 49.832 192.795 48.82C195.675 47.548 197.567 47.488 199.407 49.188Z" fill="#263238"/>
<path d="M198.303 51.0879C198.434 50.8784 198.628 50.7167 198.858 50.6266C199.088 50.5365 199.341 50.523 199.579 50.5879C200.479 50.7799 200.551 51.1759 201.115 51.1239C201.679 51.0719 201.475 51.6719 201.475 51.6719C201.475 51.6719 201.323 51.2199 200.643 51.4719C199.963 51.7239 199.519 51.1079 199.227 51.3839C198.935 51.6599 198.303 51.0879 198.303 51.0879Z" fill="#263238"/>
<path d="M192.923 56.056C192.795 56.7691 192.433 57.4193 191.895 57.904C191.183 58.536 190.567 58.028 190.543 57.164C190.543 56.384 190.875 55.112 191.695 54.808C192.515 54.504 193.071 55.192 192.923 56.056Z" fill="#B55B52"/>
<path d="M191.475 92.236C191.475 92.236 194.811 114.688 196.643 123.088C198.643 132.288 212.583 156.768 212.583 156.768L217.703 155.104C217.703 155.104 206.603 133.048 205.459 123.924C204.215 114.024 201.619 92.22 201.619 92.22L191.475 92.236Z" fill="#263238"/>
<path d="M211.151 155.168C211.131 155.168 212.323 156.96 212.323 156.96L218.075 155.088L217.399 153.368L211.151 155.168Z" fill="#FA1239"/>
<path opacity="0.3" d="M193.583 100.236C197.439 100.992 197.031 115.372 196.567 122.768C195.455 117.54 193.827 107.48 192.715 100.34C192.984 100.207 193.29 100.171 193.583 100.236Z" fill="black"/>
<path d="M185.903 92.236C185.903 92.236 185.503 114.208 185.815 123.168C186.147 132.488 189.415 163.008 189.415 163.008H194.395C194.395 163.008 194.575 133.032 194.795 123.88C195.035 113.88 196.239 92.236 196.239 92.236H185.903Z" fill="#263238"/>
<path d="M188.447 161.024C188.423 161.024 188.727 163.092 188.727 163.092H194.783L194.947 161.248L188.447 161.024Z" fill="#FA1239"/>
</svg>
