<svg width="114" height="14" viewBox="0 0 114 14" fill="none" xmlns="http://www.w3.org/2000/svg">
<path d="M11.556 13L15.264 0.399999H17.388L13.572 13H11.556ZM3.924 13L0.162 0.399999H2.268L5.958 13H3.924ZM4.194 13L7.74 0.399999H9.666L6.138 13H4.194ZM11.358 13L7.884 0.399999H9.81L13.392 13H11.358ZM18.677 13V0.399999H20.693V13H18.677ZM24.779 13V8.392H26.795V13H24.779ZM24.779 8.392C24.779 7.672 24.695 7.12 24.527 6.736C24.359 6.34 24.125 6.064 23.825 5.908C23.537 5.752 23.201 5.674 22.817 5.674C22.133 5.662 21.605 5.884 21.233 6.34C20.873 6.796 20.693 7.45 20.693 8.302H19.919C19.919 7.354 20.057 6.544 20.333 5.872C20.621 5.188 21.023 4.672 21.539 4.324C22.055 3.964 22.667 3.784 23.375 3.784C24.083 3.784 24.695 3.928 25.211 4.216C25.727 4.504 26.117 4.954 26.381 5.566C26.657 6.166 26.795 6.952 26.795 7.924V8.392H24.779ZM34.3267 13L34.2367 11.308V8.374C34.2367 7.762 34.1707 7.252 34.0387 6.844C33.9187 6.424 33.7147 6.106 33.4267 5.89C33.1507 5.662 32.7787 5.548 32.3107 5.548C31.8787 5.548 31.5007 5.638 31.1767 5.818C30.8527 5.998 30.5767 6.28 30.3487 6.664L28.5847 6.016C28.7767 5.62 29.0287 5.254 29.3407 4.918C29.6647 4.57 30.0667 4.294 30.5467 4.09C31.0387 3.886 31.6267 3.784 32.3107 3.784C33.1867 3.784 33.9187 3.958 34.5067 4.306C35.0947 4.642 35.5267 5.128 35.8027 5.764C36.0907 6.4 36.2347 7.168 36.2347 8.068L36.1807 13H34.3267ZM31.7347 13.216C30.6547 13.216 29.8147 12.976 29.2147 12.496C28.6267 12.016 28.3327 11.338 28.3327 10.462C28.3327 9.526 28.6447 8.812 29.2687 8.32C29.9047 7.828 30.7867 7.582 31.9147 7.582H34.3267V9.13H32.5627C31.7587 9.13 31.1947 9.244 30.8707 9.472C30.5467 9.688 30.3847 10 30.3847 10.408C30.3847 10.756 30.5227 11.032 30.7987 11.236C31.0867 11.428 31.4827 11.524 31.9867 11.524C32.4427 11.524 32.8387 11.422 33.1747 11.218C33.5107 11.014 33.7687 10.744 33.9487 10.408C34.1407 10.072 34.2367 9.694 34.2367 9.274H34.8307C34.8307 10.498 34.5847 11.464 34.0927 12.172C33.6007 12.868 32.8147 13.216 31.7347 13.216ZM41.8582 13.216C40.9102 13.216 40.1842 12.982 39.6802 12.514C39.1882 12.034 38.9422 11.35 38.9422 10.462V1.192H40.9402V10.084C40.9402 10.504 41.0362 10.822 41.2282 11.038C41.4322 11.254 41.7262 11.362 42.1102 11.362C42.2302 11.362 42.3622 11.338 42.5062 11.29C42.6502 11.242 42.8122 11.152 42.9922 11.02L43.7302 12.55C43.4182 12.766 43.1062 12.928 42.7942 13.036C42.4822 13.156 42.1702 13.216 41.8582 13.216ZM37.4482 5.728V4H43.3702V5.728H37.4482ZM55.2284 7.78L53.3024 7.168L57.3704 0.399999H59.7644L55.2284 7.78ZM53.1944 13V6.952H55.2824V13H53.1944ZM53.2484 7.78L48.7124 0.399999H51.1064L55.1744 7.168L53.2484 7.78ZM63.8087 13.216C62.9087 13.216 62.1047 13.018 61.3967 12.622C60.7007 12.214 60.1547 11.656 59.7587 10.948C59.3627 10.24 59.1647 9.424 59.1647 8.5C59.1647 7.576 59.3567 6.76 59.7407 6.052C60.1367 5.344 60.6827 4.792 61.3787 4.396C62.0747 3.988 62.8727 3.784 63.7727 3.784C64.6727 3.784 65.4707 3.988 66.1667 4.396C66.8627 4.792 67.4027 5.344 67.7867 6.052C68.1827 6.76 68.3807 7.576 68.3807 8.5C68.3807 9.424 68.1887 10.24 67.8047 10.948C67.4207 11.656 66.8807 12.214 66.1847 12.622C65.4887 13.018 64.6967 13.216 63.8087 13.216ZM63.8087 11.362C64.3007 11.362 64.7387 11.242 65.1227 11.002C65.5067 10.75 65.8067 10.414 66.0227 9.994C66.2387 9.562 66.3467 9.064 66.3467 8.5C66.3467 7.936 66.2327 7.444 66.0047 7.024C65.7887 6.592 65.4887 6.256 65.1047 6.016C64.7207 5.764 64.2767 5.638 63.7727 5.638C63.2687 5.638 62.8247 5.758 62.4407 5.998C62.0567 6.238 61.7567 6.574 61.5407 7.006C61.3247 7.438 61.2167 7.936 61.2167 8.5C61.2167 9.064 61.3247 9.562 61.5407 9.994C61.7687 10.414 62.0747 10.75 62.4587 11.002C62.8547 11.242 63.3047 11.362 63.8087 11.362ZM76.1577 13L76.0497 11.344V4H78.0477V13H76.1577ZM69.9297 8.608V4H71.9457V8.608H69.9297ZM71.9457 8.608C71.9457 9.316 72.0297 9.868 72.1977 10.264C72.3657 10.66 72.5937 10.936 72.8817 11.092C73.1817 11.248 73.5237 11.326 73.9077 11.326C74.5917 11.338 75.1197 11.116 75.4917 10.66C75.8637 10.204 76.0497 9.55 76.0497 8.698H76.8057C76.8057 9.646 76.6617 10.462 76.3737 11.146C76.0977 11.818 75.7017 12.334 75.1857 12.694C74.6817 13.042 74.0697 13.216 73.3497 13.216C72.6417 13.216 72.0297 13.072 71.5137 12.784C71.0097 12.496 70.6197 12.046 70.3437 11.434C70.0677 10.822 69.9297 10.036 69.9297 9.076V8.608H71.9457ZM90.7857 13.216C89.5137 13.216 88.3797 12.94 87.3837 12.388C86.3997 11.824 85.6257 11.056 85.0617 10.084C84.4977 9.1 84.2157 7.978 84.2157 6.718C84.2157 5.434 84.4977 4.306 85.0617 3.334C85.6257 2.35 86.3997 1.582 87.3837 1.03C88.3797 0.466 89.5137 0.184 90.7857 0.184C91.5177 0.184 92.2017 0.298 92.8377 0.526C93.4857 0.754 94.0677 1.066 94.5837 1.462C95.0997 1.846 95.5197 2.296 95.8437 2.812L94.1517 3.892C93.9237 3.544 93.6297 3.232 93.2697 2.956C92.9097 2.68 92.5137 2.47 92.0817 2.326C91.6617 2.17 91.2297 2.092 90.7857 2.092C89.9217 2.092 89.1537 2.29 88.4817 2.686C87.8217 3.082 87.2997 3.628 86.9157 4.324C86.5317 5.008 86.3397 5.806 86.3397 6.718C86.3397 7.606 86.5257 8.398 86.8977 9.094C87.2817 9.79 87.8097 10.336 88.4817 10.732C89.1657 11.128 89.9517 11.326 90.8397 11.326C91.5357 11.326 92.1597 11.182 92.7117 10.894C93.2637 10.606 93.6957 10.204 94.0077 9.688C94.3317 9.172 94.4937 8.578 94.4937 7.906L96.4917 7.654C96.4917 8.794 96.2457 9.784 95.7537 10.624C95.2737 11.452 94.6017 12.094 93.7377 12.55C92.8857 12.994 91.9017 13.216 90.7857 13.216ZM91.4697 8.068V6.376H96.4917V7.78L95.3757 8.068H91.4697ZM102.144 13.216C101.268 13.216 100.488 13.018 99.8037 12.622C99.1317 12.214 98.5977 11.656 98.2017 10.948C97.8177 10.24 97.6257 9.424 97.6257 8.5C97.6257 7.576 97.8237 6.76 98.2197 6.052C98.6157 5.344 99.1557 4.792 99.8397 4.396C100.536 3.988 101.328 3.784 102.216 3.784C103.02 3.784 103.746 3.994 104.394 4.414C105.042 4.822 105.552 5.416 105.924 6.196C106.308 6.976 106.5 7.906 106.5 8.986H99.4257L99.6957 8.734C99.6957 9.286 99.8157 9.766 100.056 10.174C100.296 10.57 100.614 10.876 101.01 11.092C101.406 11.308 101.844 11.416 102.324 11.416C102.876 11.416 103.332 11.296 103.692 11.056C104.052 10.804 104.334 10.48 104.538 10.084L106.32 10.84C106.068 11.32 105.744 11.74 105.348 12.1C104.964 12.46 104.502 12.736 103.962 12.928C103.434 13.12 102.828 13.216 102.144 13.216ZM99.8217 7.69L99.5337 7.438H104.61L104.34 7.69C104.34 7.198 104.232 6.796 104.016 6.484C103.8 6.16 103.524 5.92 103.188 5.764C102.864 5.596 102.522 5.512 102.162 5.512C101.802 5.512 101.442 5.596 101.082 5.764C100.722 5.92 100.422 6.16 100.182 6.484C99.9417 6.796 99.8217 7.198 99.8217 7.69ZM111.626 13.216C110.678 13.216 109.952 12.982 109.448 12.514C108.956 12.034 108.71 11.35 108.71 10.462V1.192H110.708V10.084C110.708 10.504 110.804 10.822 110.996 11.038C111.2 11.254 111.494 11.362 111.878 11.362C111.998 11.362 112.13 11.338 112.274 11.29C112.418 11.242 112.58 11.152 112.76 11.02L113.498 12.55C113.186 12.766 112.874 12.928 112.562 13.036C112.25 13.156 111.938 13.216 111.626 13.216ZM107.216 5.728V4H113.138V5.728H107.216Z" fill="black"/>
</svg>
